<svg width="215" height="214" viewBox="0 0 215 214" fill="none" xmlns="http://www.w3.org/2000/svg">
<g clip-path="url(#clip0_905_837)" filter="url(#filter0_d_905_837)">
<g filter="url(#filter1_f_905_837)">
<path fill-rule="evenodd" clip-rule="evenodd" d="M41.8172 158.73V158.583C40.6247 157.207 39.4722 155.803 38.3598 154.372H36.7279L35.5032 156.993C36.5043 158.286 37.5055 159.543 38.5801 160.76L41.8172 158.73Z" fill="white"/>
<path fill-rule="evenodd" clip-rule="evenodd" d="M180.001 49.7479V49.3044L179.964 49.2677H179.927L176.664 50.8549L176.443 51.0016L176.7 51.3717L180.001 49.7479ZM120.642 13.5173H93.6873C78.9328 15.7209 64.9567 21.5503 53.0135 30.4823V32.2161L57.3151 32.1061C67.833 24.6906 79.8754 19.7151 92.5633 17.5426C105.251 15.3702 118.265 16.0557 130.654 19.5491C131.655 19.8092 132.656 20.1026 133.657 20.436C145.26 24.1593 155.938 30.3021 164.987 38.4579L167.803 39.0881L165.951 38.9748C165.838 38.9748 165.691 38.9381 165.504 38.9381L164.987 38.4579L167.803 39.0881L170.51 39.2715H171.401C157.699 25.4511 139.895 16.4226 120.642 13.5307V13.5173Z" fill="white"/>
<path fill-rule="evenodd" clip-rule="evenodd" d="M31.6588 151.601H32.0659L33.4008 147.873V147.096C26.0886 135.093 21.8267 121.485 20.9868 107.458C20.1468 93.431 22.7543 79.4118 28.5819 66.623L27.4672 61.0847H26.9867C19.6395 75.2245 16.1992 91.0662 17.0204 106.977C17.8417 122.887 22.8947 138.291 31.6588 151.601Z" fill="white"/>
<path fill-rule="evenodd" clip-rule="evenodd" d="M110.891 188.605V188.348C109.666 188.385 108.408 188.422 107.146 188.422C90.1127 188.445 73.455 183.419 59.2808 173.981H56.0904L54.275 175.128C66.071 183.675 79.778 189.215 94.2046 191.266C97.3142 191.716 100.446 192 103.585 192.116C104.774 192.153 105.958 192.189 107.146 192.189H108.294L110.891 188.605Z" fill="white"/>
<path fill-rule="evenodd" clip-rule="evenodd" d="M123.051 190.786H123.162C133.178 188.999 142.818 185.53 151.675 180.526H143.332C137.002 183.436 130.34 185.563 123.495 186.861L123.051 189.815V190.786ZM123.051 186.945V189.826L123.495 186.871L123.051 186.945Z" fill="white"/>
<path fill-rule="evenodd" clip-rule="evenodd" d="M181.115 50.855H177.741L177.187 51.1551V52.0053C184.2 61.7022 189.111 72.754 191.608 84.4545C194.104 96.1551 194.13 108.247 191.684 119.958L193.093 129.931C195.945 121.025 197.397 111.731 197.394 102.38C197.429 83.9367 191.741 65.936 181.115 50.855Z" fill="white"/>
<path fill-rule="evenodd" clip-rule="evenodd" d="M103.512 206C76.6724 205.001 51.2738 193.612 32.6866 174.241C37.4688 176.345 42.2877 178.452 47.0733 180.593C53.8211 184.767 56.9714 187.722 65.0942 191.339C77.3283 196.804 92.7929 201.459 106.322 201.716L105.695 202.826L103.512 206Z" fill="white"/>
<path fill-rule="evenodd" clip-rule="evenodd" d="M118.119 201.162L111.818 205.963C166.989 203.713 210.997 158.52 210.997 103.037C210.997 46.1269 164.653 0.00683594 107.517 0.00683594C50.3804 0.00683594 3.98665 46.1269 3.98665 103.037C3.9608 123.426 10.0277 143.358 21.4102 160.28L26.9733 160.504C14.9268 143.761 8.4586 123.656 8.4852 103.037C8.4852 48.5276 52.8299 4.34143 107.517 4.34143C162.203 4.34143 206.511 48.5109 206.511 103.037C206.511 153.965 167.8 195.881 118.119 201.162Z" fill="white"/>
<path d="M43.5292 174.858H44.1566C45.1944 174.784 46.4926 174.268 48.0878 173.271L71.0644 158.753C72.2014 157.94 73.4048 157.224 74.6619 156.613C75.4851 156.174 76.3992 155.933 77.3317 155.909C78.3729 155.921 79.3892 156.228 80.2618 156.796L80.779 155.762L68.9153 149.667C64.691 147.631 60.679 145.182 56.9381 142.355C53.4173 139.661 50.524 136.02 48.3014 131.389C47.8178 129.973 47.5676 128.489 47.5605 126.994C47.5605 120.419 52.306 114.349 61.797 108.785C69.3896 104.445 77.7708 101.658 86.4523 100.586C87.7453 100.44 89.0455 100.366 90.3468 100.366C95.2758 100.366 99.4674 101.436 102.878 103.54C106.289 105.644 107.994 108.122 107.994 110.966V111.333L108.771 111.483L108.845 110.816C108.814 109.646 108.523 108.498 107.994 107.455C107.442 106.418 107.138 105.268 107.106 104.094C107.124 103.272 107.441 102.485 107.997 101.88C103.696 99.9594 98.84 98.9991 93.3136 98.9991C87.7318 99.0324 82.1807 99.8278 76.8144 101.363C71.3607 102.837 66.1161 104.996 61.2063 107.788C54.6521 111.667 50.2915 115.73 48.1245 119.975C49.8665 115.507 52.7599 110.973 56.8012 106.495C60.8793 101.953 65.3656 97.4231 70.2602 92.904C74.3015 89.0995 78.1193 85.3351 81.7435 81.4973C85.1484 77.9964 88.1577 74.1321 90.7172 69.974C93.09 66.1328 94.2747 62.1817 94.2747 58.1938C94.2747 54.5728 92.9765 50.8584 90.4936 47.0773C89.9194 47.5505 89.199 47.8109 88.4546 47.8142C87.1997 47.773 85.9754 47.4176 84.8938 46.7805C83.8167 46.1012 82.5733 45.7309 81.2996 45.7102H80.8524L81.0026 46.5238C83.8559 46.7805 86.4523 48.2943 88.7516 50.9184C91.0876 53.6125 92.2356 56.8635 92.2356 60.6679C92.2356 63.9189 91.1244 67.2798 88.9352 70.7142C86.5171 74.4383 83.7359 77.9141 80.6322 81.0905C77.9624 83.8613 74.2181 87.5157 69.4726 92.0604C64.0484 96.9973 58.937 102.267 54.1682 107.838C49.7186 113.047 47.0121 118.29 46.0488 123.57L45.9019 121.096C45.8553 116.824 46.9831 112.621 49.1624 108.945C51.2423 105.475 53.5982 102.178 56.2072 99.0858C58.9137 95.8715 61.7336 92.7339 64.6603 89.633C72.5962 81.1739 77.859 74.4519 80.492 69.3571C82.0138 66.4396 82.7547 63.5954 82.7547 60.8613C82.7547 57.687 81.6801 54.4728 79.4909 51.2218C77.3017 47.9709 73.8577 44.4265 69.0354 40.6988C66.6942 38.8834 64.0077 37.5629 61.1396 36.8176H48.7052C47.4558 37.126 46.2292 37.5204 45.0343 37.998C41.8428 39.2904 38.9526 41.2268 36.5444 43.6863C32.6866 47.6875 30.761 52.2921 30.761 57.4236C30.7912 61.0939 31.6658 64.7081 33.3173 67.9867C35.0645 71.5408 37.2985 74.8345 39.955 77.7729L48.2213 71.0143C45.7208 70.2429 43.3925 68.9976 41.3633 67.3465C39.12 65.593 37.2214 63.4394 35.7635 60.9947C34.3242 58.7028 33.5544 56.0547 33.5409 53.3491C33.5409 50.0993 34.838 47.1451 37.4321 44.4865C39.6796 42.1043 42.4274 40.2493 45.4781 39.0549C48.4796 37.8322 51.691 37.2059 54.9324 37.2111C60.0517 37.2111 64.5369 38.6882 68.3546 41.6057C71.9888 44.4865 73.8443 48.0309 73.8443 52.2421C73.8443 57.9282 70.9143 64.3167 65.0541 71.4077C62.1641 75.0288 58.9003 78.7198 55.3762 82.561C51.9656 86.1787 48.7018 89.8731 45.6249 93.6408C42.6744 97.1737 40.0904 100.997 37.9127 105.051C35.8736 108.929 34.8358 112.77 34.8358 116.648C34.8358 121.316 36.6512 125.954 40.2487 130.608C39.8783 130.388 39.5078 130.201 39.1374 130.018L40.9529 132.419C42.2785 133.088 43.4042 134.094 44.2166 135.336C46.1422 138.217 43.8829 135.853 46.5527 137.884C47.4468 138.52 48.2351 139.293 48.8887 140.174C50.6123 140.761 52.2471 141.581 53.7477 142.612C57.2684 144.976 60.7925 147.19 64.4267 149.28C63.8173 149.503 63.2324 149.788 62.6814 150.131L50.5573 157.776C41.4367 163.575 36.4309 166.749 35.4698 167.192C34.6483 167.635 33.7332 167.876 32.8001 167.896C31.7733 167.866 30.7736 167.559 29.9067 167.009L25.4215 164.718C25.1759 164.75 24.9282 164.762 24.6807 164.755L24.7908 165.458L24.8275 165.715L33.9848 170.383L41.1397 174.151C41.8805 174.532 42.6867 174.769 43.5158 174.851L43.5292 174.858Z" fill="white"/>
<path d="M161.209 162.041C156.575 165.768 151.532 167.922 146.081 168.503L146.155 169.683C158.649 167.802 168.734 162.99 176.41 155.245C184.085 147.526 187.903 138.907 187.903 129.571C187.903 121.925 185.233 114.933 179.894 108.595C176.817 104.974 173.814 102.797 170.85 102.13C171.322 101.681 171.733 101.172 172.072 100.616L178.709 89.2062L177.708 88.616C176.967 90.0164 176.039 90.9033 174.851 91.2834C173.663 91.6635 171.701 91.8336 168.921 91.8336H146.525L165.36 80.9404C166.695 80.2002 167.513 79.35 167.847 78.353C168.222 77.1596 168.396 75.9124 168.364 74.6619V57.4903C168.364 55.2396 168.477 53.5758 168.734 52.4688C168.96 51.4106 169.519 50.4524 170.33 49.7347L178.225 44.1964L177.558 43.1961C175.899 44.3953 173.899 45.0301 171.851 45.0066C169.922 45.0066 167.623 44.5632 164.99 43.6396L150.383 38.6914C146.083 37.2888 142.412 36.5864 139.37 36.5842C137.164 36.5497 134.969 36.8995 132.883 37.6178C130.857 38.3652 128.908 39.3054 127.063 40.4253L120.315 44.3398C121.056 40.722 122.094 37.8412 123.428 35.7739C124.763 33.7067 126.245 32.2262 127.84 31.3793C129.24 30.5756 130.822 30.1429 132.436 30.1223C133.863 30.0868 135.278 30.4041 136.554 31.0459C137.582 31.5198 138.456 32.2746 139.073 33.2232L139.814 32.9298C139.037 31.416 137.221 30.2323 134.438 29.3087C133.17 28.8693 131.951 28.3006 130.8 27.6116C130.291 27.2978 129.855 26.8781 129.522 26.381C129.189 25.8839 128.967 25.3211 128.871 24.7307C124.94 26.2445 122.197 28.9786 120.752 32.9298C119.287 36.9738 118.473 41.2246 118.343 45.5234C118.459 46.3305 118.483 47.1482 118.416 47.9608C118.376 48.3212 118.314 48.6786 118.229 49.0311C118.229 51.912 118.192 57.0335 118.192 64.5056C116.971 65.0225 115.746 65.5059 114.521 65.9827C113.374 67.7642 111.646 69.0951 109.629 69.7505L107.59 70.9675C107.033 71.2033 106.447 71.3648 105.848 71.4477L105.735 71.521L105.588 71.6344C104.326 72.3346 103.512 73.1848 103.142 74.1451C102.985 74.537 102.873 74.9453 102.808 75.3621C102.649 76.1894 102.574 77.0306 102.584 77.8729V98.7023L93.5005 103.984C93.5372 104.094 93.5372 104.207 93.5739 104.317C93.6106 104.427 93.6106 104.724 93.6473 104.984L93.7608 105.207C94.9822 104.541 96.0601 104.174 96.9845 104.174C98.9134 104.174 100.322 105.281 101.249 107.508C102.174 109.886 102.627 112.42 102.584 114.97V134.179C102.584 136.58 102.474 138.317 102.177 139.461C101.932 140.596 101.27 141.597 100.322 142.268C98.8033 138.317 98.0591 134.623 98.0591 131.078C98.0591 126.277 99.434 123.076 102.14 121.366L101.546 120.365L94.7986 124.316C92.9105 125.28 91.1634 126.497 89.6059 127.934C89.3642 128.267 89.1414 128.613 88.9385 128.971C88.6121 129.535 88.2126 130.053 87.7504 130.512C87.1376 131.958 86.8461 133.52 86.8961 135.09C86.8961 138.117 87.5636 141.515 88.8617 145.282C89.7342 147.808 90.918 150.215 92.3858 152.448C92.7094 152.784 92.9948 153.156 93.2368 153.555C94.0544 154.889 95.1657 155.182 96.1669 157.286L97.9823 158.91L99.4307 160.82C100.574 161.196 101.624 161.814 102.508 162.631C103.545 163.591 103.545 164.035 104.286 164.255C107.066 165.142 107.957 166.842 108.551 167.025C109.241 167.236 109.9 167.534 110.514 167.912C111.962 168.539 113.407 169.166 114.852 169.76H114.815C115.056 169.842 115.304 169.903 115.556 169.943C115.95 170.03 116.319 170.207 116.634 170.46L118.189 170.977C118.189 177.809 117.558 183.09 116.187 186.895C114.852 190.626 113.183 193.23 111.181 194.724C109.179 196.217 107.103 196.941 105.064 196.941C103.645 196.973 102.241 196.642 100.986 195.981C99.7644 195.35 98.9101 194.647 98.4295 193.8L97.6853 194.097C98.1553 195.043 98.9248 195.809 99.8745 196.274C100.911 196.846 101.988 197.34 103.098 197.751C104.37 198.195 105.589 198.777 106.732 199.488C107.241 199.786 107.677 200.191 108.011 200.677C108.344 201.162 108.566 201.715 108.661 202.296C114.742 200.073 118.165 194.336 118.93 185.084C119.227 181.206 119.377 176.665 119.377 171.413C127.983 174.224 136.981 175.645 146.035 175.625L148.815 175.588C149.222 175.218 149.816 174.921 151.374 174.921C151.811 174.384 152.432 174.027 153.116 173.921C153.67 173.861 154.228 173.837 154.785 173.847C156.158 173.069 157.566 172.33 159.01 171.63C161.459 170.56 163.498 169.896 165.24 169.63C166.699 169.391 168.174 169.256 169.652 169.226L171.394 169.076C172.284 168.929 172.915 168.634 173.286 168.189C173.468 168.025 173.614 167.827 173.716 167.605C173.818 167.383 173.874 167.143 173.88 166.899C173.87 166.523 173.739 166.161 173.507 165.865C173.167 165.577 172.73 165.431 172.285 165.458C171.934 165.46 171.585 165.51 171.247 165.605C167.896 166.595 164.614 167.805 161.423 169.226C157.164 170.866 152.638 171.705 148.074 171.7C143.055 171.686 138.072 170.863 133.317 169.263C128.411 167.636 123.728 165.403 119.377 162.614V154.045L126.756 146.71L119.377 139.374V115.21C119.366 112.617 119.527 110.027 119.858 107.455C120.114 105.081 120.779 102.77 121.823 100.623C122.752 98.6218 124.264 96.9481 126.162 95.8214L125.568 94.7878L119.377 98.4555V94.8612C119.366 92.2682 119.527 89.6774 119.858 87.1056C120.114 84.732 120.779 82.4206 121.823 80.2736C122.752 78.2725 124.264 76.5988 126.162 75.4722L125.568 74.4385L119.387 78.0596V65.2058C127.283 61.6615 133.66 56.9701 138.593 51.025L137.702 50.3248C132.919 55.9732 126.839 60.5178 119.387 63.9155V55.6064C119.356 52.4659 119.579 49.3281 120.055 46.2236C122.399 45.2243 124.915 44.6854 127.463 44.6365C131.432 44.6365 137.365 46.2859 145.26 49.5846C147.67 50.5449 150.043 51.4318 152.489 52.2087C154.824 52.968 157.265 53.354 159.721 53.3524L161.499 53.279C159.57 54.2026 158.309 55.0862 157.605 55.9465C156.901 56.8067 156.604 58.3472 156.604 60.6378V77.8095C156.604 80.5803 156.42 82.5375 156.013 83.6812C155.606 84.8249 154.715 85.8252 153.303 86.5987L144.189 91.8336H135.139C133.882 91.7853 132.627 91.9603 131.431 92.3504C130.467 92.7205 129.576 93.5341 128.871 94.7878L122.16 106.201L123.198 106.791C123.939 105.388 124.904 104.501 126.055 104.094C127.206 103.687 129.168 103.54 131.912 103.54H162.647C161.607 104.158 160.604 104.836 159.644 105.571L152.933 110.742L153.677 111.666C155.179 110.553 156.996 109.945 158.866 109.929C162.611 109.929 166.281 111.703 169.879 115.284C174.511 119.901 176.821 125.429 176.81 131.869C176.81 137.332 175.364 142.797 172.472 148.263C169.707 153.581 165.872 158.272 161.209 162.041ZM118.199 139.367L110.784 146.703L118.199 154.038V161.867C109.412 155.996 103.592 149.864 100.772 143.402L111.415 137.237C112.713 136.497 113.49 135.646 113.861 134.686C114.202 133.473 114.365 132.218 114.345 130.958V73.665C114.318 72.0911 114.504 70.5209 114.899 68.9969C115.309 67.6299 116.42 66.5229 118.199 65.7093V139.367Z" fill="white"/>
</g>
<path fill-rule="evenodd" clip-rule="evenodd" d="M41.8172 158.73V158.583C40.6247 157.207 39.4722 155.803 38.3598 154.372H36.7279L35.5032 156.993C36.5043 158.286 37.5055 159.543 38.5801 160.76L41.8172 158.73Z" fill="white"/>
<path fill-rule="evenodd" clip-rule="evenodd" d="M180.001 49.7479V49.3044L179.964 49.2677H179.927L176.664 50.8549L176.443 51.0016L176.7 51.3717L180.001 49.7479ZM120.642 13.5173H93.6873C78.9328 15.7209 64.9567 21.5503 53.0135 30.4823V32.2161L57.3151 32.1061C67.833 24.6906 79.8754 19.7151 92.5633 17.5426C105.251 15.3702 118.265 16.0557 130.654 19.5491C131.655 19.8092 132.656 20.1026 133.657 20.436C145.26 24.1593 155.938 30.3021 164.987 38.4579L167.803 39.0881L165.951 38.9748C165.838 38.9748 165.691 38.9381 165.504 38.9381L164.987 38.4579L167.803 39.0881L170.51 39.2715H171.401C157.699 25.4511 139.895 16.4226 120.642 13.5307V13.5173Z" fill="white"/>
<path fill-rule="evenodd" clip-rule="evenodd" d="M31.6588 151.601H32.0659L33.4008 147.873V147.096C26.0886 135.093 21.8267 121.485 20.9868 107.458C20.1468 93.431 22.7543 79.4118 28.5819 66.623L27.4672 61.0847H26.9867C19.6395 75.2245 16.1992 91.0662 17.0204 106.977C17.8417 122.887 22.8947 138.291 31.6588 151.601Z" fill="white"/>
<path fill-rule="evenodd" clip-rule="evenodd" d="M110.891 188.605V188.348C109.666 188.385 108.408 188.422 107.146 188.422C90.1127 188.445 73.455 183.419 59.2808 173.981H56.0904L54.275 175.128C66.071 183.675 79.778 189.215 94.2046 191.266C97.3142 191.716 100.446 192 103.585 192.116C104.774 192.153 105.958 192.189 107.146 192.189H108.294L110.891 188.605Z" fill="white"/>
<path fill-rule="evenodd" clip-rule="evenodd" d="M123.051 190.786H123.162C133.178 188.999 142.818 185.53 151.675 180.526H143.332C137.002 183.436 130.34 185.563 123.495 186.861L123.051 189.815V190.786ZM123.051 186.945V189.826L123.495 186.871L123.051 186.945Z" fill="white"/>
<path fill-rule="evenodd" clip-rule="evenodd" d="M181.115 50.855H177.741L177.187 51.1551V52.0053C184.2 61.7022 189.111 72.754 191.608 84.4545C194.104 96.1551 194.13 108.247 191.684 119.958L193.093 129.931C195.945 121.025 197.397 111.731 197.394 102.38C197.429 83.9367 191.741 65.936 181.115 50.855Z" fill="white"/>
<path fill-rule="evenodd" clip-rule="evenodd" d="M103.512 206C76.6724 205.001 51.2738 193.612 32.6866 174.241C37.4688 176.345 42.2877 178.452 47.0733 180.593C53.8211 184.767 56.9714 187.722 65.0942 191.339C77.3283 196.804 92.7929 201.459 106.322 201.716L105.695 202.826L103.512 206Z" fill="white"/>
<path fill-rule="evenodd" clip-rule="evenodd" d="M118.119 201.162L111.818 205.963C166.989 203.713 210.997 158.52 210.997 103.037C210.997 46.1269 164.653 0.00683594 107.517 0.00683594C50.3804 0.00683594 3.98665 46.1269 3.98665 103.037C3.9608 123.426 10.0277 143.358 21.4102 160.28L26.9733 160.504C14.9268 143.761 8.4586 123.656 8.4852 103.037C8.4852 48.5276 52.8299 4.34143 107.517 4.34143C162.203 4.34143 206.511 48.5109 206.511 103.037C206.511 153.965 167.8 195.881 118.119 201.162Z" fill="white"/>
<path d="M43.5292 174.858H44.1566C45.1944 174.784 46.4926 174.268 48.0878 173.271L71.0644 158.753C72.2014 157.94 73.4048 157.224 74.6619 156.613C75.4851 156.174 76.3992 155.933 77.3317 155.909C78.3729 155.921 79.3892 156.228 80.2618 156.796L80.779 155.762L68.9153 149.667C64.691 147.631 60.679 145.182 56.9381 142.355C53.4173 139.661 50.524 136.02 48.3014 131.389C47.8178 129.973 47.5676 128.489 47.5605 126.994C47.5605 120.419 52.306 114.349 61.797 108.785C69.3896 104.445 77.7708 101.658 86.4523 100.586C87.7453 100.44 89.0455 100.366 90.3468 100.366C95.2758 100.366 99.4674 101.436 102.878 103.54C106.289 105.644 107.994 108.122 107.994 110.966V111.333L108.771 111.483L108.845 110.816C108.814 109.646 108.523 108.498 107.994 107.455C107.442 106.418 107.138 105.268 107.106 104.094C107.124 103.272 107.441 102.485 107.997 101.88C103.696 99.9594 98.84 98.9991 93.3136 98.9991C87.7318 99.0324 82.1807 99.8278 76.8144 101.363C71.3607 102.837 66.1161 104.996 61.2063 107.788C54.6521 111.667 50.2915 115.73 48.1245 119.975C49.8665 115.507 52.7599 110.973 56.8012 106.495C60.8793 101.953 65.3656 97.4231 70.2602 92.904C74.3015 89.0995 78.1193 85.3351 81.7435 81.4973C85.1484 77.9964 88.1577 74.1321 90.7172 69.974C93.09 66.1328 94.2747 62.1817 94.2747 58.1938C94.2747 54.5728 92.9765 50.8584 90.4936 47.0773C89.9194 47.5505 89.199 47.8109 88.4546 47.8142C87.1997 47.773 85.9754 47.4176 84.8938 46.7805C83.8167 46.1012 82.5733 45.7309 81.2996 45.7102H80.8524L81.0026 46.5238C83.8559 46.7805 86.4523 48.2943 88.7516 50.9184C91.0876 53.6125 92.2356 56.8635 92.2356 60.6679C92.2356 63.9189 91.1244 67.2798 88.9352 70.7142C86.5171 74.4383 83.7359 77.9141 80.6322 81.0905C77.9624 83.8613 74.2181 87.5157 69.4726 92.0604C64.0484 96.9973 58.937 102.267 54.1682 107.838C49.7186 113.047 47.0121 118.29 46.0488 123.57L45.9019 121.096C45.8553 116.824 46.9831 112.621 49.1624 108.945C51.2423 105.475 53.5982 102.178 56.2072 99.0858C58.9137 95.8715 61.7336 92.7339 64.6603 89.633C72.5962 81.1739 77.859 74.4519 80.492 69.3571C82.0138 66.4396 82.7547 63.5954 82.7547 60.8613C82.7547 57.687 81.6801 54.4728 79.4909 51.2218C77.3017 47.9709 73.8577 44.4265 69.0354 40.6988C66.6942 38.8834 64.0077 37.5629 61.1396 36.8176H48.7052C47.4558 37.126 46.2292 37.5204 45.0343 37.998C41.8428 39.2904 38.9526 41.2268 36.5444 43.6863C32.6866 47.6875 30.761 52.2921 30.761 57.4236C30.7912 61.0939 31.6658 64.7081 33.3173 67.9867C35.0645 71.5408 37.2985 74.8345 39.955 77.7729L48.2213 71.0143C45.7208 70.2429 43.3925 68.9976 41.3633 67.3465C39.12 65.593 37.2214 63.4394 35.7635 60.9947C34.3242 58.7028 33.5544 56.0547 33.5409 53.3491C33.5409 50.0993 34.838 47.1451 37.4321 44.4865C39.6796 42.1043 42.4274 40.2493 45.4781 39.0549C48.4796 37.8322 51.691 37.2059 54.9324 37.2111C60.0517 37.2111 64.5369 38.6882 68.3546 41.6057C71.9888 44.4865 73.8443 48.0309 73.8443 52.2421C73.8443 57.9282 70.9143 64.3167 65.0541 71.4077C62.1641 75.0288 58.9003 78.7198 55.3762 82.561C51.9656 86.1787 48.7018 89.8731 45.6249 93.6408C42.6744 97.1737 40.0904 100.997 37.9127 105.051C35.8736 108.929 34.8358 112.77 34.8358 116.648C34.8358 121.316 36.6512 125.954 40.2487 130.608C39.8783 130.388 39.5078 130.201 39.1374 130.018L40.9529 132.419C42.2785 133.088 43.4042 134.094 44.2166 135.336C46.1422 138.217 43.8829 135.853 46.5527 137.884C47.4468 138.52 48.2351 139.293 48.8887 140.174C50.6123 140.761 52.2471 141.581 53.7477 142.612C57.2684 144.976 60.7925 147.19 64.4267 149.28C63.8173 149.503 63.2324 149.788 62.6814 150.131L50.5573 157.776C41.4367 163.575 36.4309 166.749 35.4698 167.192C34.6483 167.635 33.7332 167.876 32.8001 167.896C31.7733 167.866 30.7736 167.559 29.9067 167.009L25.4215 164.718C25.1759 164.75 24.9282 164.762 24.6807 164.755L24.7908 165.458L24.8275 165.715L33.9848 170.383L41.1397 174.151C41.8805 174.532 42.6867 174.769 43.5158 174.851L43.5292 174.858Z" fill="white"/>
<path d="M161.209 162.041C156.575 165.768 151.532 167.922 146.081 168.503L146.155 169.683C158.649 167.802 168.734 162.99 176.41 155.245C184.085 147.526 187.903 138.907 187.903 129.571C187.903 121.925 185.233 114.933 179.894 108.595C176.817 104.974 173.814 102.797 170.85 102.13C171.322 101.681 171.733 101.172 172.072 100.616L178.709 89.2062L177.708 88.616C176.967 90.0164 176.039 90.9033 174.851 91.2834C173.663 91.6635 171.701 91.8336 168.921 91.8336H146.525L165.36 80.9404C166.695 80.2002 167.513 79.35 167.847 78.353C168.222 77.1596 168.396 75.9124 168.364 74.6619V57.4903C168.364 55.2396 168.477 53.5758 168.734 52.4688C168.96 51.4106 169.519 50.4524 170.33 49.7347L178.225 44.1964L177.558 43.1961C175.899 44.3953 173.899 45.0301 171.851 45.0066C169.922 45.0066 167.623 44.5632 164.99 43.6396L150.383 38.6914C146.083 37.2888 142.412 36.5864 139.37 36.5842C137.164 36.5497 134.969 36.8995 132.883 37.6178C130.857 38.3652 128.908 39.3054 127.063 40.4253L120.315 44.3398C121.056 40.722 122.094 37.8412 123.428 35.7739C124.763 33.7067 126.245 32.2262 127.84 31.3793C129.24 30.5756 130.822 30.1429 132.436 30.1223C133.863 30.0868 135.278 30.4041 136.554 31.0459C137.582 31.5198 138.456 32.2746 139.073 33.2232L139.814 32.9298C139.037 31.416 137.221 30.2323 134.438 29.3087C133.17 28.8693 131.951 28.3006 130.8 27.6116C130.291 27.2978 129.855 26.8781 129.522 26.381C129.189 25.8839 128.967 25.3211 128.871 24.7307C124.94 26.2445 122.197 28.9786 120.752 32.9298C119.287 36.9738 118.473 41.2246 118.343 45.5234C118.459 46.3305 118.483 47.1482 118.416 47.9608C118.376 48.3212 118.314 48.6786 118.229 49.0311C118.229 51.912 118.192 57.0335 118.192 64.5056C116.971 65.0225 115.746 65.5059 114.521 65.9827C113.374 67.7642 111.646 69.0951 109.629 69.7505L107.59 70.9675C107.033 71.2033 106.447 71.3648 105.848 71.4477L105.735 71.521L105.588 71.6344C104.326 72.3346 103.512 73.1848 103.142 74.1451C102.985 74.537 102.873 74.9453 102.808 75.3621C102.649 76.1894 102.574 77.0306 102.584 77.8729V98.7023L93.5005 103.984C93.5372 104.094 93.5372 104.207 93.5739 104.317C93.6106 104.427 93.6106 104.724 93.6473 104.984L93.7608 105.207C94.9822 104.541 96.0601 104.174 96.9845 104.174C98.9134 104.174 100.322 105.281 101.249 107.508C102.174 109.886 102.627 112.42 102.584 114.97V134.179C102.584 136.58 102.474 138.317 102.177 139.461C101.932 140.596 101.27 141.597 100.322 142.268C98.8033 138.317 98.0591 134.623 98.0591 131.078C98.0591 126.277 99.434 123.076 102.14 121.366L101.546 120.365L94.7986 124.316C92.9105 125.28 91.1634 126.497 89.6059 127.934C89.3642 128.267 89.1414 128.613 88.9385 128.971C88.6121 129.535 88.2126 130.053 87.7504 130.512C87.1376 131.958 86.8461 133.52 86.8961 135.09C86.8961 138.117 87.5636 141.515 88.8617 145.282C89.7342 147.808 90.918 150.215 92.3858 152.448C92.7094 152.784 92.9948 153.156 93.2368 153.555C94.0544 154.889 95.1657 155.182 96.1669 157.286L97.9823 158.91L99.4307 160.82C100.574 161.196 101.624 161.814 102.508 162.631C103.545 163.591 103.545 164.035 104.286 164.255C107.066 165.142 107.957 166.842 108.551 167.025C109.241 167.236 109.9 167.534 110.514 167.912C111.962 168.539 113.407 169.166 114.852 169.76H114.815C115.056 169.842 115.304 169.903 115.556 169.943C115.95 170.03 116.319 170.207 116.634 170.46L118.189 170.977C118.189 177.809 117.558 183.09 116.187 186.895C114.852 190.626 113.183 193.23 111.181 194.724C109.179 196.217 107.103 196.941 105.064 196.941C103.645 196.973 102.241 196.642 100.986 195.981C99.7644 195.35 98.9101 194.647 98.4295 193.8L97.6853 194.097C98.1553 195.043 98.9248 195.809 99.8745 196.274C100.911 196.846 101.988 197.34 103.098 197.751C104.37 198.195 105.589 198.777 106.732 199.488C107.241 199.786 107.677 200.191 108.011 200.677C108.344 201.162 108.566 201.715 108.661 202.296C114.742 200.073 118.165 194.336 118.93 185.084C119.227 181.206 119.377 176.665 119.377 171.413C127.983 174.224 136.981 175.645 146.035 175.625L148.815 175.588C149.222 175.218 149.816 174.921 151.374 174.921C151.811 174.384 152.432 174.027 153.116 173.921C153.67 173.861 154.228 173.837 154.785 173.847C156.158 173.069 157.566 172.33 159.01 171.63C161.459 170.56 163.498 169.896 165.24 169.63C166.699 169.391 168.174 169.256 169.652 169.226L171.394 169.076C172.284 168.929 172.915 168.634 173.286 168.189C173.468 168.025 173.614 167.827 173.716 167.605C173.818 167.383 173.874 167.143 173.88 166.899C173.87 166.523 173.739 166.161 173.507 165.865C173.167 165.577 172.73 165.431 172.285 165.458C171.934 165.46 171.585 165.51 171.247 165.605C167.896 166.595 164.614 167.805 161.423 169.226C157.164 170.866 152.638 171.705 148.074 171.7C143.055 171.686 138.072 170.863 133.317 169.263C128.411 167.636 123.728 165.403 119.377 162.614V154.045L126.756 146.71L119.377 139.374V115.21C119.366 112.617 119.527 110.027 119.858 107.455C120.114 105.081 120.779 102.77 121.823 100.623C122.752 98.6218 124.264 96.9481 126.162 95.8214L125.568 94.7878L119.377 98.4555V94.8612C119.366 92.2682 119.527 89.6774 119.858 87.1056C120.114 84.732 120.779 82.4206 121.823 80.2736C122.752 78.2725 124.264 76.5988 126.162 75.4722L125.568 74.4385L119.387 78.0596V65.2058C127.283 61.6615 133.66 56.9701 138.593 51.025L137.702 50.3248C132.919 55.9732 126.839 60.5178 119.387 63.9155V55.6064C119.356 52.4659 119.579 49.3281 120.055 46.2236C122.399 45.2243 124.915 44.6854 127.463 44.6365C131.432 44.6365 137.365 46.2859 145.26 49.5846C147.67 50.5449 150.043 51.4318 152.489 52.2087C154.824 52.968 157.265 53.354 159.721 53.3524L161.499 53.279C159.57 54.2026 158.309 55.0862 157.605 55.9465C156.901 56.8067 156.604 58.3472 156.604 60.6378V77.8095C156.604 80.5803 156.42 82.5375 156.013 83.6812C155.606 84.8249 154.715 85.8252 153.303 86.5987L144.189 91.8336H135.139C133.882 91.7853 132.627 91.9603 131.431 92.3504C130.467 92.7205 129.576 93.5341 128.871 94.7878L122.16 106.201L123.198 106.791C123.939 105.388 124.904 104.501 126.055 104.094C127.206 103.687 129.168 103.54 131.912 103.54H162.647C161.607 104.158 160.604 104.836 159.644 105.571L152.933 110.742L153.677 111.666C155.179 110.553 156.996 109.945 158.866 109.929C162.611 109.929 166.281 111.703 169.879 115.284C174.511 119.901 176.821 125.429 176.81 131.869C176.81 137.332 175.364 142.797 172.472 148.263C169.707 153.581 165.872 158.272 161.209 162.041ZM118.199 139.367L110.784 146.703L118.199 154.038V161.867C109.412 155.996 103.592 149.864 100.772 143.402L111.415 137.237C112.713 136.497 113.49 135.646 113.861 134.686C114.202 133.473 114.365 132.218 114.345 130.958V73.665C114.318 72.0911 114.504 70.5209 114.899 68.9969C115.309 67.6299 116.42 66.5229 118.199 65.7093V139.367Z" fill="white"/>
<g filter="url(#filter2_f_905_837)">
<path fill-rule="evenodd" clip-rule="evenodd" d="M41.8172 158.73V158.583C40.6247 157.207 39.4722 155.803 38.3598 154.372H36.7279L35.5032 156.993C36.5043 158.286 37.5055 159.543 38.5801 160.76L41.8172 158.73Z" fill="white"/>
<path fill-rule="evenodd" clip-rule="evenodd" d="M180.001 49.7479V49.3044L179.964 49.2677H179.927L176.664 50.8549L176.443 51.0016L176.7 51.3717L180.001 49.7479ZM120.642 13.5173H93.6873C78.9328 15.7209 64.9567 21.5503 53.0135 30.4823V32.2161L57.3151 32.1061C67.833 24.6906 79.8754 19.7151 92.5633 17.5426C105.251 15.3702 118.265 16.0557 130.654 19.5491C131.655 19.8092 132.656 20.1026 133.657 20.436C145.26 24.1593 155.938 30.3021 164.987 38.4579L167.803 39.0881L165.951 38.9748C165.838 38.9748 165.691 38.9381 165.504 38.9381L164.987 38.4579L167.803 39.0881L170.51 39.2715H171.401C157.699 25.4511 139.895 16.4226 120.642 13.5307V13.5173Z" fill="white"/>
<path fill-rule="evenodd" clip-rule="evenodd" d="M31.6588 151.601H32.0659L33.4008 147.873V147.096C26.0886 135.093 21.8267 121.485 20.9868 107.458C20.1468 93.431 22.7543 79.4118 28.5819 66.623L27.4672 61.0847H26.9867C19.6395 75.2245 16.1992 91.0662 17.0204 106.977C17.8417 122.887 22.8947 138.291 31.6588 151.601Z" fill="white"/>
<path fill-rule="evenodd" clip-rule="evenodd" d="M110.891 188.605V188.348C109.666 188.385 108.408 188.422 107.146 188.422C90.1127 188.445 73.455 183.419 59.2808 173.981H56.0904L54.275 175.128C66.071 183.675 79.778 189.215 94.2046 191.266C97.3142 191.716 100.446 192 103.585 192.116C104.774 192.153 105.958 192.189 107.146 192.189H108.294L110.891 188.605Z" fill="white"/>
<path fill-rule="evenodd" clip-rule="evenodd" d="M123.051 190.786H123.162C133.178 188.999 142.818 185.53 151.675 180.526H143.332C137.002 183.436 130.34 185.563 123.495 186.861L123.051 189.815V190.786ZM123.051 186.945V189.826L123.495 186.871L123.051 186.945Z" fill="white"/>
<path fill-rule="evenodd" clip-rule="evenodd" d="M181.115 50.855H177.741L177.187 51.1551V52.0053C184.2 61.7022 189.111 72.754 191.608 84.4545C194.104 96.1551 194.13 108.247 191.684 119.958L193.093 129.931C195.945 121.025 197.397 111.731 197.394 102.38C197.429 83.9367 191.741 65.936 181.115 50.855Z" fill="white"/>
<path fill-rule="evenodd" clip-rule="evenodd" d="M103.512 206C76.6724 205.001 51.2738 193.612 32.6866 174.241C37.4688 176.345 42.2877 178.452 47.0733 180.593C53.8211 184.767 56.9714 187.722 65.0942 191.339C77.3283 196.804 92.7929 201.459 106.322 201.716L105.695 202.826L103.512 206Z" fill="white"/>
<path fill-rule="evenodd" clip-rule="evenodd" d="M118.119 201.162L111.818 205.963C166.989 203.713 210.997 158.52 210.997 103.037C210.997 46.1269 164.653 0.00683594 107.517 0.00683594C50.3804 0.00683594 3.98665 46.1269 3.98665 103.037C3.9608 123.426 10.0277 143.358 21.4102 160.28L26.9733 160.504C14.9268 143.761 8.4586 123.656 8.4852 103.037C8.4852 48.5276 52.8299 4.34143 107.517 4.34143C162.203 4.34143 206.511 48.5109 206.511 103.037C206.511 153.965 167.8 195.881 118.119 201.162Z" fill="white"/>
<path d="M43.5292 174.858H44.1566C45.1944 174.784 46.4926 174.268 48.0878 173.271L71.0644 158.753C72.2014 157.94 73.4048 157.224 74.6619 156.613C75.4851 156.174 76.3992 155.933 77.3317 155.909C78.3729 155.921 79.3892 156.228 80.2618 156.796L80.779 155.762L68.9153 149.667C64.691 147.631 60.679 145.182 56.9381 142.355C53.4173 139.661 50.524 136.02 48.3014 131.389C47.8178 129.973 47.5676 128.489 47.5605 126.994C47.5605 120.419 52.306 114.349 61.797 108.785C69.3896 104.445 77.7708 101.658 86.4523 100.586C87.7453 100.44 89.0455 100.366 90.3468 100.366C95.2758 100.366 99.4674 101.436 102.878 103.54C106.289 105.644 107.994 108.122 107.994 110.966V111.333L108.771 111.483L108.845 110.816C108.814 109.646 108.523 108.498 107.994 107.455C107.442 106.418 107.138 105.268 107.106 104.094C107.124 103.272 107.441 102.485 107.997 101.88C103.696 99.9594 98.84 98.9991 93.3136 98.9991C87.7318 99.0324 82.1807 99.8278 76.8144 101.363C71.3607 102.837 66.1161 104.996 61.2063 107.788C54.6521 111.667 50.2915 115.73 48.1245 119.975C49.8665 115.507 52.7599 110.973 56.8012 106.495C60.8793 101.953 65.3656 97.4231 70.2602 92.904C74.3015 89.0995 78.1193 85.3351 81.7435 81.4973C85.1484 77.9964 88.1577 74.1321 90.7172 69.974C93.09 66.1328 94.2747 62.1817 94.2747 58.1938C94.2747 54.5728 92.9765 50.8584 90.4936 47.0773C89.9194 47.5505 89.199 47.8109 88.4546 47.8142C87.1997 47.773 85.9754 47.4176 84.8938 46.7805C83.8167 46.1012 82.5733 45.7309 81.2996 45.7102H80.8524L81.0026 46.5238C83.8559 46.7805 86.4523 48.2943 88.7516 50.9184C91.0876 53.6125 92.2356 56.8635 92.2356 60.6679C92.2356 63.9189 91.1244 67.2798 88.9352 70.7142C86.5171 74.4383 83.7359 77.9141 80.6322 81.0905C77.9624 83.8613 74.2181 87.5157 69.4726 92.0604C64.0484 96.9973 58.937 102.267 54.1682 107.838C49.7186 113.047 47.0121 118.29 46.0488 123.57L45.9019 121.096C45.8553 116.824 46.9831 112.621 49.1624 108.945C51.2423 105.475 53.5982 102.178 56.2072 99.0858C58.9137 95.8715 61.7336 92.7339 64.6603 89.633C72.5962 81.1739 77.859 74.4519 80.492 69.3571C82.0138 66.4396 82.7547 63.5954 82.7547 60.8613C82.7547 57.687 81.6801 54.4728 79.4909 51.2218C77.3017 47.9709 73.8577 44.4265 69.0354 40.6988C66.6942 38.8834 64.0077 37.5629 61.1396 36.8176H48.7052C47.4558 37.126 46.2292 37.5204 45.0343 37.998C41.8428 39.2904 38.9526 41.2268 36.5444 43.6863C32.6866 47.6875 30.761 52.2921 30.761 57.4236C30.7912 61.0939 31.6658 64.7081 33.3173 67.9867C35.0645 71.5408 37.2985 74.8345 39.955 77.7729L48.2213 71.0143C45.7208 70.2429 43.3925 68.9976 41.3633 67.3465C39.12 65.593 37.2214 63.4394 35.7635 60.9947C34.3242 58.7028 33.5544 56.0547 33.5409 53.3491C33.5409 50.0993 34.838 47.1451 37.4321 44.4865C39.6796 42.1043 42.4274 40.2493 45.4781 39.0549C48.4796 37.8322 51.691 37.2059 54.9324 37.2111C60.0517 37.2111 64.5369 38.6882 68.3546 41.6057C71.9888 44.4865 73.8443 48.0309 73.8443 52.2421C73.8443 57.9282 70.9143 64.3167 65.0541 71.4077C62.1641 75.0288 58.9003 78.7198 55.3762 82.561C51.9656 86.1787 48.7018 89.8731 45.6249 93.6408C42.6744 97.1737 40.0904 100.997 37.9127 105.051C35.8736 108.929 34.8358 112.77 34.8358 116.648C34.8358 121.316 36.6512 125.954 40.2487 130.608C39.8783 130.388 39.5078 130.201 39.1374 130.018L40.9529 132.419C42.2785 133.088 43.4042 134.094 44.2166 135.336C46.1422 138.217 43.8829 135.853 46.5527 137.884C47.4468 138.52 48.2351 139.293 48.8887 140.174C50.6123 140.761 52.2471 141.581 53.7477 142.612C57.2684 144.976 60.7925 147.19 64.4267 149.28C63.8173 149.503 63.2324 149.788 62.6814 150.131L50.5573 157.776C41.4367 163.575 36.4309 166.749 35.4698 167.192C34.6483 167.635 33.7332 167.876 32.8001 167.896C31.7733 167.866 30.7736 167.559 29.9067 167.009L25.4215 164.718C25.1759 164.75 24.9282 164.762 24.6807 164.755L24.7908 165.458L24.8275 165.715L33.9848 170.383L41.1397 174.151C41.8805 174.532 42.6867 174.769 43.5158 174.851L43.5292 174.858Z" fill="white"/>
<path d="M161.209 162.041C156.575 165.768 151.532 167.922 146.081 168.503L146.155 169.683C158.649 167.802 168.734 162.99 176.41 155.245C184.085 147.526 187.903 138.907 187.903 129.571C187.903 121.925 185.233 114.933 179.894 108.595C176.817 104.974 173.814 102.797 170.85 102.13C171.322 101.681 171.733 101.172 172.072 100.616L178.709 89.2062L177.708 88.616C176.967 90.0164 176.039 90.9033 174.851 91.2834C173.663 91.6635 171.701 91.8336 168.921 91.8336H146.525L165.36 80.9404C166.695 80.2002 167.513 79.35 167.847 78.353C168.222 77.1596 168.396 75.9124 168.364 74.6619V57.4903C168.364 55.2396 168.477 53.5758 168.734 52.4688C168.96 51.4106 169.519 50.4524 170.33 49.7347L178.225 44.1964L177.558 43.1961C175.899 44.3953 173.899 45.0301 171.851 45.0066C169.922 45.0066 167.623 44.5632 164.99 43.6396L150.383 38.6914C146.083 37.2888 142.412 36.5864 139.37 36.5842C137.164 36.5497 134.969 36.8995 132.883 37.6178C130.857 38.3652 128.908 39.3054 127.063 40.4253L120.315 44.3398C121.056 40.722 122.094 37.8412 123.428 35.7739C124.763 33.7067 126.245 32.2262 127.84 31.3793C129.24 30.5756 130.822 30.1429 132.436 30.1223C133.863 30.0868 135.278 30.4041 136.554 31.0459C137.582 31.5198 138.456 32.2746 139.073 33.2232L139.814 32.9298C139.037 31.416 137.221 30.2323 134.438 29.3087C133.17 28.8693 131.951 28.3006 130.8 27.6116C130.291 27.2978 129.855 26.8781 129.522 26.381C129.189 25.8839 128.967 25.3211 128.871 24.7307C124.94 26.2445 122.197 28.9786 120.752 32.9298C119.287 36.9738 118.473 41.2246 118.343 45.5234C118.459 46.3305 118.483 47.1482 118.416 47.9608C118.376 48.3212 118.314 48.6786 118.229 49.0311C118.229 51.912 118.192 57.0335 118.192 64.5056C116.971 65.0225 115.746 65.5059 114.521 65.9827C113.374 67.7642 111.646 69.0951 109.629 69.7505L107.59 70.9675C107.033 71.2033 106.447 71.3648 105.848 71.4477L105.735 71.521L105.588 71.6344C104.326 72.3346 103.512 73.1848 103.142 74.1451C102.985 74.537 102.873 74.9453 102.808 75.3621C102.649 76.1894 102.574 77.0306 102.584 77.8729V98.7023L93.5005 103.984C93.5372 104.094 93.5372 104.207 93.5739 104.317C93.6106 104.427 93.6106 104.724 93.6473 104.984L93.7608 105.207C94.9822 104.541 96.0601 104.174 96.9845 104.174C98.9134 104.174 100.322 105.281 101.249 107.508C102.174 109.886 102.627 112.42 102.584 114.97V134.179C102.584 136.58 102.474 138.317 102.177 139.461C101.932 140.596 101.27 141.597 100.322 142.268C98.8033 138.317 98.0591 134.623 98.0591 131.078C98.0591 126.277 99.434 123.076 102.14 121.366L101.546 120.365L94.7986 124.316C92.9105 125.28 91.1634 126.497 89.6059 127.934C89.3642 128.267 89.1414 128.613 88.9385 128.971C88.6121 129.535 88.2126 130.053 87.7504 130.512C87.1376 131.958 86.8461 133.52 86.8961 135.09C86.8961 138.117 87.5636 141.515 88.8617 145.282C89.7342 147.808 90.918 150.215 92.3858 152.448C92.7094 152.784 92.9948 153.156 93.2368 153.555C94.0544 154.889 95.1657 155.182 96.1669 157.286L97.9823 158.91L99.4307 160.82C100.574 161.196 101.624 161.814 102.508 162.631C103.545 163.591 103.545 164.035 104.286 164.255C107.066 165.142 107.957 166.842 108.551 167.025C109.241 167.236 109.9 167.534 110.514 167.912C111.962 168.539 113.407 169.166 114.852 169.76H114.815C115.056 169.842 115.304 169.903 115.556 169.943C115.95 170.03 116.319 170.207 116.634 170.46L118.189 170.977C118.189 177.809 117.558 183.09 116.187 186.895C114.852 190.626 113.183 193.23 111.181 194.724C109.179 196.217 107.103 196.941 105.064 196.941C103.645 196.973 102.241 196.642 100.986 195.981C99.7644 195.35 98.9101 194.647 98.4295 193.8L97.6853 194.097C98.1553 195.043 98.9248 195.809 99.8745 196.274C100.911 196.846 101.988 197.34 103.098 197.751C104.37 198.195 105.589 198.777 106.732 199.488C107.241 199.786 107.677 200.191 108.011 200.677C108.344 201.162 108.566 201.715 108.661 202.296C114.742 200.073 118.165 194.336 118.93 185.084C119.227 181.206 119.377 176.665 119.377 171.413C127.983 174.224 136.981 175.645 146.035 175.625L148.815 175.588C149.222 175.218 149.816 174.921 151.374 174.921C151.811 174.384 152.432 174.027 153.116 173.921C153.67 173.861 154.228 173.837 154.785 173.847C156.158 173.069 157.566 172.33 159.01 171.63C161.459 170.56 163.498 169.896 165.24 169.63C166.699 169.391 168.174 169.256 169.652 169.226L171.394 169.076C172.284 168.929 172.915 168.634 173.286 168.189C173.468 168.025 173.614 167.827 173.716 167.605C173.818 167.383 173.874 167.143 173.88 166.899C173.87 166.523 173.739 166.161 173.507 165.865C173.167 165.577 172.73 165.431 172.285 165.458C171.934 165.46 171.585 165.51 171.247 165.605C167.896 166.595 164.614 167.805 161.423 169.226C157.164 170.866 152.638 171.705 148.074 171.7C143.055 171.686 138.072 170.863 133.317 169.263C128.411 167.636 123.728 165.403 119.377 162.614V154.045L126.756 146.71L119.377 139.374V115.21C119.366 112.617 119.527 110.027 119.858 107.455C120.114 105.081 120.779 102.77 121.823 100.623C122.752 98.6218 124.264 96.9481 126.162 95.8214L125.568 94.7878L119.377 98.4555V94.8612C119.366 92.2682 119.527 89.6774 119.858 87.1056C120.114 84.732 120.779 82.4206 121.823 80.2736C122.752 78.2725 124.264 76.5988 126.162 75.4722L125.568 74.4385L119.387 78.0596V65.2058C127.283 61.6615 133.66 56.9701 138.593 51.025L137.702 50.3248C132.919 55.9732 126.839 60.5178 119.387 63.9155V55.6064C119.356 52.4659 119.579 49.3281 120.055 46.2236C122.399 45.2243 124.915 44.6854 127.463 44.6365C131.432 44.6365 137.365 46.2859 145.26 49.5846C147.67 50.5449 150.043 51.4318 152.489 52.2087C154.824 52.968 157.265 53.354 159.721 53.3524L161.499 53.279C159.57 54.2026 158.309 55.0862 157.605 55.9465C156.901 56.8067 156.604 58.3472 156.604 60.6378V77.8095C156.604 80.5803 156.42 82.5375 156.013 83.6812C155.606 84.8249 154.715 85.8252 153.303 86.5987L144.189 91.8336H135.139C133.882 91.7853 132.627 91.9603 131.431 92.3504C130.467 92.7205 129.576 93.5341 128.871 94.7878L122.16 106.201L123.198 106.791C123.939 105.388 124.904 104.501 126.055 104.094C127.206 103.687 129.168 103.54 131.912 103.54H162.647C161.607 104.158 160.604 104.836 159.644 105.571L152.933 110.742L153.677 111.666C155.179 110.553 156.996 109.945 158.866 109.929C162.611 109.929 166.281 111.703 169.879 115.284C174.511 119.901 176.821 125.429 176.81 131.869C176.81 137.332 175.364 142.797 172.472 148.263C169.707 153.581 165.872 158.272 161.209 162.041ZM118.199 139.367L110.784 146.703L118.199 154.038V161.867C109.412 155.996 103.592 149.864 100.772 143.402L111.415 137.237C112.713 136.497 113.49 135.646 113.861 134.686C114.202 133.473 114.365 132.218 114.345 130.958V73.665C114.318 72.0911 114.504 70.5209 114.899 68.9969C115.309 67.6299 116.42 66.5229 118.199 65.7093V139.367Z" fill="white"/>
</g>
</g>
<defs>
<filter id="filter0_d_905_837" x="0" y="0" width="215" height="214" filterUnits="userSpaceOnUse" color-interpolation-filters="sRGB">
<feFlood flood-opacity="0" result="BackgroundImageFix"/>
<feColorMatrix in="SourceAlpha" type="matrix" values="0 0 0 0 0 0 0 0 0 0 0 0 0 0 0 0 0 0 127 0" result="hardAlpha"/>
<feOffset dy="4"/>
<feGaussianBlur stdDeviation="2"/>
<feComposite in2="hardAlpha" operator="out"/>
<feColorMatrix type="matrix" values="0 0 0 0 0 0 0 0 0 0 0 0 0 0 0 0 0 0 0.25 0"/>
<feBlend mode="normal" in2="BackgroundImageFix" result="effect1_dropShadow_905_837"/>
<feBlend mode="normal" in="SourceGraphic" in2="effect1_dropShadow_905_837" result="shape"/>
</filter>
<filter id="filter1_f_905_837" x="-0.0134277" y="-3.99316" width="215.01" height="213.993" filterUnits="userSpaceOnUse" color-interpolation-filters="sRGB">
<feFlood flood-opacity="0" result="BackgroundImageFix"/>
<feBlend mode="normal" in="SourceGraphic" in2="BackgroundImageFix" result="shape"/>
<feGaussianBlur stdDeviation="2" result="effect1_foregroundBlur_905_837"/>
</filter>
<filter id="filter2_f_905_837" x="-0.0134277" y="-3.99316" width="215.01" height="213.993" filterUnits="userSpaceOnUse" color-interpolation-filters="sRGB">
<feFlood flood-opacity="0" result="BackgroundImageFix"/>
<feBlend mode="normal" in="SourceGraphic" in2="BackgroundImageFix" result="shape"/>
<feGaussianBlur stdDeviation="2" result="effect1_foregroundBlur_905_837"/>
</filter>
<clipPath id="clip0_905_837">
<rect width="207" height="206" fill="white" transform="translate(4)"/>
</clipPath>
</defs>
</svg>
