<svg width="215" height="214" viewBox="0 0 215 214" fill="none" xmlns="http://www.w3.org/2000/svg">
<g clip-path="url(#clip0_905_649)" filter="url(#filter0_d_905_649)">
<g filter="url(#filter1_f_905_649)">
<path fill-rule="evenodd" clip-rule="evenodd" d="M41.8172 158.73V158.583C40.6247 157.207 39.4722 155.803 38.3598 154.372H36.7279L35.5032 156.992C36.5043 158.286 37.5055 159.543 38.5801 160.76L41.8172 158.73Z" fill="black"/>
<path fill-rule="evenodd" clip-rule="evenodd" d="M180.001 49.7476V49.3042L179.964 49.2675H179.927L176.664 50.8546L176.443 51.0013L176.7 51.3714L180.001 49.7476ZM120.642 13.5171H93.6873C78.9328 15.7206 64.9567 21.55 53.0135 30.482V32.2159L57.3151 32.1058C67.833 24.6903 79.8754 19.7148 92.5633 17.5424C105.251 15.37 118.265 16.0555 130.654 19.5488C131.655 19.8089 132.656 20.1023 133.657 20.4358C145.26 24.1591 155.938 30.3019 164.987 38.4577L167.803 39.0879L165.951 38.9745C165.838 38.9745 165.691 38.9378 165.504 38.9378L164.987 38.4577L167.803 39.0879L170.51 39.2713H171.401C157.699 25.4508 139.895 16.4223 120.642 13.5304V13.5171Z" fill="black"/>
<path fill-rule="evenodd" clip-rule="evenodd" d="M31.6587 151.601H32.0659L33.4008 147.873V147.096C26.0886 135.093 21.8267 121.484 20.9868 107.458C20.1468 93.4307 22.7543 79.4116 28.5818 66.6228L27.4672 61.0845H26.9867C19.6395 75.2243 16.1992 91.0659 17.0204 106.977C17.8417 122.887 22.8947 138.291 31.6587 151.601Z" fill="black"/>
<path fill-rule="evenodd" clip-rule="evenodd" d="M110.891 188.605V188.348C109.666 188.385 108.408 188.421 107.146 188.421C90.1127 188.444 73.455 183.419 59.2808 173.98H56.0904L54.275 175.127C66.071 183.675 79.778 189.215 94.2046 191.266C97.3142 191.716 100.446 191.999 103.585 192.116C104.774 192.152 105.958 192.189 107.146 192.189H108.294L110.891 188.605Z" fill="black"/>
<path fill-rule="evenodd" clip-rule="evenodd" d="M123.051 190.786H123.161C133.178 188.999 142.818 185.53 151.675 180.526H143.332C137.002 183.435 130.34 185.563 123.495 186.861L123.051 189.815V190.786ZM123.051 186.944V189.825L123.495 186.871L123.051 186.944Z" fill="black"/>
<path fill-rule="evenodd" clip-rule="evenodd" d="M181.115 50.8547H177.741L177.187 51.1548V52.0051C184.2 61.702 189.112 72.7537 191.608 84.4543C194.104 96.1549 194.13 108.247 191.684 119.958L193.093 129.931C195.945 121.025 197.397 111.731 197.394 102.38C197.429 83.9365 191.741 65.9358 181.115 50.8547Z" fill="black"/>
<path fill-rule="evenodd" clip-rule="evenodd" d="M103.512 206C76.6724 205.001 51.2738 193.612 32.6866 174.241C37.4688 176.345 42.2877 178.452 47.0733 180.593C53.8211 184.767 56.9714 187.721 65.0942 191.339C77.3284 196.804 92.793 201.459 106.322 201.715L105.695 202.826L103.512 206Z" fill="black"/>
<path fill-rule="evenodd" clip-rule="evenodd" d="M118.119 201.162L111.818 205.963C166.989 203.713 210.997 158.519 210.997 103.037C210.997 46.1267 164.653 0.0065918 107.517 0.0065918C50.3804 0.0065918 3.98665 46.1267 3.98665 103.037C3.9608 123.425 10.0277 143.358 21.4102 160.28L26.9733 160.503C14.9268 143.761 8.4586 123.656 8.4852 103.037C8.4852 48.5274 52.8299 4.34119 107.517 4.34119C162.203 4.34119 206.511 48.5107 206.511 103.037C206.511 153.965 167.8 195.88 118.119 201.162Z" fill="black"/>
<path d="M43.5292 174.858H44.1566C45.1944 174.784 46.4926 174.267 48.0878 173.27L71.0644 158.753C72.2014 157.94 73.4048 157.224 74.6619 156.612C75.4851 156.174 76.3992 155.933 77.3317 155.909C78.3728 155.92 79.3892 156.228 80.2617 156.796L80.779 155.762L68.9153 149.667C64.691 147.631 60.679 145.181 56.938 142.355C53.4173 139.661 50.5239 136.02 48.3014 131.388C47.8178 129.973 47.5675 128.489 47.5605 126.994C47.5605 120.418 52.306 114.349 61.797 108.785C69.3896 104.445 77.7708 101.658 86.4523 100.586C87.7453 100.44 89.0455 100.366 90.3468 100.366C95.2758 100.366 99.4674 101.436 102.878 103.54C106.289 105.644 107.994 108.121 107.994 110.966V111.332L108.771 111.482L108.845 110.816C108.814 109.646 108.523 108.498 107.994 107.455C107.442 106.418 107.138 105.268 107.106 104.094C107.124 103.272 107.441 102.485 107.997 101.88C103.696 99.9591 98.84 98.9988 93.3136 98.9988C87.7317 99.0322 82.1807 99.8275 76.8144 101.363C71.3606 102.836 66.1161 104.995 61.2063 107.788C54.6521 111.667 50.2915 115.729 48.1245 119.975C49.8665 115.507 52.7599 110.972 56.8012 106.494C60.8793 101.953 65.3656 97.4228 70.2602 92.9037C74.3015 89.0993 78.1193 85.3349 81.7435 81.4971C85.1484 77.9962 88.1577 74.1318 90.7172 69.9737C93.09 66.1326 94.2747 62.1814 94.2747 58.1936C94.2747 54.5725 92.9765 50.8581 90.4936 47.077C89.9193 47.5503 89.199 47.8106 88.4546 47.8139C87.1997 47.7728 85.9753 47.4174 84.8938 46.7803C83.8166 46.1009 82.5732 45.7307 81.2996 45.71H80.8524L81.0026 46.5235C83.8559 46.7803 86.4523 48.2941 88.7516 50.9182C91.0876 53.6123 92.2356 56.8632 92.2356 60.6677C92.2356 63.9186 91.1243 67.2796 88.9351 70.7139C86.5171 74.4381 83.7359 77.9138 80.6322 81.0903C77.9624 83.8611 74.2181 87.5155 69.4726 92.0601C64.0484 96.9971 58.937 102.267 54.1682 107.838C49.7186 113.046 47.0121 118.29 46.0488 123.569L45.9019 121.095C45.8553 116.823 46.9831 112.621 49.1624 108.945C51.2423 105.475 53.5982 102.178 56.2072 99.0855C58.9137 95.8712 61.7336 92.7337 64.6603 89.6328C72.5962 81.1736 77.859 74.4517 80.492 69.3569C82.0138 66.4393 82.7546 63.5952 82.7546 60.861C82.7546 57.6868 81.6801 54.4725 79.4909 51.2216C77.3016 47.9706 73.8577 44.4263 69.0354 40.6985C66.6941 38.8832 64.0077 37.5627 61.1396 36.8174H48.7052C47.4557 37.1258 46.2292 37.5201 45.0342 37.9977C41.8428 39.2901 38.9526 41.2266 36.5444 43.6861C32.6866 47.6872 30.761 52.2919 30.761 57.4234C30.7912 61.0937 31.6658 64.7079 33.3173 67.9865C35.0645 71.5406 37.2985 74.8343 39.955 77.7726L48.2213 71.014C45.7208 70.2426 43.3925 68.9974 41.3633 67.3463C39.12 65.5928 37.2214 63.4392 35.7635 60.9944C34.3242 58.7026 33.5544 56.0545 33.5409 53.3489C33.5409 50.099 34.838 47.1448 37.4321 44.4863C39.6795 42.1041 42.4274 40.2491 45.4781 39.0547C48.4796 37.832 51.691 37.2057 54.9324 37.2108C60.0517 37.2108 64.5369 38.6879 68.3546 41.6054C71.9888 44.4863 73.8443 48.0307 73.8443 52.2419C73.8443 57.928 70.9142 64.3165 65.0541 71.4075C62.1641 75.0285 58.9003 78.7196 55.3762 82.5607C51.9656 86.1784 48.7018 89.8728 45.6249 93.6406C42.6744 97.1734 40.0904 100.996 37.9127 105.051C35.8736 108.928 34.8358 112.77 34.8358 116.647C34.8358 121.315 36.6512 125.953 40.2487 130.608C39.8783 130.388 39.5078 130.201 39.1374 130.018L40.9528 132.419C42.2785 133.088 43.4042 134.094 44.2166 135.336C46.1422 138.217 43.8829 135.853 46.5527 137.883C47.4468 138.52 48.2351 139.293 48.8887 140.174C50.6122 140.761 52.2471 141.581 53.7477 142.612C57.2684 144.976 60.7925 147.19 64.4267 149.28C63.8173 149.503 63.2324 149.788 62.6814 150.13L50.5573 157.776C41.4367 163.574 36.4309 166.749 35.4698 167.192C34.6483 167.635 33.7332 167.876 32.8001 167.896C31.7733 167.866 30.7736 167.559 29.9067 167.009L25.4215 164.718C25.1759 164.749 24.9282 164.762 24.6806 164.755L24.7908 165.458L24.8275 165.715L33.9848 170.383L41.1397 174.151C41.8805 174.532 42.6867 174.769 43.5158 174.851L43.5292 174.858Z" fill="black"/>
<path d="M161.209 162.04C156.575 165.768 151.532 167.922 146.081 168.502L146.155 169.683C158.649 167.802 168.734 162.99 176.41 155.245C184.085 147.526 187.903 138.907 187.903 129.571C187.903 121.924 185.233 114.932 179.894 108.595C176.817 104.974 173.814 102.797 170.85 102.13C171.322 101.681 171.733 101.172 172.072 100.616L178.709 89.2059L177.708 88.6157C176.967 90.0162 176.039 90.9031 174.851 91.2832C173.663 91.6633 171.701 91.8334 168.921 91.8334H146.525L165.36 80.9402C166.695 80.2 167.513 79.3497 167.847 78.3528C168.222 77.1593 168.396 75.9121 168.364 74.6617V57.49C168.364 55.2394 168.477 53.5755 168.734 52.4685C168.96 51.4103 169.519 50.4522 170.33 49.7344L178.225 44.1961L177.558 43.1959C175.899 44.3951 173.899 45.0298 171.851 45.0064C169.922 45.0064 167.623 44.5629 164.99 43.6393L150.383 38.6912C146.083 37.2886 142.412 36.5861 139.37 36.5839C137.164 36.5495 134.969 36.8992 132.883 37.6176C130.857 38.365 128.908 39.3051 127.063 40.425L120.315 44.3395C121.056 40.7218 122.094 37.841 123.428 35.7737C124.763 33.7064 126.245 32.226 127.84 31.3791C129.24 30.5754 130.822 30.1427 132.436 30.122C133.863 30.0866 135.278 30.4038 136.554 31.0456C137.582 31.5196 138.456 32.2744 139.073 33.2229L139.814 32.9295C139.037 31.4157 137.221 30.2321 134.438 29.3085C133.17 28.8691 131.951 28.3004 130.8 27.6113C130.291 27.2975 129.855 26.8778 129.522 26.3807C129.189 25.8836 128.967 25.3208 128.871 24.7305C124.94 26.2442 122.197 28.9784 120.752 32.9295C119.287 36.9735 118.473 41.2243 118.343 45.5232C118.459 46.3303 118.483 47.1479 118.416 47.9606C118.376 48.3209 118.314 48.6784 118.229 49.0309C118.229 51.9117 118.192 57.0332 118.192 64.5054C116.971 65.0222 115.746 65.5057 114.521 65.9825C113.374 67.764 111.646 69.0949 109.629 69.7502L107.59 70.9673C107.033 71.2031 106.447 71.3645 105.848 71.4474L105.735 71.5208L105.588 71.6341C104.326 72.3343 103.512 73.1846 103.142 74.1449C102.985 74.5368 102.873 74.945 102.808 75.3619C102.649 76.1892 102.574 77.0303 102.584 77.8726V98.702L93.5004 103.984C93.5371 104.094 93.5371 104.207 93.5739 104.317C93.6106 104.427 93.6106 104.724 93.6473 104.984L93.7607 105.207C94.9822 104.54 96.0601 104.174 96.9845 104.174C98.9134 104.174 100.322 105.281 101.249 107.508C102.174 109.885 102.627 112.42 102.584 114.97V134.179C102.584 136.58 102.474 138.317 102.177 139.461C101.932 140.595 101.27 141.597 100.322 142.268C98.8032 138.317 98.0591 134.622 98.0591 131.078C98.0591 126.277 99.434 123.076 102.14 121.365L101.546 120.365L94.7986 124.316C92.9105 125.28 91.1634 126.497 89.6059 127.934C89.3642 128.267 89.1414 128.613 88.9385 128.971C88.6121 129.534 88.2126 130.052 87.7504 130.511C87.1376 131.958 86.8461 133.52 86.8961 135.089C86.8961 138.117 87.5635 141.514 88.8617 145.282C89.7342 147.808 90.918 150.215 92.3858 152.448C92.7094 152.784 92.9948 153.155 93.2368 153.555C94.0544 154.888 95.1657 155.182 96.1669 157.286L97.9823 158.91L99.4306 160.82C100.574 161.196 101.624 161.813 102.508 162.631C103.545 163.591 103.545 164.034 104.286 164.254C107.066 165.141 107.957 166.842 108.551 167.025C109.24 167.236 109.9 167.534 110.513 167.912C111.962 168.539 113.407 169.166 114.852 169.759H114.815C115.056 169.842 115.304 169.903 115.556 169.943C115.95 170.03 116.319 170.206 116.634 170.46L118.189 170.976C118.189 177.808 117.558 183.09 116.187 186.894C114.852 190.625 113.183 193.23 111.181 194.723C109.179 196.217 107.103 196.941 105.064 196.941C103.645 196.972 102.241 196.642 100.986 195.98C99.7644 195.35 98.91 194.647 98.4295 193.8L97.6853 194.096C98.1553 195.043 98.9248 195.808 99.8745 196.274C100.911 196.846 101.988 197.339 103.098 197.751C104.37 198.194 105.589 198.777 106.732 199.488C107.241 199.785 107.677 200.191 108.011 200.677C108.344 201.162 108.566 201.715 108.661 202.296C114.742 200.073 118.165 194.335 118.93 185.084C119.227 181.206 119.377 176.665 119.377 171.413C127.983 174.223 136.981 175.645 146.035 175.624L148.815 175.588C149.222 175.218 149.816 174.921 151.374 174.921C151.811 174.384 152.432 174.027 153.116 173.921C153.67 173.861 154.228 173.837 154.785 173.847C156.158 173.069 157.566 172.33 159.01 171.63C161.459 170.56 163.498 169.896 165.24 169.629C166.699 169.39 168.174 169.255 169.652 169.226L171.394 169.076C172.284 168.929 172.915 168.633 173.286 168.189C173.468 168.025 173.614 167.826 173.716 167.605C173.818 167.383 173.874 167.143 173.88 166.899C173.87 166.523 173.739 166.16 173.507 165.865C173.167 165.577 172.73 165.431 172.285 165.458C171.934 165.46 171.585 165.509 171.247 165.605C167.896 166.595 164.614 167.805 161.423 169.226C157.164 170.866 152.638 171.705 148.074 171.7C143.055 171.686 138.072 170.863 133.317 169.263C128.411 167.636 123.728 165.403 119.377 162.614V154.045L126.756 146.709L119.377 139.374V115.21C119.366 112.617 119.527 110.026 119.858 107.455C120.114 105.081 120.779 102.77 121.823 100.623C122.752 98.6215 124.264 96.9478 126.162 95.8212L125.568 94.7875L119.377 98.4553V94.8609C119.366 92.268 119.527 89.6771 119.858 87.1053C120.114 84.7318 120.779 82.4204 121.823 80.2733C122.752 78.2723 124.264 76.5985 126.162 75.4719L125.568 74.4383L119.387 78.0593V65.2056C127.283 61.6612 133.66 56.9699 138.593 51.0248L137.702 50.3246C132.919 55.9729 126.839 60.5176 119.387 63.9152V55.6061C119.356 52.4657 119.579 49.3278 120.055 46.2234C122.399 45.224 124.915 44.6852 127.463 44.6363C131.432 44.6363 137.365 46.2856 145.26 49.5844C147.67 50.5447 150.043 51.4316 152.489 52.2085C154.824 52.9678 157.265 53.3537 159.721 53.3521L161.499 53.2788C159.57 54.2024 158.309 55.086 157.605 55.9462C156.901 56.8065 156.604 58.3469 156.604 60.6376V77.8093C156.604 80.5801 156.42 82.5373 156.013 83.681C155.606 84.8246 154.715 85.8249 153.303 86.5985L144.189 91.8334H135.139C133.882 91.785 132.627 91.96 131.431 92.3502C130.467 92.7203 129.576 93.5338 128.871 94.7875L122.16 106.201L123.198 106.791C123.939 105.387 124.904 104.5 126.055 104.094C127.206 103.687 129.168 103.54 131.912 103.54H162.647C161.607 104.158 160.604 104.836 159.644 105.571L152.933 110.742L153.677 111.666C155.179 110.553 156.996 109.945 158.866 109.929C162.611 109.929 166.281 111.702 169.879 115.284C174.511 119.9 176.821 125.429 176.81 131.868C176.81 137.332 175.364 142.797 172.472 148.263C169.707 153.581 165.872 158.271 161.209 162.04ZM118.199 139.367L110.784 146.703L118.199 154.038V161.867C109.412 155.995 103.592 149.864 100.772 143.402L111.415 137.237C112.713 136.496 113.49 135.646 113.861 134.686C114.202 133.473 114.365 132.218 114.345 130.958V73.6647C114.318 72.0909 114.504 70.5206 114.899 68.9967C115.309 67.6296 116.42 66.5226 118.199 65.7091V139.367Z" fill="black"/>
</g>
<path fill-rule="evenodd" clip-rule="evenodd" d="M41.8172 158.73V158.583C40.6247 157.207 39.4722 155.803 38.3598 154.372H36.7279L35.5032 156.992C36.5043 158.286 37.5055 159.543 38.5801 160.76L41.8172 158.73Z" fill="black"/>
<path fill-rule="evenodd" clip-rule="evenodd" d="M180.001 49.7476V49.3042L179.964 49.2675H179.927L176.664 50.8546L176.443 51.0013L176.7 51.3714L180.001 49.7476ZM120.642 13.5171H93.6873C78.9328 15.7206 64.9567 21.55 53.0135 30.482V32.2159L57.3151 32.1058C67.833 24.6903 79.8754 19.7148 92.5633 17.5424C105.251 15.37 118.265 16.0555 130.654 19.5488C131.655 19.8089 132.656 20.1023 133.657 20.4358C145.26 24.1591 155.938 30.3019 164.987 38.4577L167.803 39.0879L165.951 38.9745C165.838 38.9745 165.691 38.9378 165.504 38.9378L164.987 38.4577L167.803 39.0879L170.51 39.2713H171.401C157.699 25.4508 139.895 16.4223 120.642 13.5304V13.5171Z" fill="black"/>
<path fill-rule="evenodd" clip-rule="evenodd" d="M31.6587 151.601H32.0659L33.4008 147.873V147.096C26.0886 135.093 21.8267 121.484 20.9868 107.458C20.1468 93.4307 22.7543 79.4116 28.5818 66.6228L27.4672 61.0845H26.9867C19.6395 75.2243 16.1992 91.0659 17.0204 106.977C17.8417 122.887 22.8947 138.291 31.6587 151.601Z" fill="black"/>
<path fill-rule="evenodd" clip-rule="evenodd" d="M110.891 188.605V188.348C109.666 188.385 108.408 188.421 107.146 188.421C90.1127 188.444 73.455 183.419 59.2808 173.98H56.0904L54.275 175.127C66.071 183.675 79.778 189.215 94.2046 191.266C97.3142 191.716 100.446 191.999 103.585 192.116C104.774 192.152 105.958 192.189 107.146 192.189H108.294L110.891 188.605Z" fill="black"/>
<path fill-rule="evenodd" clip-rule="evenodd" d="M123.051 190.786H123.161C133.178 188.999 142.818 185.53 151.675 180.526H143.332C137.002 183.435 130.34 185.563 123.495 186.861L123.051 189.815V190.786ZM123.051 186.944V189.825L123.495 186.871L123.051 186.944Z" fill="black"/>
<path fill-rule="evenodd" clip-rule="evenodd" d="M181.115 50.8547H177.741L177.187 51.1548V52.0051C184.2 61.702 189.112 72.7537 191.608 84.4543C194.104 96.1549 194.13 108.247 191.684 119.958L193.093 129.931C195.945 121.025 197.397 111.731 197.394 102.38C197.429 83.9365 191.741 65.9358 181.115 50.8547Z" fill="black"/>
<path fill-rule="evenodd" clip-rule="evenodd" d="M103.512 206C76.6724 205.001 51.2738 193.612 32.6866 174.241C37.4688 176.345 42.2877 178.452 47.0733 180.593C53.8211 184.767 56.9714 187.721 65.0942 191.339C77.3284 196.804 92.793 201.459 106.322 201.715L105.695 202.826L103.512 206Z" fill="black"/>
<path fill-rule="evenodd" clip-rule="evenodd" d="M118.119 201.162L111.818 205.963C166.989 203.713 210.997 158.519 210.997 103.037C210.997 46.1267 164.653 0.0065918 107.517 0.0065918C50.3804 0.0065918 3.98665 46.1267 3.98665 103.037C3.9608 123.425 10.0277 143.358 21.4102 160.28L26.9733 160.503C14.9268 143.761 8.4586 123.656 8.4852 103.037C8.4852 48.5274 52.8299 4.34119 107.517 4.34119C162.203 4.34119 206.511 48.5107 206.511 103.037C206.511 153.965 167.8 195.88 118.119 201.162Z" fill="black"/>
<path d="M43.5292 174.858H44.1566C45.1944 174.784 46.4926 174.267 48.0878 173.27L71.0644 158.753C72.2014 157.94 73.4048 157.224 74.6619 156.612C75.4851 156.174 76.3992 155.933 77.3317 155.909C78.3728 155.92 79.3892 156.228 80.2617 156.796L80.779 155.762L68.9153 149.667C64.691 147.631 60.679 145.181 56.938 142.355C53.4173 139.661 50.5239 136.02 48.3014 131.388C47.8178 129.973 47.5675 128.489 47.5605 126.994C47.5605 120.418 52.306 114.349 61.797 108.785C69.3896 104.445 77.7708 101.658 86.4523 100.586C87.7453 100.44 89.0455 100.366 90.3468 100.366C95.2758 100.366 99.4674 101.436 102.878 103.54C106.289 105.644 107.994 108.121 107.994 110.966V111.332L108.771 111.482L108.845 110.816C108.814 109.646 108.523 108.498 107.994 107.455C107.442 106.418 107.138 105.268 107.106 104.094C107.124 103.272 107.441 102.485 107.997 101.88C103.696 99.9591 98.84 98.9988 93.3136 98.9988C87.7317 99.0322 82.1807 99.8275 76.8144 101.363C71.3606 102.836 66.1161 104.995 61.2063 107.788C54.6521 111.667 50.2915 115.729 48.1245 119.975C49.8665 115.507 52.7599 110.972 56.8012 106.494C60.8793 101.953 65.3656 97.4228 70.2602 92.9037C74.3015 89.0993 78.1193 85.3349 81.7435 81.4971C85.1484 77.9962 88.1577 74.1318 90.7172 69.9737C93.09 66.1326 94.2747 62.1814 94.2747 58.1936C94.2747 54.5725 92.9765 50.8581 90.4936 47.077C89.9193 47.5503 89.199 47.8106 88.4546 47.8139C87.1997 47.7728 85.9753 47.4174 84.8938 46.7803C83.8166 46.1009 82.5732 45.7307 81.2996 45.71H80.8524L81.0026 46.5235C83.8559 46.7803 86.4523 48.2941 88.7516 50.9182C91.0876 53.6123 92.2356 56.8632 92.2356 60.6677C92.2356 63.9186 91.1243 67.2796 88.9351 70.7139C86.5171 74.4381 83.7359 77.9138 80.6322 81.0903C77.9624 83.8611 74.2181 87.5155 69.4726 92.0601C64.0484 96.9971 58.937 102.267 54.1682 107.838C49.7186 113.046 47.0121 118.29 46.0488 123.569L45.9019 121.095C45.8553 116.823 46.9831 112.621 49.1624 108.945C51.2423 105.475 53.5982 102.178 56.2072 99.0855C58.9137 95.8712 61.7336 92.7337 64.6603 89.6328C72.5962 81.1736 77.859 74.4517 80.492 69.3569C82.0138 66.4393 82.7546 63.5952 82.7546 60.861C82.7546 57.6868 81.6801 54.4725 79.4909 51.2216C77.3016 47.9706 73.8577 44.4263 69.0354 40.6985C66.6941 38.8832 64.0077 37.5627 61.1396 36.8174H48.7052C47.4557 37.1258 46.2292 37.5201 45.0342 37.9977C41.8428 39.2901 38.9526 41.2266 36.5444 43.6861C32.6866 47.6872 30.761 52.2919 30.761 57.4234C30.7912 61.0937 31.6658 64.7079 33.3173 67.9865C35.0645 71.5406 37.2985 74.8343 39.955 77.7726L48.2213 71.014C45.7208 70.2426 43.3925 68.9974 41.3633 67.3463C39.12 65.5928 37.2214 63.4392 35.7635 60.9944C34.3242 58.7026 33.5544 56.0545 33.5409 53.3489C33.5409 50.099 34.838 47.1448 37.4321 44.4863C39.6795 42.1041 42.4274 40.2491 45.4781 39.0547C48.4796 37.832 51.691 37.2057 54.9324 37.2108C60.0517 37.2108 64.5369 38.6879 68.3546 41.6054C71.9888 44.4863 73.8443 48.0307 73.8443 52.2419C73.8443 57.928 70.9142 64.3165 65.0541 71.4075C62.1641 75.0285 58.9003 78.7196 55.3762 82.5607C51.9656 86.1784 48.7018 89.8728 45.6249 93.6406C42.6744 97.1734 40.0904 100.996 37.9127 105.051C35.8736 108.928 34.8358 112.77 34.8358 116.647C34.8358 121.315 36.6512 125.953 40.2487 130.608C39.8783 130.388 39.5078 130.201 39.1374 130.018L40.9528 132.419C42.2785 133.088 43.4042 134.094 44.2166 135.336C46.1422 138.217 43.8829 135.853 46.5527 137.883C47.4468 138.52 48.2351 139.293 48.8887 140.174C50.6122 140.761 52.2471 141.581 53.7477 142.612C57.2684 144.976 60.7925 147.19 64.4267 149.28C63.8173 149.503 63.2324 149.788 62.6814 150.13L50.5573 157.776C41.4367 163.574 36.4309 166.749 35.4698 167.192C34.6483 167.635 33.7332 167.876 32.8001 167.896C31.7733 167.866 30.7736 167.559 29.9067 167.009L25.4215 164.718C25.1759 164.749 24.9282 164.762 24.6806 164.755L24.7908 165.458L24.8275 165.715L33.9848 170.383L41.1397 174.151C41.8805 174.532 42.6867 174.769 43.5158 174.851L43.5292 174.858Z" fill="black"/>
<path d="M161.209 162.04C156.575 165.768 151.532 167.922 146.081 168.502L146.155 169.683C158.649 167.802 168.734 162.99 176.41 155.245C184.085 147.526 187.903 138.907 187.903 129.571C187.903 121.924 185.233 114.932 179.894 108.595C176.817 104.974 173.814 102.797 170.85 102.13C171.322 101.681 171.733 101.172 172.072 100.616L178.709 89.2059L177.708 88.6157C176.967 90.0162 176.039 90.9031 174.851 91.2832C173.663 91.6633 171.701 91.8334 168.921 91.8334H146.525L165.36 80.9402C166.695 80.2 167.513 79.3497 167.847 78.3528C168.222 77.1593 168.396 75.9121 168.364 74.6617V57.49C168.364 55.2394 168.477 53.5755 168.734 52.4685C168.96 51.4103 169.519 50.4522 170.33 49.7344L178.225 44.1961L177.558 43.1959C175.899 44.3951 173.899 45.0298 171.851 45.0064C169.922 45.0064 167.623 44.5629 164.99 43.6393L150.383 38.6912C146.083 37.2886 142.412 36.5861 139.37 36.5839C137.164 36.5495 134.969 36.8992 132.883 37.6176C130.857 38.365 128.908 39.3051 127.063 40.425L120.315 44.3395C121.056 40.7218 122.094 37.841 123.428 35.7737C124.763 33.7064 126.245 32.226 127.84 31.3791C129.24 30.5754 130.822 30.1427 132.436 30.122C133.863 30.0866 135.278 30.4038 136.554 31.0456C137.582 31.5196 138.456 32.2744 139.073 33.2229L139.814 32.9295C139.037 31.4157 137.221 30.2321 134.438 29.3085C133.17 28.8691 131.951 28.3004 130.8 27.6113C130.291 27.2975 129.855 26.8778 129.522 26.3807C129.189 25.8836 128.967 25.3208 128.871 24.7305C124.94 26.2442 122.197 28.9784 120.752 32.9295C119.287 36.9735 118.473 41.2243 118.343 45.5232C118.459 46.3303 118.483 47.1479 118.416 47.9606C118.376 48.3209 118.314 48.6784 118.229 49.0309C118.229 51.9117 118.192 57.0332 118.192 64.5054C116.971 65.0222 115.746 65.5057 114.521 65.9825C113.374 67.764 111.646 69.0949 109.629 69.7502L107.59 70.9673C107.033 71.2031 106.447 71.3645 105.848 71.4474L105.735 71.5208L105.588 71.6341C104.326 72.3343 103.512 73.1846 103.142 74.1449C102.985 74.5368 102.873 74.945 102.808 75.3619C102.649 76.1892 102.574 77.0303 102.584 77.8726V98.702L93.5004 103.984C93.5371 104.094 93.5371 104.207 93.5739 104.317C93.6106 104.427 93.6106 104.724 93.6473 104.984L93.7607 105.207C94.9822 104.54 96.0601 104.174 96.9845 104.174C98.9134 104.174 100.322 105.281 101.249 107.508C102.174 109.885 102.627 112.42 102.584 114.97V134.179C102.584 136.58 102.474 138.317 102.177 139.461C101.932 140.595 101.27 141.597 100.322 142.268C98.8032 138.317 98.0591 134.622 98.0591 131.078C98.0591 126.277 99.434 123.076 102.14 121.365L101.546 120.365L94.7986 124.316C92.9105 125.28 91.1634 126.497 89.6059 127.934C89.3642 128.267 89.1414 128.613 88.9385 128.971C88.6121 129.534 88.2126 130.052 87.7504 130.511C87.1376 131.958 86.8461 133.52 86.8961 135.089C86.8961 138.117 87.5635 141.514 88.8617 145.282C89.7342 147.808 90.918 150.215 92.3858 152.448C92.7094 152.784 92.9948 153.155 93.2368 153.555C94.0544 154.888 95.1657 155.182 96.1669 157.286L97.9823 158.91L99.4306 160.82C100.574 161.196 101.624 161.813 102.508 162.631C103.545 163.591 103.545 164.034 104.286 164.254C107.066 165.141 107.957 166.842 108.551 167.025C109.24 167.236 109.9 167.534 110.513 167.912C111.962 168.539 113.407 169.166 114.852 169.759H114.815C115.056 169.842 115.304 169.903 115.556 169.943C115.95 170.03 116.319 170.206 116.634 170.46L118.189 170.976C118.189 177.808 117.558 183.09 116.187 186.894C114.852 190.625 113.183 193.23 111.181 194.723C109.179 196.217 107.103 196.941 105.064 196.941C103.645 196.972 102.241 196.642 100.986 195.98C99.7644 195.35 98.91 194.647 98.4295 193.8L97.6853 194.096C98.1553 195.043 98.9248 195.808 99.8745 196.274C100.911 196.846 101.988 197.339 103.098 197.751C104.37 198.194 105.589 198.777 106.732 199.488C107.241 199.785 107.677 200.191 108.011 200.677C108.344 201.162 108.566 201.715 108.661 202.296C114.742 200.073 118.165 194.335 118.93 185.084C119.227 181.206 119.377 176.665 119.377 171.413C127.983 174.223 136.981 175.645 146.035 175.624L148.815 175.588C149.222 175.218 149.816 174.921 151.374 174.921C151.811 174.384 152.432 174.027 153.116 173.921C153.67 173.861 154.228 173.837 154.785 173.847C156.158 173.069 157.566 172.33 159.01 171.63C161.459 170.56 163.498 169.896 165.24 169.629C166.699 169.39 168.174 169.255 169.652 169.226L171.394 169.076C172.284 168.929 172.915 168.633 173.286 168.189C173.468 168.025 173.614 167.826 173.716 167.605C173.818 167.383 173.874 167.143 173.88 166.899C173.87 166.523 173.739 166.16 173.507 165.865C173.167 165.577 172.73 165.431 172.285 165.458C171.934 165.46 171.585 165.509 171.247 165.605C167.896 166.595 164.614 167.805 161.423 169.226C157.164 170.866 152.638 171.705 148.074 171.7C143.055 171.686 138.072 170.863 133.317 169.263C128.411 167.636 123.728 165.403 119.377 162.614V154.045L126.756 146.709L119.377 139.374V115.21C119.366 112.617 119.527 110.026 119.858 107.455C120.114 105.081 120.779 102.77 121.823 100.623C122.752 98.6215 124.264 96.9478 126.162 95.8212L125.568 94.7875L119.377 98.4553V94.8609C119.366 92.268 119.527 89.6771 119.858 87.1053C120.114 84.7318 120.779 82.4204 121.823 80.2733C122.752 78.2723 124.264 76.5985 126.162 75.4719L125.568 74.4383L119.387 78.0593V65.2056C127.283 61.6612 133.66 56.9699 138.593 51.0248L137.702 50.3246C132.919 55.9729 126.839 60.5176 119.387 63.9152V55.6061C119.356 52.4657 119.579 49.3278 120.055 46.2234C122.399 45.224 124.915 44.6852 127.463 44.6363C131.432 44.6363 137.365 46.2856 145.26 49.5844C147.67 50.5447 150.043 51.4316 152.489 52.2085C154.824 52.9678 157.265 53.3537 159.721 53.3521L161.499 53.2788C159.57 54.2024 158.309 55.086 157.605 55.9462C156.901 56.8065 156.604 58.3469 156.604 60.6376V77.8093C156.604 80.5801 156.42 82.5373 156.013 83.681C155.606 84.8246 154.715 85.8249 153.303 86.5985L144.189 91.8334H135.139C133.882 91.785 132.627 91.96 131.431 92.3502C130.467 92.7203 129.576 93.5338 128.871 94.7875L122.16 106.201L123.198 106.791C123.939 105.387 124.904 104.5 126.055 104.094C127.206 103.687 129.168 103.54 131.912 103.54H162.647C161.607 104.158 160.604 104.836 159.644 105.571L152.933 110.742L153.677 111.666C155.179 110.553 156.996 109.945 158.866 109.929C162.611 109.929 166.281 111.702 169.879 115.284C174.511 119.9 176.821 125.429 176.81 131.868C176.81 137.332 175.364 142.797 172.472 148.263C169.707 153.581 165.872 158.271 161.209 162.04ZM118.199 139.367L110.784 146.703L118.199 154.038V161.867C109.412 155.995 103.592 149.864 100.772 143.402L111.415 137.237C112.713 136.496 113.49 135.646 113.861 134.686C114.202 133.473 114.365 132.218 114.345 130.958V73.6647C114.318 72.0909 114.504 70.5206 114.899 68.9967C115.309 67.6296 116.42 66.5226 118.199 65.7091V139.367Z" fill="black"/>
<g filter="url(#filter2_f_905_649)">
<path fill-rule="evenodd" clip-rule="evenodd" d="M41.8172 158.73V158.583C40.6247 157.207 39.4722 155.803 38.3598 154.372H36.7279L35.5032 156.992C36.5043 158.286 37.5055 159.543 38.5801 160.76L41.8172 158.73Z" fill="black"/>
<path fill-rule="evenodd" clip-rule="evenodd" d="M180.001 49.7476V49.3042L179.964 49.2675H179.927L176.664 50.8546L176.443 51.0013L176.7 51.3714L180.001 49.7476ZM120.642 13.5171H93.6873C78.9328 15.7206 64.9567 21.55 53.0135 30.482V32.2159L57.3151 32.1058C67.833 24.6903 79.8754 19.7148 92.5633 17.5424C105.251 15.37 118.265 16.0555 130.654 19.5488C131.655 19.8089 132.656 20.1023 133.657 20.4358C145.26 24.1591 155.938 30.3019 164.987 38.4577L167.803 39.0879L165.951 38.9745C165.838 38.9745 165.691 38.9378 165.504 38.9378L164.987 38.4577L167.803 39.0879L170.51 39.2713H171.401C157.699 25.4508 139.895 16.4223 120.642 13.5304V13.5171Z" fill="black"/>
<path fill-rule="evenodd" clip-rule="evenodd" d="M31.6587 151.601H32.0659L33.4008 147.873V147.096C26.0886 135.093 21.8267 121.484 20.9868 107.458C20.1468 93.4307 22.7543 79.4116 28.5818 66.6228L27.4672 61.0845H26.9867C19.6395 75.2243 16.1992 91.0659 17.0204 106.977C17.8417 122.887 22.8947 138.291 31.6587 151.601Z" fill="black"/>
<path fill-rule="evenodd" clip-rule="evenodd" d="M110.891 188.605V188.348C109.666 188.385 108.408 188.421 107.146 188.421C90.1127 188.444 73.455 183.419 59.2808 173.98H56.0904L54.275 175.127C66.071 183.675 79.778 189.215 94.2046 191.266C97.3142 191.716 100.446 191.999 103.585 192.116C104.774 192.152 105.958 192.189 107.146 192.189H108.294L110.891 188.605Z" fill="black"/>
<path fill-rule="evenodd" clip-rule="evenodd" d="M123.051 190.786H123.161C133.178 188.999 142.818 185.53 151.675 180.526H143.332C137.002 183.435 130.34 185.563 123.495 186.861L123.051 189.815V190.786ZM123.051 186.944V189.825L123.495 186.871L123.051 186.944Z" fill="black"/>
<path fill-rule="evenodd" clip-rule="evenodd" d="M181.115 50.8547H177.741L177.187 51.1548V52.0051C184.2 61.702 189.112 72.7537 191.608 84.4543C194.104 96.1549 194.13 108.247 191.684 119.958L193.093 129.931C195.945 121.025 197.397 111.731 197.394 102.38C197.429 83.9365 191.741 65.9358 181.115 50.8547Z" fill="black"/>
<path fill-rule="evenodd" clip-rule="evenodd" d="M103.512 206C76.6724 205.001 51.2738 193.612 32.6866 174.241C37.4688 176.345 42.2877 178.452 47.0733 180.593C53.8211 184.767 56.9714 187.721 65.0942 191.339C77.3284 196.804 92.793 201.459 106.322 201.715L105.695 202.826L103.512 206Z" fill="black"/>
<path fill-rule="evenodd" clip-rule="evenodd" d="M118.119 201.162L111.818 205.963C166.989 203.713 210.997 158.519 210.997 103.037C210.997 46.1267 164.653 0.0065918 107.517 0.0065918C50.3804 0.0065918 3.98665 46.1267 3.98665 103.037C3.9608 123.425 10.0277 143.358 21.4102 160.28L26.9733 160.503C14.9268 143.761 8.4586 123.656 8.4852 103.037C8.4852 48.5274 52.8299 4.34119 107.517 4.34119C162.203 4.34119 206.511 48.5107 206.511 103.037C206.511 153.965 167.8 195.88 118.119 201.162Z" fill="black"/>
<path d="M43.5292 174.858H44.1566C45.1944 174.784 46.4926 174.267 48.0878 173.27L71.0644 158.753C72.2014 157.94 73.4048 157.224 74.6619 156.612C75.4851 156.174 76.3992 155.933 77.3317 155.909C78.3728 155.92 79.3892 156.228 80.2617 156.796L80.779 155.762L68.9153 149.667C64.691 147.631 60.679 145.181 56.938 142.355C53.4173 139.661 50.5239 136.02 48.3014 131.388C47.8178 129.973 47.5675 128.489 47.5605 126.994C47.5605 120.418 52.306 114.349 61.797 108.785C69.3896 104.445 77.7708 101.658 86.4523 100.586C87.7453 100.44 89.0455 100.366 90.3468 100.366C95.2758 100.366 99.4674 101.436 102.878 103.54C106.289 105.644 107.994 108.121 107.994 110.966V111.332L108.771 111.482L108.845 110.816C108.814 109.646 108.523 108.498 107.994 107.455C107.442 106.418 107.138 105.268 107.106 104.094C107.124 103.272 107.441 102.485 107.997 101.88C103.696 99.9591 98.84 98.9988 93.3136 98.9988C87.7317 99.0322 82.1807 99.8275 76.8144 101.363C71.3606 102.836 66.1161 104.995 61.2063 107.788C54.6521 111.667 50.2915 115.729 48.1245 119.975C49.8665 115.507 52.7599 110.972 56.8012 106.494C60.8793 101.953 65.3656 97.4228 70.2602 92.9037C74.3015 89.0993 78.1193 85.3349 81.7435 81.4971C85.1484 77.9962 88.1577 74.1318 90.7172 69.9737C93.09 66.1326 94.2747 62.1814 94.2747 58.1936C94.2747 54.5725 92.9765 50.8581 90.4936 47.077C89.9193 47.5503 89.199 47.8106 88.4546 47.8139C87.1997 47.7728 85.9753 47.4174 84.8938 46.7803C83.8166 46.1009 82.5732 45.7307 81.2996 45.71H80.8524L81.0026 46.5235C83.8559 46.7803 86.4523 48.2941 88.7516 50.9182C91.0876 53.6123 92.2356 56.8632 92.2356 60.6677C92.2356 63.9186 91.1243 67.2796 88.9351 70.7139C86.5171 74.4381 83.7359 77.9138 80.6322 81.0903C77.9624 83.8611 74.2181 87.5155 69.4726 92.0601C64.0484 96.9971 58.937 102.267 54.1682 107.838C49.7186 113.046 47.0121 118.29 46.0488 123.569L45.9019 121.095C45.8553 116.823 46.9831 112.621 49.1624 108.945C51.2423 105.475 53.5982 102.178 56.2072 99.0855C58.9137 95.8712 61.7336 92.7337 64.6603 89.6328C72.5962 81.1736 77.859 74.4517 80.492 69.3569C82.0138 66.4393 82.7546 63.5952 82.7546 60.861C82.7546 57.6868 81.6801 54.4725 79.4909 51.2216C77.3016 47.9706 73.8577 44.4263 69.0354 40.6985C66.6941 38.8832 64.0077 37.5627 61.1396 36.8174H48.7052C47.4557 37.1258 46.2292 37.5201 45.0342 37.9977C41.8428 39.2901 38.9526 41.2266 36.5444 43.6861C32.6866 47.6872 30.761 52.2919 30.761 57.4234C30.7912 61.0937 31.6658 64.7079 33.3173 67.9865C35.0645 71.5406 37.2985 74.8343 39.955 77.7726L48.2213 71.014C45.7208 70.2426 43.3925 68.9974 41.3633 67.3463C39.12 65.5928 37.2214 63.4392 35.7635 60.9944C34.3242 58.7026 33.5544 56.0545 33.5409 53.3489C33.5409 50.099 34.838 47.1448 37.4321 44.4863C39.6795 42.1041 42.4274 40.2491 45.4781 39.0547C48.4796 37.832 51.691 37.2057 54.9324 37.2108C60.0517 37.2108 64.5369 38.6879 68.3546 41.6054C71.9888 44.4863 73.8443 48.0307 73.8443 52.2419C73.8443 57.928 70.9142 64.3165 65.0541 71.4075C62.1641 75.0285 58.9003 78.7196 55.3762 82.5607C51.9656 86.1784 48.7018 89.8728 45.6249 93.6406C42.6744 97.1734 40.0904 100.996 37.9127 105.051C35.8736 108.928 34.8358 112.77 34.8358 116.647C34.8358 121.315 36.6512 125.953 40.2487 130.608C39.8783 130.388 39.5078 130.201 39.1374 130.018L40.9528 132.419C42.2785 133.088 43.4042 134.094 44.2166 135.336C46.1422 138.217 43.8829 135.853 46.5527 137.883C47.4468 138.52 48.2351 139.293 48.8887 140.174C50.6122 140.761 52.2471 141.581 53.7477 142.612C57.2684 144.976 60.7925 147.19 64.4267 149.28C63.8173 149.503 63.2324 149.788 62.6814 150.13L50.5573 157.776C41.4367 163.574 36.4309 166.749 35.4698 167.192C34.6483 167.635 33.7332 167.876 32.8001 167.896C31.7733 167.866 30.7736 167.559 29.9067 167.009L25.4215 164.718C25.1759 164.749 24.9282 164.762 24.6806 164.755L24.7908 165.458L24.8275 165.715L33.9848 170.383L41.1397 174.151C41.8805 174.532 42.6867 174.769 43.5158 174.851L43.5292 174.858Z" fill="black"/>
<path d="M161.209 162.04C156.575 165.768 151.532 167.922 146.081 168.502L146.155 169.683C158.649 167.802 168.734 162.99 176.41 155.245C184.085 147.526 187.903 138.907 187.903 129.571C187.903 121.924 185.233 114.932 179.894 108.595C176.817 104.974 173.814 102.797 170.85 102.13C171.322 101.681 171.733 101.172 172.072 100.616L178.709 89.2059L177.708 88.6157C176.967 90.0162 176.039 90.9031 174.851 91.2832C173.663 91.6633 171.701 91.8334 168.921 91.8334H146.525L165.36 80.9402C166.695 80.2 167.513 79.3497 167.847 78.3528C168.222 77.1593 168.396 75.9121 168.364 74.6617V57.49C168.364 55.2394 168.477 53.5755 168.734 52.4685C168.96 51.4103 169.519 50.4522 170.33 49.7344L178.225 44.1961L177.558 43.1959C175.899 44.3951 173.899 45.0298 171.851 45.0064C169.922 45.0064 167.623 44.5629 164.99 43.6393L150.383 38.6912C146.083 37.2886 142.412 36.5861 139.37 36.5839C137.164 36.5495 134.969 36.8992 132.883 37.6176C130.857 38.365 128.908 39.3051 127.063 40.425L120.315 44.3395C121.056 40.7218 122.094 37.841 123.428 35.7737C124.763 33.7064 126.245 32.226 127.84 31.3791C129.24 30.5754 130.822 30.1427 132.436 30.122C133.863 30.0866 135.278 30.4038 136.554 31.0456C137.582 31.5196 138.456 32.2744 139.073 33.2229L139.814 32.9295C139.037 31.4157 137.221 30.2321 134.438 29.3085C133.17 28.8691 131.951 28.3004 130.8 27.6113C130.291 27.2975 129.855 26.8778 129.522 26.3807C129.189 25.8836 128.967 25.3208 128.871 24.7305C124.94 26.2442 122.197 28.9784 120.752 32.9295C119.287 36.9735 118.473 41.2243 118.343 45.5232C118.459 46.3303 118.483 47.1479 118.416 47.9606C118.376 48.3209 118.314 48.6784 118.229 49.0309C118.229 51.9117 118.192 57.0332 118.192 64.5054C116.971 65.0222 115.746 65.5057 114.521 65.9825C113.374 67.764 111.646 69.0949 109.629 69.7502L107.59 70.9673C107.033 71.2031 106.447 71.3645 105.848 71.4474L105.735 71.5208L105.588 71.6341C104.326 72.3343 103.512 73.1846 103.142 74.1449C102.985 74.5368 102.873 74.945 102.808 75.3619C102.649 76.1892 102.574 77.0303 102.584 77.8726V98.702L93.5004 103.984C93.5371 104.094 93.5371 104.207 93.5739 104.317C93.6106 104.427 93.6106 104.724 93.6473 104.984L93.7607 105.207C94.9822 104.54 96.0601 104.174 96.9845 104.174C98.9134 104.174 100.322 105.281 101.249 107.508C102.174 109.885 102.627 112.42 102.584 114.97V134.179C102.584 136.58 102.474 138.317 102.177 139.461C101.932 140.595 101.27 141.597 100.322 142.268C98.8032 138.317 98.0591 134.622 98.0591 131.078C98.0591 126.277 99.434 123.076 102.14 121.365L101.546 120.365L94.7986 124.316C92.9105 125.28 91.1634 126.497 89.6059 127.934C89.3642 128.267 89.1414 128.613 88.9385 128.971C88.6121 129.534 88.2126 130.052 87.7504 130.511C87.1376 131.958 86.8461 133.52 86.8961 135.089C86.8961 138.117 87.5635 141.514 88.8617 145.282C89.7342 147.808 90.918 150.215 92.3858 152.448C92.7094 152.784 92.9948 153.155 93.2368 153.555C94.0544 154.888 95.1657 155.182 96.1669 157.286L97.9823 158.91L99.4306 160.82C100.574 161.196 101.624 161.813 102.508 162.631C103.545 163.591 103.545 164.034 104.286 164.254C107.066 165.141 107.957 166.842 108.551 167.025C109.24 167.236 109.9 167.534 110.513 167.912C111.962 168.539 113.407 169.166 114.852 169.759H114.815C115.056 169.842 115.304 169.903 115.556 169.943C115.95 170.03 116.319 170.206 116.634 170.46L118.189 170.976C118.189 177.808 117.558 183.09 116.187 186.894C114.852 190.625 113.183 193.23 111.181 194.723C109.179 196.217 107.103 196.941 105.064 196.941C103.645 196.972 102.241 196.642 100.986 195.98C99.7644 195.35 98.91 194.647 98.4295 193.8L97.6853 194.096C98.1553 195.043 98.9248 195.808 99.8745 196.274C100.911 196.846 101.988 197.339 103.098 197.751C104.37 198.194 105.589 198.777 106.732 199.488C107.241 199.785 107.677 200.191 108.011 200.677C108.344 201.162 108.566 201.715 108.661 202.296C114.742 200.073 118.165 194.335 118.93 185.084C119.227 181.206 119.377 176.665 119.377 171.413C127.983 174.223 136.981 175.645 146.035 175.624L148.815 175.588C149.222 175.218 149.816 174.921 151.374 174.921C151.811 174.384 152.432 174.027 153.116 173.921C153.67 173.861 154.228 173.837 154.785 173.847C156.158 173.069 157.566 172.33 159.01 171.63C161.459 170.56 163.498 169.896 165.24 169.629C166.699 169.39 168.174 169.255 169.652 169.226L171.394 169.076C172.284 168.929 172.915 168.633 173.286 168.189C173.468 168.025 173.614 167.826 173.716 167.605C173.818 167.383 173.874 167.143 173.88 166.899C173.87 166.523 173.739 166.16 173.507 165.865C173.167 165.577 172.73 165.431 172.285 165.458C171.934 165.46 171.585 165.509 171.247 165.605C167.896 166.595 164.614 167.805 161.423 169.226C157.164 170.866 152.638 171.705 148.074 171.7C143.055 171.686 138.072 170.863 133.317 169.263C128.411 167.636 123.728 165.403 119.377 162.614V154.045L126.756 146.709L119.377 139.374V115.21C119.366 112.617 119.527 110.026 119.858 107.455C120.114 105.081 120.779 102.77 121.823 100.623C122.752 98.6215 124.264 96.9478 126.162 95.8212L125.568 94.7875L119.377 98.4553V94.8609C119.366 92.268 119.527 89.6771 119.858 87.1053C120.114 84.7318 120.779 82.4204 121.823 80.2733C122.752 78.2723 124.264 76.5985 126.162 75.4719L125.568 74.4383L119.387 78.0593V65.2056C127.283 61.6612 133.66 56.9699 138.593 51.0248L137.702 50.3246C132.919 55.9729 126.839 60.5176 119.387 63.9152V55.6061C119.356 52.4657 119.579 49.3278 120.055 46.2234C122.399 45.224 124.915 44.6852 127.463 44.6363C131.432 44.6363 137.365 46.2856 145.26 49.5844C147.67 50.5447 150.043 51.4316 152.489 52.2085C154.824 52.9678 157.265 53.3537 159.721 53.3521L161.499 53.2788C159.57 54.2024 158.309 55.086 157.605 55.9462C156.901 56.8065 156.604 58.3469 156.604 60.6376V77.8093C156.604 80.5801 156.42 82.5373 156.013 83.681C155.606 84.8246 154.715 85.8249 153.303 86.5985L144.189 91.8334H135.139C133.882 91.785 132.627 91.96 131.431 92.3502C130.467 92.7203 129.576 93.5338 128.871 94.7875L122.16 106.201L123.198 106.791C123.939 105.387 124.904 104.5 126.055 104.094C127.206 103.687 129.168 103.54 131.912 103.54H162.647C161.607 104.158 160.604 104.836 159.644 105.571L152.933 110.742L153.677 111.666C155.179 110.553 156.996 109.945 158.866 109.929C162.611 109.929 166.281 111.702 169.879 115.284C174.511 119.9 176.821 125.429 176.81 131.868C176.81 137.332 175.364 142.797 172.472 148.263C169.707 153.581 165.872 158.271 161.209 162.04ZM118.199 139.367L110.784 146.703L118.199 154.038V161.867C109.412 155.995 103.592 149.864 100.772 143.402L111.415 137.237C112.713 136.496 113.49 135.646 113.861 134.686C114.202 133.473 114.365 132.218 114.345 130.958V73.6647C114.318 72.0909 114.504 70.5206 114.899 68.9967C115.309 67.6296 116.42 66.5226 118.199 65.7091V139.367Z" fill="black"/>
</g>
</g>
<defs>
<filter id="filter0_d_905_649" x="0" y="0" width="215" height="214" filterUnits="userSpaceOnUse" color-interpolation-filters="sRGB">
<feFlood flood-opacity="0" result="BackgroundImageFix"/>
<feColorMatrix in="SourceAlpha" type="matrix" values="0 0 0 0 0 0 0 0 0 0 0 0 0 0 0 0 0 0 127 0" result="hardAlpha"/>
<feOffset dy="4"/>
<feGaussianBlur stdDeviation="2"/>
<feComposite in2="hardAlpha" operator="out"/>
<feColorMatrix type="matrix" values="0 0 0 0 0 0 0 0 0 0 0 0 0 0 0 0 0 0 0.25 0"/>
<feBlend mode="normal" in2="BackgroundImageFix" result="effect1_dropShadow_905_649"/>
<feBlend mode="normal" in="SourceGraphic" in2="effect1_dropShadow_905_649" result="shape"/>
</filter>
<filter id="filter1_f_905_649" x="-0.0134277" y="-3.99341" width="215.01" height="213.993" filterUnits="userSpaceOnUse" color-interpolation-filters="sRGB">
<feFlood flood-opacity="0" result="BackgroundImageFix"/>
<feBlend mode="normal" in="SourceGraphic" in2="BackgroundImageFix" result="shape"/>
<feGaussianBlur stdDeviation="2" result="effect1_foregroundBlur_905_649"/>
</filter>
<filter id="filter2_f_905_649" x="-0.0134277" y="-3.99341" width="215.01" height="213.993" filterUnits="userSpaceOnUse" color-interpolation-filters="sRGB">
<feFlood flood-opacity="0" result="BackgroundImageFix"/>
<feBlend mode="normal" in="SourceGraphic" in2="BackgroundImageFix" result="shape"/>
<feGaussianBlur stdDeviation="2" result="effect1_foregroundBlur_905_649"/>
</filter>
<clipPath id="clip0_905_649">
<rect width="207" height="206" fill="white" transform="translate(4)"/>
</clipPath>
</defs>
</svg>
