<svg width="42" height="44" viewBox="0 0 42 44" fill="none" xmlns="http://www.w3.org/2000/svg">
<path d="M12 0C5.4 0 0 5.4 0 12C0 18.6 5.4 24 12 24C18.6 24 24 18.6 24 12C24 5.4 18.6 0 12 0ZM12 4C16.4 4 20 7.6 20 12C20 16.4 16.4 20 12 20C7.6 20 4 16.4 4 12C4 7.6 7.6 4 12 4ZM32 4V8H27.4766C27.8066 9.28 28 10.616 28 12H38V16H27.4766C27.1106 17.42 26.5617 18.762 25.8437 20H38L38.0039 40H10V27.8633C8.602 27.6893 7.262 27.3362 6 26.8242V40C6 42.206 7.794 44 10 44H38C40.206 44 42 42.206 42 40V12C42 9.794 40.206 8 38 8H36V4H32ZM13.8008 6.39844L10.3984 12.1992L14.8008 16.6016L16.6016 14.6016L13.6016 11.8008L16 7.60156L13.8008 6.39844Z" fill="white"/>
</svg>
