<svg width="42" height="43" viewBox="0 0 42 43" fill="none" xmlns="http://www.w3.org/2000/svg">
<path d="M10.0694 0C9.75879 0 9.50695 0.25184 9.50695 0.5625V1.5C9.50695 1.81066 9.75879 2.0625 10.0694 2.0625C10.3801 2.0625 10.6319 1.81066 10.6319 1.5V0.5625C10.6319 0.25184 10.3801 0 10.0694 0ZM21.3378 1.77484C18.6328 1.66225 15.999 2.65813 14.0453 4.53224C12.0915 6.40636 10.987 8.99645 10.987 11.7037C10.9932 17.1895 15.4387 21.635 20.9245 21.6412C26.3322 21.6411 30.7472 17.3169 30.8596 11.9104C30.9721 6.50389 26.7408 1.99985 21.3378 1.77484ZM8.19445 1.875C7.88379 1.875 7.63195 2.12684 7.63195 2.4375C7.63195 2.74816 7.88379 3 8.19445 3H9.13195C9.44261 3 9.69445 2.74816 9.69445 2.4375C9.69445 2.12684 9.44261 1.875 9.13195 1.875H8.19445ZM11.0069 1.875C10.6963 1.875 10.4444 2.12684 10.4444 2.4375C10.4444 2.74816 10.6963 3 11.0069 3H11.9444C12.2551 3 12.5069 2.74816 12.5069 2.4375C12.5069 2.12684 12.2551 1.875 11.9444 1.875H11.0069ZM10.0694 2.8125C9.75879 2.8125 9.50695 3.06434 9.50695 3.375V4.3125C9.50695 4.62316 9.75879 4.875 10.0694 4.875C10.3801 4.875 10.6319 4.62316 10.6319 4.3125V3.375C10.6319 3.06434 10.3801 2.8125 10.0694 2.8125ZM20.9245 2.89124C24.4888 2.89124 27.7022 5.03833 29.0662 8.33134C30.4302 11.6243 29.6762 15.4148 27.1559 17.9351C24.6355 20.4555 20.8451 21.2094 17.5521 19.8454C14.2591 18.4814 12.112 15.2681 12.112 11.7037C12.1175 6.839 16.0598 2.89671 20.9245 2.89124ZM34.7385 6.34387C34.5893 6.34387 34.4463 6.40314 34.3408 6.50862C34.2353 6.61411 34.176 6.75719 34.176 6.90637V7.84387C34.176 8.15453 34.4279 8.40637 34.7385 8.40637C35.0492 8.40637 35.301 8.15453 35.301 7.84387V6.90637C35.301 6.75719 35.2418 6.61411 35.1363 6.50862C35.0308 6.40314 34.8877 6.34387 34.7385 6.34387ZM18.0435 6.64984C17.7328 6.6465 17.4783 6.89564 17.475 7.2063C17.4716 7.51696 17.7208 7.7715 18.0314 7.77484L19.6988 7.79278C20.5523 7.80247 21.2993 8.3687 21.5392 9.18787L18.0166 9.15033H18.0106C17.6999 9.14866 17.4467 9.39915 17.445 9.70981C17.4434 10.0205 17.6938 10.2737 18.0045 10.2753L21.5258 10.3129C21.2708 11.1186 20.5238 11.6667 19.6786 11.668H19.6576L17.9902 11.6501H17.9842C17.7549 11.6501 17.5485 11.7893 17.4626 12.0019C17.3767 12.2145 17.4285 12.458 17.5934 12.6172L21.7184 16.6002C21.9419 16.816 22.298 16.8097 22.5138 16.5862C22.7296 16.3628 22.7234 16.0066 22.4999 15.7908L19.3921 12.7908L19.6451 12.7936C21.1194 12.8089 22.3954 11.7719 22.6818 10.3257L23.8317 10.338H23.8377C24.1484 10.3396 24.4016 10.0891 24.4032 9.77847C24.4049 9.46781 24.1544 9.21462 23.8437 9.21295L22.6938 9.20068C22.605 8.69469 22.3898 8.21931 22.0683 7.8186L23.8584 7.83746H23.8646C24.1751 7.83887 24.4281 7.58841 24.4297 7.27789C24.4313 6.96738 24.181 6.71429 23.8705 6.71246L19.7109 6.66778L18.0435 6.64984ZM32.8635 8.21887C32.5529 8.21887 32.301 8.47071 32.301 8.78137C32.301 9.09203 32.5529 9.34387 32.8635 9.34387H33.801C34.1117 9.34387 34.3635 9.09203 34.3635 8.78137C34.3635 8.47071 34.1117 8.21887 33.801 8.21887H32.8635ZM35.676 8.21887C35.3654 8.21887 35.1135 8.47071 35.1135 8.78137C35.1135 9.09203 35.3654 9.34387 35.676 9.34387H36.6135C36.9242 9.34387 37.176 9.09203 37.176 8.78137C37.176 8.47071 36.9242 8.21887 36.6135 8.21887H35.676ZM34.7385 9.15637C34.4279 9.15637 34.176 9.40821 34.176 9.71887V10.6564C34.176 10.967 34.4279 11.2189 34.7385 11.2189C35.0492 11.2189 35.301 10.967 35.301 10.6564V9.71887C35.301 9.40821 35.0492 9.15637 34.7385 9.15637ZM30.3995 23.7349C29.723 23.7355 29.0585 23.9134 28.4723 24.2509L25.7466 25.7329H22.1183C21.3346 25.7318 20.5612 25.5546 19.8552 25.2144L19.3553 24.9727C16.4474 23.5577 12.9914 23.8952 10.4122 25.8461C10.3999 25.8554 10.388 25.8647 10.3765 25.8752L9.16985 26.9495C8.72087 27.3484 8.19094 27.6454 7.61639 27.8203L6.93633 25.5899C6.86414 25.3532 6.64569 25.1914 6.39818 25.1915H0.562614C0.401543 25.1914 0.248186 25.2605 0.141398 25.381C0.0346104 25.5016 -0.0153622 25.6622 0.00414244 25.8221L1.94945 41.7719C1.98389 42.0541 2.22357 42.2663 2.50793 42.2662H11.2609C11.4392 42.2662 11.6068 42.1817 11.7129 42.0385C11.819 41.8952 11.8509 41.7102 11.7989 41.5397L10.6528 37.7803L14.2214 35.5247C14.6962 35.2623 15.2531 35.1903 15.779 35.3232C15.7907 35.3262 15.8024 35.3287 15.8142 35.3309L23.0991 36.6724C25.0829 37.0274 27.1284 36.7386 28.9365 35.8482C28.9603 35.8364 28.9832 35.8229 29.0051 35.8079L41.6052 27.1566C41.8505 26.9881 41.9222 26.6577 41.7687 26.4027C40.811 24.8074 38.7673 24.2485 37.1312 25.1345L36.9301 25.2429C36.0553 24.1929 34.5489 23.7876 33.4009 24.3697L33.3883 24.3763L32.8935 24.6429C32.1952 24.0557 31.3119 23.7341 30.3995 23.7349ZM30.3367 24.8604C30.8472 24.8481 31.351 24.9785 31.7914 25.2369L29.4023 26.5237C28.9532 26.1981 28.4433 25.9658 27.9028 25.8406L29.0165 25.2356L29.0297 25.2281C29.4276 24.998 29.8771 24.8715 30.3367 24.8604ZM34.5569 25.2268C35.0427 25.2311 35.5404 25.459 35.9031 25.797L31.1482 28.3623L30.8874 28.4996C30.7382 28.0832 30.5234 27.6932 30.2513 27.3444L33.9155 25.3702C34.1176 25.269 34.336 25.2249 34.5569 25.2268ZM15.264 25.2393C16.5077 25.184 17.7456 25.4404 18.8651 25.985L19.3648 26.2266C20.2236 26.6406 21.1646 26.8563 22.118 26.8575H26.9642C28.4149 26.8595 29.6629 27.8843 29.947 29.3069L26.459 29.1493C25.1809 29.0918 23.9002 29.151 22.6329 29.326C22.3267 29.3703 22.1137 29.6535 22.1562 29.9599C22.1986 30.2663 22.4805 30.481 22.7872 30.4404C23.9866 30.2746 25.1986 30.2186 26.4081 30.273L30.5419 30.4605C30.5505 30.4605 30.5588 30.4611 30.5672 30.4611C30.8778 30.4611 31.1297 30.2092 31.1297 29.8986C31.1297 29.8142 31.1266 29.731 31.1216 29.6481L31.6775 29.3549L37.6656 26.1246C38.5964 25.6206 39.749 25.7997 40.4829 26.5624L28.4016 34.8574C26.8191 35.6274 25.0332 35.8753 23.3008 35.5657L16.0345 34.2277C15.2306 34.0294 14.3814 34.1445 13.6594 34.5496C13.6507 34.5546 13.6419 34.5598 13.6334 34.5652L10.3121 36.6647L7.94414 28.8979C8.67421 28.675 9.34743 28.2968 9.91766 27.7894L11.1066 26.7308C12.3104 25.8261 13.7595 25.3062 15.264 25.2393ZM1.19781 26.3165H5.98125L10.501 41.1412H3.00561L1.19781 26.3165ZM6.42547 37.183C5.47072 37.1844 4.69722 37.9583 4.6964 38.913C4.69656 39.6126 5.11812 40.2432 5.7645 40.5107C6.41088 40.7783 7.15479 40.6301 7.64933 40.1353C8.14387 39.6405 8.29164 38.8965 8.02374 38.2503C7.75585 37.6041 7.12504 37.1828 6.42547 37.183ZM6.42547 38.308L6.42583 38.3084C6.67038 38.3083 6.89089 38.4556 6.98452 38.6815C7.07815 38.9074 7.02647 39.1675 6.85357 39.3405C6.68068 39.5134 6.42062 39.5652 6.19468 39.4716C5.96874 39.378 5.82141 39.1576 5.8214 38.913C5.82155 38.5793 6.09177 38.3087 6.42547 38.308Z" fill="white"/>
</svg>
