<svg width="75" height="78" viewBox="0 0 75 78" fill="none" xmlns="http://www.w3.org/2000/svg">
<g clip-path="url(#clip0_667_262)" filter="url(#filter0_d_667_262)">
<g filter="url(#filter1_f_667_262)">
<path fill-rule="evenodd" clip-rule="evenodd" d="M16.2409 54.6254V54.5777C15.8549 54.1302 15.4819 53.6736 15.1219 53.208H14.5937L14.1973 54.0604C14.5213 54.4812 14.8454 54.89 15.1932 55.2858L16.2409 54.6254Z" fill="white"/>
<path fill-rule="evenodd" clip-rule="evenodd" d="M60.9664 19.1802V19.036L60.9545 19.024H60.9426L59.8862 19.5402L59.815 19.588L59.8981 19.7083L60.9664 19.1802ZM41.7536 7.39648H33.0292C28.2536 8.11317 23.7299 10.0091 19.8643 12.9142V13.4781L21.2566 13.4423C24.6609 11.0305 28.5587 9.41225 32.6654 8.70569C36.7721 7.99912 40.9842 8.22207 44.9941 9.35827C45.3182 9.44286 45.6422 9.53829 45.9663 9.64674C49.7217 10.8577 53.1781 12.8556 56.1068 15.5082L57.0184 15.7132L56.4189 15.6763C56.3822 15.6763 56.3347 15.6644 56.2742 15.6644L56.1068 15.5082L57.0184 15.7132L57.8944 15.7728H58.1828C53.748 11.2778 47.9855 8.34139 41.7536 7.40082V7.39648Z" fill="white"/>
<path fill-rule="evenodd" clip-rule="evenodd" d="M12.9523 52.307H13.0841L13.5161 51.0946V50.8419C11.1494 46.9379 9.76996 42.5118 9.49809 37.9497C9.22623 33.3876 10.0702 28.828 11.9564 24.6685L11.5956 22.8672H11.4401C9.06201 27.4661 7.94849 32.6184 8.2143 37.7933C8.48012 42.9681 10.1156 47.9781 12.9523 52.307Z" fill="white"/>
<path fill-rule="evenodd" clip-rule="evenodd" d="M38.5983 64.3424V64.2589C38.2019 64.2708 37.7947 64.2827 37.3864 64.2827C31.8731 64.2902 26.4815 62.6557 21.8937 59.5859H20.861L20.2734 59.959C24.0915 62.7391 28.528 64.5409 33.1975 65.2078C34.204 65.3542 35.2176 65.4465 36.2338 65.4843C36.6184 65.4962 37.0018 65.5082 37.3864 65.5082H37.7579L38.5983 64.3424Z" fill="white"/>
<path fill-rule="evenodd" clip-rule="evenodd" d="M42.5342 65.0517H42.5698C45.8117 64.4707 48.9322 63.3424 51.7987 61.7148H49.0983C47.0495 62.6611 44.8934 63.353 42.6778 63.7753L42.5342 64.7361V65.0517ZM42.5342 63.8024V64.7394L42.6778 63.7786L42.5342 63.8024Z" fill="white"/>
<path fill-rule="evenodd" clip-rule="evenodd" d="M61.328 19.54H60.2359L60.0566 19.6376V19.9142C62.3265 23.068 63.9161 26.6625 64.724 30.468C65.532 34.2736 65.5404 38.2064 64.7488 42.0154L65.2047 45.2591C66.128 42.3625 66.5977 39.3395 66.597 36.2982C66.6081 30.2996 64.7673 24.445 61.328 19.54Z" fill="white"/>
<path fill-rule="evenodd" clip-rule="evenodd" d="M36.2093 69.9994C27.5221 69.6744 19.3013 65.9701 13.2852 59.6699C14.833 60.3542 16.3928 61.0396 17.9417 61.7358C20.1258 63.0936 21.1455 64.0544 23.7746 65.231C27.7344 67.0084 32.7399 68.5224 37.1188 68.6059L36.9158 68.967L36.2093 69.9994Z" fill="white"/>
<path fill-rule="evenodd" clip-rule="evenodd" d="M40.9375 68.4262L38.8982 69.9878C56.7553 69.2558 70.9994 54.5571 70.9994 36.5117C70.9994 18.0022 55.9992 3.00195 37.5058 3.00195C19.0125 3.00195 3.99612 18.0022 3.99612 36.5117C3.98775 43.143 5.95144 49.6258 9.63562 55.1297L11.4362 55.2023C7.53713 49.7571 5.44356 43.2181 5.45217 36.5117C5.45217 18.783 19.8053 4.41175 37.5058 4.41175C55.2064 4.41175 69.5476 18.7776 69.5476 36.5117C69.5476 53.0757 57.0178 66.7084 40.9375 68.4262Z" fill="white"/>
<path d="M16.7951 59.8712H16.9981C17.3341 59.8473 17.7542 59.6792 18.2706 59.355L25.7074 54.6332C26.0754 54.3688 26.4649 54.1359 26.8719 53.937C27.1383 53.7944 27.4341 53.7161 27.736 53.7082C28.073 53.712 28.4019 53.8121 28.6844 53.9967L28.8518 53.6605L25.0118 51.6781C23.6445 51.0158 22.346 50.2192 21.1351 49.2999C19.9956 48.4236 19.0591 47.2394 18.3397 45.7331C18.1832 45.2728 18.1022 44.7901 18.0999 44.3038C18.0999 42.1652 19.6359 40.1912 22.7078 38.3816C25.1654 36.9699 27.8781 36.0634 30.688 35.7149C31.1066 35.6673 31.5274 35.6434 31.9486 35.6433C33.544 35.6433 34.9007 35.9914 36.0046 36.6757C37.1085 37.36 37.6605 38.1657 37.6605 39.0908V39.2101L37.9121 39.2589L37.9359 39.042C37.9259 38.6616 37.8318 38.2883 37.6605 37.9489C37.4817 37.6117 37.3833 37.2375 37.3731 36.8557C37.379 36.5885 37.4815 36.3326 37.6615 36.1356C36.2692 35.511 34.6976 35.1987 32.9088 35.1987C31.1022 35.2095 29.3055 35.4682 27.5686 35.9676C25.8033 36.4468 24.1058 37.149 22.5167 38.0573C20.3952 39.3189 18.9838 40.6401 18.2824 42.021C18.8463 40.5678 19.7828 39.093 21.0908 37.6365C22.4108 36.1595 23.8629 34.6861 25.4471 33.2163C26.7552 31.9789 27.9909 30.7546 29.1639 29.5063C30.266 28.3677 31.2401 27.1109 32.0685 25.7585C32.8365 24.5092 33.2199 23.2241 33.2199 21.9271C33.2199 20.7493 32.7998 19.5413 31.9961 18.3115C31.8102 18.4654 31.5771 18.5501 31.3361 18.5512C30.93 18.5378 30.5337 18.4222 30.1836 18.215C29.835 17.994 29.4325 17.8736 29.0203 17.8669H28.8755L28.9241 18.1315C29.8477 18.215 30.688 18.7073 31.4323 19.5608C32.1884 20.437 32.56 21.4944 32.56 22.7317C32.56 23.7891 32.2003 24.8822 31.4917 25.9992C30.709 27.2105 29.8088 28.3409 28.8043 29.374C27.9401 30.2752 26.7282 31.4638 25.1922 32.9419C23.4365 34.5476 21.7821 36.2615 20.2386 38.0736C18.7984 39.7675 17.9224 41.473 17.6106 43.19L17.5631 42.3854C17.548 40.996 17.913 39.6291 18.6184 38.4336C19.2916 37.3051 20.0541 36.2327 20.8986 35.2269C21.7746 34.1814 22.6873 33.161 23.6346 32.1524C26.2032 29.4012 27.9066 27.2149 28.7589 25.5578C29.2514 24.6089 29.4912 23.6839 29.4912 22.7946C29.4912 21.7622 29.1434 20.7168 28.4348 19.6595C27.7263 18.6021 26.6115 17.4493 25.0507 16.2369C24.2929 15.6465 23.4234 15.217 22.4951 14.9746H18.4704C18.066 15.0749 17.669 15.2032 17.2822 15.3585C16.2492 15.7788 15.3137 16.4087 14.5343 17.2086C13.2856 18.5099 12.6624 20.0076 12.6624 21.6766C12.6721 22.8703 12.9552 24.0458 13.4898 25.1121C14.0553 26.2681 14.7784 27.3393 15.6382 28.295L18.3138 26.0968C17.5044 25.8459 16.7508 25.4409 16.094 24.9039C15.3679 24.3336 14.7534 23.6331 14.2815 22.838C13.8157 22.0926 13.5665 21.2313 13.5622 20.3514C13.5622 19.2944 13.982 18.3335 14.8216 17.4689C15.5491 16.6941 16.4385 16.0907 17.4259 15.7023C18.3974 15.3046 19.4368 15.1009 20.486 15.1026C22.1429 15.1026 23.5947 15.583 24.8304 16.5319C26.0066 17.4689 26.6072 18.6216 26.6072 19.9913C26.6072 21.8407 25.6588 23.9185 23.7621 26.2248C22.8267 27.4025 21.7703 28.603 20.6296 29.8523C19.5257 31.0289 18.4693 32.2305 17.4734 33.4559C16.5184 34.605 15.682 35.8484 14.9772 37.167C14.3172 38.4282 13.9813 39.6775 13.9813 40.9387C13.9813 42.4569 14.5689 43.9654 15.7333 45.4793C15.6134 45.4078 15.4935 45.347 15.3736 45.2874L15.9612 46.0682C16.3903 46.2858 16.7546 46.6131 17.0176 47.0171C17.6408 47.9541 16.9096 47.1852 17.7737 47.8456C18.0631 48.0526 18.3182 48.304 18.5298 48.5906C19.0877 48.7815 19.6168 49.0482 20.1025 49.3834C21.2421 50.1523 22.3827 50.8723 23.559 51.5523C23.3617 51.6248 23.1724 51.7174 22.9941 51.8288L19.0699 54.3155C16.1178 56.2014 14.4976 57.2338 14.1865 57.378C13.9206 57.5219 13.6244 57.6004 13.3224 57.6068C12.99 57.5971 12.6665 57.4974 12.3859 57.3184L10.9341 56.5733C10.8546 56.5835 10.7745 56.5875 10.6943 56.5853L10.73 56.8141L10.7419 56.8976L13.7058 58.4158L16.0217 59.6413C16.2614 59.7652 16.5224 59.8424 16.7907 59.869L16.7951 59.8712Z" fill="white"/>
<path d="M54.8848 55.702C53.3848 56.9145 51.7527 57.615 49.9884 57.8037L50.0122 58.1876C54.0563 57.576 57.3206 56.0108 59.8049 53.4919C62.2893 50.9814 63.525 48.1781 63.525 45.1416C63.525 42.6546 62.6608 40.3805 60.9326 38.3193C59.9367 37.1415 58.9646 36.4334 58.0054 36.2165C58.1582 36.0706 58.2911 35.9051 58.4007 35.7242L60.5491 32.0131L60.2251 31.8212C59.9853 32.2767 59.685 32.5651 59.3005 32.6888C58.9159 32.8124 58.2808 32.8677 57.381 32.8677H50.1321L56.2285 29.3248C56.6606 29.084 56.9252 28.8075 57.0332 28.4832C57.1546 28.0951 57.2112 27.6894 57.2007 27.2827V21.6978C57.2007 20.9658 57.2374 20.4246 57.3206 20.0646C57.3936 19.7204 57.5746 19.4088 57.8369 19.1753L60.3925 17.374L60.1765 17.0487C59.6396 17.4387 58.9921 17.6452 58.3294 17.6376C57.7051 17.6376 56.9609 17.4933 56.1086 17.1929L51.3808 15.5836C49.9888 15.1274 48.8006 14.8989 47.8162 14.8982C47.1022 14.887 46.3916 15.0008 45.7164 15.2344C45.0608 15.4775 44.43 15.7833 43.8326 16.1475L41.6486 17.4207C41.8883 16.244 42.2243 15.3071 42.6563 14.6347C43.0884 13.9623 43.568 13.4808 44.0843 13.2054C44.5373 12.944 45.0493 12.8032 45.5717 12.7965C46.0338 12.785 46.4917 12.8882 46.9046 13.0969C47.2375 13.2511 47.5202 13.4966 47.7201 13.8051L47.9599 13.7097C47.7082 13.2173 47.1206 12.8323 46.2198 12.5319C45.8095 12.389 45.4149 12.2041 45.0424 11.9799C44.8775 11.8779 44.7364 11.7414 44.6286 11.5797C44.5209 11.418 44.4491 11.235 44.4181 11.043C43.1456 11.5353 42.2578 12.4246 41.7901 13.7097C41.3158 15.0249 41.0525 16.4075 41.0102 17.8056C41.0478 18.0682 41.0557 18.3341 41.0339 18.5984C41.0211 18.7156 41.0009 18.8319 40.9735 18.9465C40.9735 19.8835 40.9616 21.5492 40.9616 23.9795C40.5662 24.1476 40.1698 24.3048 39.7734 24.4599C39.4019 25.0393 38.8426 25.4722 38.1899 25.6853L37.5299 26.0812C37.3496 26.1579 37.16 26.2104 36.9661 26.2373L36.9293 26.2612L36.8818 26.298C36.4735 26.5258 36.21 26.8023 36.0901 27.1146C36.0394 27.2421 36.0032 27.3749 35.982 27.5105C35.9306 27.7795 35.9064 28.0531 35.9097 28.3271V35.1017L32.9695 36.8195C32.9814 36.8552 32.9814 36.8921 32.9933 36.9279C33.0051 36.9637 33.0051 37.0602 33.017 37.1448L33.0537 37.2175C33.4491 37.0006 33.798 36.8813 34.0972 36.8813C34.7215 36.8813 35.1773 37.2413 35.4776 37.9657C35.7768 38.739 35.9236 39.5633 35.9097 40.3928V46.6403C35.9097 47.4211 35.874 47.9861 35.7779 48.3581C35.6986 48.7272 35.4843 49.053 35.1773 49.2712C34.6859 47.9861 34.445 46.7845 34.445 45.6318C34.445 44.0702 34.89 43.0291 35.766 42.4727L35.5738 42.1474L33.3897 43.4325C32.7785 43.7458 32.2131 44.1417 31.7089 44.6091C31.6307 44.7174 31.5586 44.83 31.4929 44.9464C31.3873 45.1297 31.258 45.2981 31.1084 45.4474C30.91 45.9178 30.8157 46.4258 30.8319 46.9364C30.8319 47.9211 31.0479 49.0261 31.4681 50.2516C31.7505 51.0729 32.1336 51.8558 32.6087 52.5821C32.7135 52.6915 32.8058 52.8123 32.8842 52.9421C33.1488 53.3759 33.5085 53.4713 33.8325 54.1556L34.4201 54.6837L34.8889 55.3051C35.2592 55.4274 35.5988 55.6282 35.8848 55.894C36.2208 56.2063 36.2208 56.3506 36.4606 56.4221C37.3603 56.7106 37.6487 57.2637 37.841 57.3233C38.0641 57.3919 38.2775 57.4888 38.4761 57.6118C38.9449 57.8157 39.4126 58.0195 39.8803 58.2126H39.8685C39.9465 58.2393 40.0268 58.2593 40.1082 58.2722C40.2359 58.3005 40.3553 58.358 40.4571 58.4403L40.9605 58.6084C40.9605 60.8305 40.7563 62.5482 40.3124 63.7856C39.8803 64.9991 39.3403 65.8461 38.6922 66.3319C38.0441 66.8177 37.3722 67.0531 36.7122 67.0531C36.253 67.0634 35.7986 66.9559 35.3923 66.7407C34.9969 66.5358 34.7204 66.307 34.5649 66.0315L34.324 66.128C34.4761 66.4359 34.7252 66.6849 35.0326 66.8362C35.368 67.0222 35.7168 67.1828 36.076 67.3166C36.4877 67.4608 36.8822 67.6503 37.2523 67.8816C37.4169 67.9783 37.5581 68.1103 37.6661 68.2681C37.774 68.426 37.8459 68.6058 37.8766 68.7947C39.8447 68.0717 40.9526 66.2057 41.2003 63.1967C41.2964 61.9355 41.345 60.4585 41.345 58.7505C44.1304 59.6644 47.043 60.1268 49.9733 60.1201L50.8731 60.1082C51.0049 59.9878 51.1971 59.8913 51.7016 59.8913C51.843 59.7166 52.0439 59.6007 52.2654 59.566C52.4448 59.5466 52.6251 59.5387 52.8055 59.5421C53.2498 59.2891 53.7056 59.0487 54.173 58.821C54.9658 58.4728 55.6258 58.257 56.1896 58.1703C56.6619 58.0925 57.1391 58.0487 57.6176 58.0391L58.1814 57.9903C58.4695 57.9425 58.6736 57.8464 58.7939 57.7018C58.8526 57.6485 58.8998 57.5839 58.9329 57.5117C58.9659 57.4396 58.9841 57.3615 58.9862 57.2821C58.9828 57.1599 58.9404 57.042 58.8652 56.9459C58.7553 56.8523 58.6137 56.8049 58.4698 56.8136C58.3562 56.8143 58.2432 56.8303 58.1339 56.8613C57.0493 57.1835 55.987 57.5769 54.9539 58.0391C53.5755 58.5725 52.1106 58.8453 50.6333 58.8437C49.009 58.8392 47.3961 58.5715 45.8568 58.051C44.2689 57.522 42.7532 56.7956 41.345 55.8886V53.1015L43.7333 50.7157L41.345 48.3299V40.4708C41.3415 39.6275 41.3935 38.7848 41.5006 37.9484C41.5835 37.1764 41.7987 36.4246 42.1368 35.7263C42.4372 35.0755 42.9267 34.5311 43.541 34.1647L43.3487 33.8285L41.345 35.0214V33.8524C41.3416 33.009 41.3935 32.1664 41.5006 31.3299C41.5835 30.558 41.7987 29.8062 42.1368 29.1079C42.4372 28.4571 42.9267 27.9127 43.541 27.5463L43.3487 27.2101L41.3483 28.3878V24.2072C43.9039 23.0544 45.9681 21.5286 47.5646 19.595L47.2762 19.3673C45.7283 21.2043 43.7603 22.6825 41.3483 23.7875V21.0851C41.3381 20.0636 41.4103 19.0431 41.5643 18.0334C42.3232 17.7084 43.1373 17.5331 43.9622 17.5172C45.2469 17.5172 47.1671 18.0536 49.7227 19.1265C50.5026 19.4388 51.2706 19.7273 52.0623 19.98C52.8182 20.2269 53.6082 20.3525 54.403 20.352L54.9788 20.3281C54.3544 20.6285 53.9461 20.9159 53.7182 21.1957C53.4903 21.4755 53.3942 21.9765 53.3942 22.7215V28.3065C53.3942 29.2076 53.3348 29.8442 53.203 30.2162C53.0712 30.5882 52.7828 30.9135 52.3259 31.1651L49.376 32.8677H46.4466C46.0398 32.852 45.6335 32.9089 45.2466 33.0358C44.9344 33.1562 44.646 33.4208 44.4181 33.8285L42.2459 37.5406L42.5818 37.7326C42.8216 37.276 43.1338 36.9876 43.5064 36.8552C43.8791 36.7229 44.5142 36.6752 45.4021 36.6752H55.3503C55.0137 36.8761 54.6891 37.0967 54.3782 37.3357L52.206 39.0177L52.4469 39.318C52.9331 38.9561 53.5212 38.7583 54.1265 38.7531C55.3385 38.7531 56.5266 39.33 57.691 40.4947C59.1903 41.9963 59.9381 43.7943 59.9345 45.8888C59.9345 47.6659 59.4665 49.4433 58.5303 51.2211C57.6353 52.9507 56.3942 54.4762 54.8848 55.702ZM40.9637 48.3277L38.5636 50.7135L40.9637 53.0993V55.6457C38.1197 53.7359 36.2359 51.7416 35.3232 49.6399L38.7678 47.6348C39.188 47.394 39.4396 47.1175 39.5595 46.8052C39.6699 46.4108 39.7227 46.0024 39.7162 45.5927V26.9585C39.7074 26.4466 39.7678 25.9359 39.8955 25.4402C40.0283 24.9956 40.388 24.6356 40.9637 24.371V48.3277Z" fill="white"/>
</g>
<path fill-rule="evenodd" clip-rule="evenodd" d="M16.2409 54.6254V54.5777C15.8549 54.1302 15.4819 53.6736 15.1219 53.208H14.5937L14.1973 54.0604C14.5213 54.4812 14.8454 54.89 15.1932 55.2858L16.2409 54.6254Z" fill="white"/>
<path fill-rule="evenodd" clip-rule="evenodd" d="M60.9664 19.1802V19.036L60.9545 19.024H60.9426L59.8862 19.5402L59.815 19.588L59.8981 19.7083L60.9664 19.1802ZM41.7536 7.39648H33.0292C28.2536 8.11317 23.7299 10.0091 19.8643 12.9142V13.4781L21.2566 13.4423C24.6609 11.0305 28.5587 9.41225 32.6654 8.70569C36.7721 7.99912 40.9842 8.22207 44.9941 9.35827C45.3182 9.44286 45.6422 9.53829 45.9663 9.64674C49.7217 10.8577 53.1781 12.8556 56.1068 15.5082L57.0184 15.7132L56.4189 15.6763C56.3822 15.6763 56.3347 15.6644 56.2742 15.6644L56.1068 15.5082L57.0184 15.7132L57.8944 15.7728H58.1828C53.748 11.2778 47.9855 8.34139 41.7536 7.40082V7.39648Z" fill="white"/>
<path fill-rule="evenodd" clip-rule="evenodd" d="M12.9523 52.307H13.0841L13.5161 51.0946V50.8419C11.1494 46.9379 9.76996 42.5118 9.49809 37.9497C9.22623 33.3876 10.0702 28.828 11.9564 24.6685L11.5956 22.8672H11.4401C9.06201 27.4661 7.94849 32.6184 8.2143 37.7933C8.48012 42.9681 10.1156 47.9781 12.9523 52.307Z" fill="white"/>
<path fill-rule="evenodd" clip-rule="evenodd" d="M38.5983 64.3424V64.2589C38.2019 64.2708 37.7947 64.2827 37.3864 64.2827C31.8731 64.2902 26.4815 62.6557 21.8937 59.5859H20.861L20.2734 59.959C24.0915 62.7391 28.528 64.5409 33.1975 65.2078C34.204 65.3542 35.2176 65.4465 36.2338 65.4843C36.6184 65.4962 37.0018 65.5082 37.3864 65.5082H37.7579L38.5983 64.3424Z" fill="white"/>
<path fill-rule="evenodd" clip-rule="evenodd" d="M42.5342 65.0517H42.5698C45.8117 64.4707 48.9322 63.3424 51.7987 61.7148H49.0983C47.0495 62.6611 44.8934 63.353 42.6778 63.7753L42.5342 64.7361V65.0517ZM42.5342 63.8024V64.7394L42.6778 63.7786L42.5342 63.8024Z" fill="white"/>
<path fill-rule="evenodd" clip-rule="evenodd" d="M61.328 19.54H60.2359L60.0566 19.6376V19.9142C62.3265 23.068 63.9161 26.6625 64.724 30.468C65.532 34.2736 65.5404 38.2064 64.7488 42.0154L65.2047 45.2591C66.128 42.3625 66.5977 39.3395 66.597 36.2982C66.6081 30.2996 64.7673 24.445 61.328 19.54Z" fill="white"/>
<path fill-rule="evenodd" clip-rule="evenodd" d="M36.2093 69.9994C27.5221 69.6744 19.3013 65.9701 13.2852 59.6699C14.833 60.3542 16.3928 61.0396 17.9417 61.7358C20.1258 63.0936 21.1455 64.0544 23.7746 65.231C27.7344 67.0084 32.7399 68.5224 37.1188 68.6059L36.9158 68.967L36.2093 69.9994Z" fill="white"/>
<path fill-rule="evenodd" clip-rule="evenodd" d="M40.9375 68.4262L38.8982 69.9878C56.7553 69.2558 70.9994 54.5571 70.9994 36.5117C70.9994 18.0022 55.9992 3.00195 37.5058 3.00195C19.0125 3.00195 3.99612 18.0022 3.99612 36.5117C3.98775 43.143 5.95144 49.6258 9.63562 55.1297L11.4362 55.2023C7.53713 49.7571 5.44356 43.2181 5.45217 36.5117C5.45217 18.783 19.8053 4.41175 37.5058 4.41175C55.2064 4.41175 69.5476 18.7776 69.5476 36.5117C69.5476 53.0757 57.0178 66.7084 40.9375 68.4262Z" fill="white"/>
<path d="M16.7951 59.8712H16.9981C17.3341 59.8473 17.7542 59.6792 18.2706 59.355L25.7074 54.6332C26.0754 54.3688 26.4649 54.1359 26.8719 53.937C27.1383 53.7944 27.4341 53.7161 27.736 53.7082C28.073 53.712 28.4019 53.8121 28.6844 53.9967L28.8518 53.6605L25.0118 51.6781C23.6445 51.0158 22.346 50.2192 21.1351 49.2999C19.9956 48.4236 19.0591 47.2394 18.3397 45.7331C18.1832 45.2728 18.1022 44.7901 18.0999 44.3038C18.0999 42.1652 19.6359 40.1912 22.7078 38.3816C25.1654 36.9699 27.8781 36.0634 30.688 35.7149C31.1066 35.6673 31.5274 35.6434 31.9486 35.6433C33.544 35.6433 34.9007 35.9914 36.0046 36.6757C37.1085 37.36 37.6605 38.1657 37.6605 39.0908V39.2101L37.9121 39.2589L37.9359 39.042C37.9259 38.6616 37.8318 38.2883 37.6605 37.9489C37.4817 37.6117 37.3833 37.2375 37.3731 36.8557C37.379 36.5885 37.4815 36.3326 37.6615 36.1356C36.2692 35.511 34.6976 35.1987 32.9088 35.1987C31.1022 35.2095 29.3055 35.4682 27.5686 35.9676C25.8033 36.4468 24.1058 37.149 22.5167 38.0573C20.3952 39.3189 18.9838 40.6401 18.2824 42.021C18.8463 40.5678 19.7828 39.093 21.0908 37.6365C22.4108 36.1595 23.8629 34.6861 25.4471 33.2163C26.7552 31.9789 27.9909 30.7546 29.1639 29.5063C30.266 28.3677 31.2401 27.1109 32.0685 25.7585C32.8365 24.5092 33.2199 23.2241 33.2199 21.9271C33.2199 20.7493 32.7998 19.5413 31.9961 18.3115C31.8102 18.4654 31.5771 18.5501 31.3361 18.5512C30.93 18.5378 30.5337 18.4222 30.1836 18.215C29.835 17.994 29.4325 17.8736 29.0203 17.8669H28.8755L28.9241 18.1315C29.8477 18.215 30.688 18.7073 31.4323 19.5608C32.1884 20.437 32.56 21.4944 32.56 22.7317C32.56 23.7891 32.2003 24.8822 31.4917 25.9992C30.709 27.2105 29.8088 28.3409 28.8043 29.374C27.9401 30.2752 26.7282 31.4638 25.1922 32.9419C23.4365 34.5476 21.7821 36.2615 20.2386 38.0736C18.7984 39.7675 17.9224 41.473 17.6106 43.19L17.5631 42.3854C17.548 40.996 17.913 39.6291 18.6184 38.4336C19.2916 37.3051 20.0541 36.2327 20.8986 35.2269C21.7746 34.1814 22.6873 33.161 23.6346 32.1524C26.2032 29.4012 27.9066 27.2149 28.7589 25.5578C29.2514 24.6089 29.4912 23.6839 29.4912 22.7946C29.4912 21.7622 29.1434 20.7168 28.4348 19.6595C27.7263 18.6021 26.6115 17.4493 25.0507 16.2369C24.2929 15.6465 23.4234 15.217 22.4951 14.9746H18.4704C18.066 15.0749 17.669 15.2032 17.2822 15.3585C16.2492 15.7788 15.3137 16.4087 14.5343 17.2086C13.2856 18.5099 12.6624 20.0076 12.6624 21.6766C12.6721 22.8703 12.9552 24.0458 13.4898 25.1121C14.0553 26.2681 14.7784 27.3393 15.6382 28.295L18.3138 26.0968C17.5044 25.8459 16.7508 25.4409 16.094 24.9039C15.3679 24.3336 14.7534 23.6331 14.2815 22.838C13.8157 22.0926 13.5665 21.2313 13.5622 20.3514C13.5622 19.2944 13.982 18.3335 14.8216 17.4689C15.5491 16.6941 16.4385 16.0907 17.4259 15.7023C18.3974 15.3046 19.4368 15.1009 20.486 15.1026C22.1429 15.1026 23.5947 15.583 24.8304 16.5319C26.0066 17.4689 26.6072 18.6216 26.6072 19.9913C26.6072 21.8407 25.6588 23.9185 23.7621 26.2248C22.8267 27.4025 21.7703 28.603 20.6296 29.8523C19.5257 31.0289 18.4693 32.2305 17.4734 33.4559C16.5184 34.605 15.682 35.8484 14.9772 37.167C14.3172 38.4282 13.9813 39.6775 13.9813 40.9387C13.9813 42.4569 14.5689 43.9654 15.7333 45.4793C15.6134 45.4078 15.4935 45.347 15.3736 45.2874L15.9612 46.0682C16.3903 46.2858 16.7546 46.6131 17.0176 47.0171C17.6408 47.9541 16.9096 47.1852 17.7737 47.8456C18.0631 48.0526 18.3182 48.304 18.5298 48.5906C19.0877 48.7815 19.6168 49.0482 20.1025 49.3834C21.2421 50.1523 22.3827 50.8723 23.559 51.5523C23.3617 51.6248 23.1724 51.7174 22.9941 51.8288L19.0699 54.3155C16.1178 56.2014 14.4976 57.2338 14.1865 57.378C13.9206 57.5219 13.6244 57.6004 13.3224 57.6068C12.99 57.5971 12.6665 57.4974 12.3859 57.3184L10.9341 56.5733C10.8546 56.5835 10.7745 56.5875 10.6943 56.5853L10.73 56.8141L10.7419 56.8976L13.7058 58.4158L16.0217 59.6413C16.2614 59.7652 16.5224 59.8424 16.7907 59.869L16.7951 59.8712Z" fill="white"/>
<path d="M54.8848 55.702C53.3848 56.9145 51.7527 57.615 49.9884 57.8037L50.0122 58.1876C54.0563 57.576 57.3206 56.0108 59.8049 53.4919C62.2893 50.9814 63.525 48.1781 63.525 45.1416C63.525 42.6546 62.6608 40.3805 60.9326 38.3193C59.9367 37.1415 58.9646 36.4334 58.0054 36.2165C58.1582 36.0706 58.2911 35.9051 58.4007 35.7242L60.5491 32.0131L60.2251 31.8212C59.9853 32.2767 59.685 32.5651 59.3005 32.6888C58.9159 32.8124 58.2808 32.8677 57.381 32.8677H50.1321L56.2285 29.3248C56.6606 29.084 56.9252 28.8075 57.0332 28.4832C57.1546 28.0951 57.2112 27.6894 57.2007 27.2827V21.6978C57.2007 20.9658 57.2374 20.4246 57.3206 20.0646C57.3936 19.7204 57.5746 19.4088 57.8369 19.1753L60.3925 17.374L60.1765 17.0487C59.6396 17.4387 58.9921 17.6452 58.3294 17.6376C57.7051 17.6376 56.9609 17.4933 56.1086 17.1929L51.3808 15.5836C49.9888 15.1274 48.8006 14.8989 47.8162 14.8982C47.1022 14.887 46.3916 15.0008 45.7164 15.2344C45.0608 15.4775 44.43 15.7833 43.8326 16.1475L41.6486 17.4207C41.8883 16.244 42.2243 15.3071 42.6563 14.6347C43.0884 13.9623 43.568 13.4808 44.0843 13.2054C44.5373 12.944 45.0493 12.8032 45.5717 12.7965C46.0338 12.785 46.4917 12.8882 46.9046 13.0969C47.2375 13.2511 47.5202 13.4966 47.7201 13.8051L47.9599 13.7097C47.7082 13.2173 47.1206 12.8323 46.2198 12.5319C45.8095 12.389 45.4149 12.2041 45.0424 11.9799C44.8775 11.8779 44.7364 11.7414 44.6286 11.5797C44.5209 11.418 44.4491 11.235 44.4181 11.043C43.1456 11.5353 42.2578 12.4246 41.7901 13.7097C41.3158 15.0249 41.0525 16.4075 41.0102 17.8056C41.0478 18.0682 41.0557 18.3341 41.0339 18.5984C41.0211 18.7156 41.0009 18.8319 40.9735 18.9465C40.9735 19.8835 40.9616 21.5492 40.9616 23.9795C40.5662 24.1476 40.1698 24.3048 39.7734 24.4599C39.4019 25.0393 38.8426 25.4722 38.1899 25.6853L37.5299 26.0812C37.3496 26.1579 37.16 26.2104 36.9661 26.2373L36.9293 26.2612L36.8818 26.298C36.4735 26.5258 36.21 26.8023 36.0901 27.1146C36.0394 27.2421 36.0032 27.3749 35.982 27.5105C35.9306 27.7795 35.9064 28.0531 35.9097 28.3271V35.1017L32.9695 36.8195C32.9814 36.8552 32.9814 36.8921 32.9933 36.9279C33.0051 36.9637 33.0051 37.0602 33.017 37.1448L33.0537 37.2175C33.4491 37.0006 33.798 36.8813 34.0972 36.8813C34.7215 36.8813 35.1773 37.2413 35.4776 37.9657C35.7768 38.739 35.9236 39.5633 35.9097 40.3928V46.6403C35.9097 47.4211 35.874 47.9861 35.7779 48.3581C35.6986 48.7272 35.4843 49.053 35.1773 49.2712C34.6859 47.9861 34.445 46.7845 34.445 45.6318C34.445 44.0702 34.89 43.0291 35.766 42.4727L35.5738 42.1474L33.3897 43.4325C32.7785 43.7458 32.2131 44.1417 31.7089 44.6091C31.6307 44.7174 31.5586 44.83 31.4929 44.9464C31.3873 45.1297 31.258 45.2981 31.1084 45.4474C30.91 45.9178 30.8157 46.4258 30.8319 46.9364C30.8319 47.9211 31.0479 49.0261 31.4681 50.2516C31.7505 51.0729 32.1336 51.8558 32.6087 52.5821C32.7135 52.6915 32.8058 52.8123 32.8842 52.9421C33.1488 53.3759 33.5085 53.4713 33.8325 54.1556L34.4201 54.6837L34.8889 55.3051C35.2592 55.4274 35.5988 55.6282 35.8848 55.894C36.2208 56.2063 36.2208 56.3506 36.4606 56.4221C37.3603 56.7106 37.6487 57.2637 37.841 57.3233C38.0641 57.3919 38.2775 57.4888 38.4761 57.6118C38.9449 57.8157 39.4126 58.0195 39.8803 58.2126H39.8685C39.9465 58.2393 40.0268 58.2593 40.1082 58.2722C40.2359 58.3005 40.3553 58.358 40.4571 58.4403L40.9605 58.6084C40.9605 60.8305 40.7563 62.5482 40.3124 63.7856C39.8803 64.9991 39.3403 65.8461 38.6922 66.3319C38.0441 66.8177 37.3722 67.0531 36.7122 67.0531C36.253 67.0634 35.7986 66.9559 35.3923 66.7407C34.9969 66.5358 34.7204 66.307 34.5649 66.0315L34.324 66.128C34.4761 66.4359 34.7252 66.6849 35.0326 66.8362C35.368 67.0222 35.7168 67.1828 36.076 67.3166C36.4877 67.4608 36.8822 67.6503 37.2523 67.8816C37.4169 67.9783 37.5581 68.1103 37.6661 68.2681C37.774 68.426 37.8459 68.6058 37.8766 68.7947C39.8447 68.0717 40.9526 66.2057 41.2003 63.1967C41.2964 61.9355 41.345 60.4585 41.345 58.7505C44.1304 59.6644 47.043 60.1268 49.9733 60.1201L50.8731 60.1082C51.0049 59.9878 51.1971 59.8913 51.7016 59.8913C51.843 59.7166 52.0439 59.6007 52.2654 59.566C52.4448 59.5466 52.6251 59.5387 52.8055 59.5421C53.2498 59.2891 53.7056 59.0487 54.173 58.821C54.9658 58.4728 55.6258 58.257 56.1896 58.1703C56.6619 58.0925 57.1391 58.0487 57.6176 58.0391L58.1814 57.9903C58.4695 57.9425 58.6736 57.8464 58.7939 57.7018C58.8526 57.6485 58.8998 57.5839 58.9329 57.5117C58.9659 57.4396 58.9841 57.3615 58.9862 57.2821C58.9828 57.1599 58.9404 57.042 58.8652 56.9459C58.7553 56.8523 58.6137 56.8049 58.4698 56.8136C58.3562 56.8143 58.2432 56.8303 58.1339 56.8613C57.0493 57.1835 55.987 57.5769 54.9539 58.0391C53.5755 58.5725 52.1106 58.8453 50.6333 58.8437C49.009 58.8392 47.3961 58.5715 45.8568 58.051C44.2689 57.522 42.7532 56.7956 41.345 55.8886V53.1015L43.7333 50.7157L41.345 48.3299V40.4708C41.3415 39.6275 41.3935 38.7848 41.5006 37.9484C41.5835 37.1764 41.7987 36.4246 42.1368 35.7263C42.4372 35.0755 42.9267 34.5311 43.541 34.1647L43.3487 33.8285L41.345 35.0214V33.8524C41.3416 33.009 41.3935 32.1664 41.5006 31.3299C41.5835 30.558 41.7987 29.8062 42.1368 29.1079C42.4372 28.4571 42.9267 27.9127 43.541 27.5463L43.3487 27.2101L41.3483 28.3878V24.2072C43.9039 23.0544 45.9681 21.5286 47.5646 19.595L47.2762 19.3673C45.7283 21.2043 43.7603 22.6825 41.3483 23.7875V21.0851C41.3381 20.0636 41.4103 19.0431 41.5643 18.0334C42.3232 17.7084 43.1373 17.5331 43.9622 17.5172C45.2469 17.5172 47.1671 18.0536 49.7227 19.1265C50.5026 19.4388 51.2706 19.7273 52.0623 19.98C52.8182 20.2269 53.6082 20.3525 54.403 20.352L54.9788 20.3281C54.3544 20.6285 53.9461 20.9159 53.7182 21.1957C53.4903 21.4755 53.3942 21.9765 53.3942 22.7215V28.3065C53.3942 29.2076 53.3348 29.8442 53.203 30.2162C53.0712 30.5882 52.7828 30.9135 52.3259 31.1651L49.376 32.8677H46.4466C46.0398 32.852 45.6335 32.9089 45.2466 33.0358C44.9344 33.1562 44.646 33.4208 44.4181 33.8285L42.2459 37.5406L42.5818 37.7326C42.8216 37.276 43.1338 36.9876 43.5064 36.8552C43.8791 36.7229 44.5142 36.6752 45.4021 36.6752H55.3503C55.0137 36.8761 54.6891 37.0967 54.3782 37.3357L52.206 39.0177L52.4469 39.318C52.9331 38.9561 53.5212 38.7583 54.1265 38.7531C55.3385 38.7531 56.5266 39.33 57.691 40.4947C59.1903 41.9963 59.9381 43.7943 59.9345 45.8888C59.9345 47.6659 59.4665 49.4433 58.5303 51.2211C57.6353 52.9507 56.3942 54.4762 54.8848 55.702ZM40.9637 48.3277L38.5636 50.7135L40.9637 53.0993V55.6457C38.1197 53.7359 36.2359 51.7416 35.3232 49.6399L38.7678 47.6348C39.188 47.394 39.4396 47.1175 39.5595 46.8052C39.6699 46.4108 39.7227 46.0024 39.7162 45.5927V26.9585C39.7074 26.4466 39.7678 25.9359 39.8955 25.4402C40.0283 24.9956 40.388 24.6356 40.9637 24.371V48.3277Z" fill="white"/>
<g filter="url(#filter2_f_667_262)">
<path fill-rule="evenodd" clip-rule="evenodd" d="M16.2409 54.6254V54.5777C15.8549 54.1302 15.4819 53.6736 15.1219 53.208H14.5937L14.1973 54.0604C14.5213 54.4812 14.8454 54.89 15.1932 55.2858L16.2409 54.6254Z" fill="white"/>
<path fill-rule="evenodd" clip-rule="evenodd" d="M60.9664 19.1802V19.036L60.9545 19.024H60.9426L59.8862 19.5402L59.815 19.588L59.8981 19.7083L60.9664 19.1802ZM41.7536 7.39648H33.0292C28.2536 8.11317 23.7299 10.0091 19.8643 12.9142V13.4781L21.2566 13.4423C24.6609 11.0305 28.5587 9.41225 32.6654 8.70569C36.7721 7.99912 40.9842 8.22207 44.9941 9.35827C45.3182 9.44286 45.6422 9.53829 45.9663 9.64674C49.7217 10.8577 53.1781 12.8556 56.1068 15.5082L57.0184 15.7132L56.4189 15.6763C56.3822 15.6763 56.3347 15.6644 56.2742 15.6644L56.1068 15.5082L57.0184 15.7132L57.8944 15.7728H58.1828C53.748 11.2778 47.9855 8.34139 41.7536 7.40082V7.39648Z" fill="white"/>
<path fill-rule="evenodd" clip-rule="evenodd" d="M12.9523 52.307H13.0841L13.5161 51.0946V50.8419C11.1494 46.9379 9.76996 42.5118 9.49809 37.9497C9.22623 33.3876 10.0702 28.828 11.9564 24.6685L11.5956 22.8672H11.4401C9.06201 27.4661 7.94849 32.6184 8.2143 37.7933C8.48012 42.9681 10.1156 47.9781 12.9523 52.307Z" fill="white"/>
<path fill-rule="evenodd" clip-rule="evenodd" d="M38.5983 64.3424V64.2589C38.2019 64.2708 37.7947 64.2827 37.3864 64.2827C31.8731 64.2902 26.4815 62.6557 21.8937 59.5859H20.861L20.2734 59.959C24.0915 62.7391 28.528 64.5409 33.1975 65.2078C34.204 65.3542 35.2176 65.4465 36.2338 65.4843C36.6184 65.4962 37.0018 65.5082 37.3864 65.5082H37.7579L38.5983 64.3424Z" fill="white"/>
<path fill-rule="evenodd" clip-rule="evenodd" d="M42.5342 65.0517H42.5698C45.8117 64.4707 48.9322 63.3424 51.7987 61.7148H49.0983C47.0495 62.6611 44.8934 63.353 42.6778 63.7753L42.5342 64.7361V65.0517ZM42.5342 63.8024V64.7394L42.6778 63.7786L42.5342 63.8024Z" fill="white"/>
<path fill-rule="evenodd" clip-rule="evenodd" d="M61.328 19.54H60.2359L60.0566 19.6376V19.9142C62.3265 23.068 63.9161 26.6625 64.724 30.468C65.532 34.2736 65.5404 38.2064 64.7488 42.0154L65.2047 45.2591C66.128 42.3625 66.5977 39.3395 66.597 36.2982C66.6081 30.2996 64.7673 24.445 61.328 19.54Z" fill="white"/>
<path fill-rule="evenodd" clip-rule="evenodd" d="M36.2093 69.9994C27.5221 69.6744 19.3013 65.9701 13.2852 59.6699C14.833 60.3542 16.3928 61.0396 17.9417 61.7358C20.1258 63.0936 21.1455 64.0544 23.7746 65.231C27.7344 67.0084 32.7399 68.5224 37.1188 68.6059L36.9158 68.967L36.2093 69.9994Z" fill="white"/>
<path fill-rule="evenodd" clip-rule="evenodd" d="M40.9375 68.4262L38.8982 69.9878C56.7553 69.2558 70.9994 54.5571 70.9994 36.5117C70.9994 18.0022 55.9992 3.00195 37.5058 3.00195C19.0125 3.00195 3.99612 18.0022 3.99612 36.5117C3.98775 43.143 5.95144 49.6258 9.63562 55.1297L11.4362 55.2023C7.53713 49.7571 5.44356 43.2181 5.45217 36.5117C5.45217 18.783 19.8053 4.41175 37.5058 4.41175C55.2064 4.41175 69.5476 18.7776 69.5476 36.5117C69.5476 53.0757 57.0178 66.7084 40.9375 68.4262Z" fill="white"/>
<path d="M16.7951 59.8712H16.9981C17.3341 59.8473 17.7542 59.6792 18.2706 59.355L25.7074 54.6332C26.0754 54.3688 26.4649 54.1359 26.8719 53.937C27.1383 53.7944 27.4341 53.7161 27.736 53.7082C28.073 53.712 28.4019 53.8121 28.6844 53.9967L28.8518 53.6605L25.0118 51.6781C23.6445 51.0158 22.346 50.2192 21.1351 49.2999C19.9956 48.4236 19.0591 47.2394 18.3397 45.7331C18.1832 45.2728 18.1022 44.7901 18.0999 44.3038C18.0999 42.1652 19.6359 40.1912 22.7078 38.3816C25.1654 36.9699 27.8781 36.0634 30.688 35.7149C31.1066 35.6673 31.5274 35.6434 31.9486 35.6433C33.544 35.6433 34.9007 35.9914 36.0046 36.6757C37.1085 37.36 37.6605 38.1657 37.6605 39.0908V39.2101L37.9121 39.2589L37.9359 39.042C37.9259 38.6616 37.8318 38.2883 37.6605 37.9489C37.4817 37.6117 37.3833 37.2375 37.3731 36.8557C37.379 36.5885 37.4815 36.3326 37.6615 36.1356C36.2692 35.511 34.6976 35.1987 32.9088 35.1987C31.1022 35.2095 29.3055 35.4682 27.5686 35.9676C25.8033 36.4468 24.1058 37.149 22.5167 38.0573C20.3952 39.3189 18.9838 40.6401 18.2824 42.021C18.8463 40.5678 19.7828 39.093 21.0908 37.6365C22.4108 36.1595 23.8629 34.6861 25.4471 33.2163C26.7552 31.9789 27.9909 30.7546 29.1639 29.5063C30.266 28.3677 31.2401 27.1109 32.0685 25.7585C32.8365 24.5092 33.2199 23.2241 33.2199 21.9271C33.2199 20.7493 32.7998 19.5413 31.9961 18.3115C31.8102 18.4654 31.5771 18.5501 31.3361 18.5512C30.93 18.5378 30.5337 18.4222 30.1836 18.215C29.835 17.994 29.4325 17.8736 29.0203 17.8669H28.8755L28.9241 18.1315C29.8477 18.215 30.688 18.7073 31.4323 19.5608C32.1884 20.437 32.56 21.4944 32.56 22.7317C32.56 23.7891 32.2003 24.8822 31.4917 25.9992C30.709 27.2105 29.8088 28.3409 28.8043 29.374C27.9401 30.2752 26.7282 31.4638 25.1922 32.9419C23.4365 34.5476 21.7821 36.2615 20.2386 38.0736C18.7984 39.7675 17.9224 41.473 17.6106 43.19L17.5631 42.3854C17.548 40.996 17.913 39.6291 18.6184 38.4336C19.2916 37.3051 20.0541 36.2327 20.8986 35.2269C21.7746 34.1814 22.6873 33.161 23.6346 32.1524C26.2032 29.4012 27.9066 27.2149 28.7589 25.5578C29.2514 24.6089 29.4912 23.6839 29.4912 22.7946C29.4912 21.7622 29.1434 20.7168 28.4348 19.6595C27.7263 18.6021 26.6115 17.4493 25.0507 16.2369C24.2929 15.6465 23.4234 15.217 22.4951 14.9746H18.4704C18.066 15.0749 17.669 15.2032 17.2822 15.3585C16.2492 15.7788 15.3137 16.4087 14.5343 17.2086C13.2856 18.5099 12.6624 20.0076 12.6624 21.6766C12.6721 22.8703 12.9552 24.0458 13.4898 25.1121C14.0553 26.2681 14.7784 27.3393 15.6382 28.295L18.3138 26.0968C17.5044 25.8459 16.7508 25.4409 16.094 24.9039C15.3679 24.3336 14.7534 23.6331 14.2815 22.838C13.8157 22.0926 13.5665 21.2313 13.5622 20.3514C13.5622 19.2944 13.982 18.3335 14.8216 17.4689C15.5491 16.6941 16.4385 16.0907 17.4259 15.7023C18.3974 15.3046 19.4368 15.1009 20.486 15.1026C22.1429 15.1026 23.5947 15.583 24.8304 16.5319C26.0066 17.4689 26.6072 18.6216 26.6072 19.9913C26.6072 21.8407 25.6588 23.9185 23.7621 26.2248C22.8267 27.4025 21.7703 28.603 20.6296 29.8523C19.5257 31.0289 18.4693 32.2305 17.4734 33.4559C16.5184 34.605 15.682 35.8484 14.9772 37.167C14.3172 38.4282 13.9813 39.6775 13.9813 40.9387C13.9813 42.4569 14.5689 43.9654 15.7333 45.4793C15.6134 45.4078 15.4935 45.347 15.3736 45.2874L15.9612 46.0682C16.3903 46.2858 16.7546 46.6131 17.0176 47.0171C17.6408 47.9541 16.9096 47.1852 17.7737 47.8456C18.0631 48.0526 18.3182 48.304 18.5298 48.5906C19.0877 48.7815 19.6168 49.0482 20.1025 49.3834C21.2421 50.1523 22.3827 50.8723 23.559 51.5523C23.3617 51.6248 23.1724 51.7174 22.9941 51.8288L19.0699 54.3155C16.1178 56.2014 14.4976 57.2338 14.1865 57.378C13.9206 57.5219 13.6244 57.6004 13.3224 57.6068C12.99 57.5971 12.6665 57.4974 12.3859 57.3184L10.9341 56.5733C10.8546 56.5835 10.7745 56.5875 10.6943 56.5853L10.73 56.8141L10.7419 56.8976L13.7058 58.4158L16.0217 59.6413C16.2614 59.7652 16.5224 59.8424 16.7907 59.869L16.7951 59.8712Z" fill="white"/>
<path d="M54.8848 55.702C53.3848 56.9145 51.7527 57.615 49.9884 57.8037L50.0122 58.1876C54.0563 57.576 57.3206 56.0108 59.8049 53.4919C62.2893 50.9814 63.525 48.1781 63.525 45.1416C63.525 42.6546 62.6608 40.3805 60.9326 38.3193C59.9367 37.1415 58.9646 36.4334 58.0054 36.2165C58.1582 36.0706 58.2911 35.9051 58.4007 35.7242L60.5491 32.0131L60.2251 31.8212C59.9853 32.2767 59.685 32.5651 59.3005 32.6888C58.9159 32.8124 58.2808 32.8677 57.381 32.8677H50.1321L56.2285 29.3248C56.6606 29.084 56.9252 28.8075 57.0332 28.4832C57.1546 28.0951 57.2112 27.6894 57.2007 27.2827V21.6978C57.2007 20.9658 57.2374 20.4246 57.3206 20.0646C57.3936 19.7204 57.5746 19.4088 57.8369 19.1753L60.3925 17.374L60.1765 17.0487C59.6396 17.4387 58.9921 17.6452 58.3294 17.6376C57.7051 17.6376 56.9609 17.4933 56.1086 17.1929L51.3808 15.5836C49.9888 15.1274 48.8006 14.8989 47.8162 14.8982C47.1022 14.887 46.3916 15.0008 45.7164 15.2344C45.0608 15.4775 44.43 15.7833 43.8326 16.1475L41.6486 17.4207C41.8883 16.244 42.2243 15.3071 42.6563 14.6347C43.0884 13.9623 43.568 13.4808 44.0843 13.2054C44.5373 12.944 45.0493 12.8032 45.5717 12.7965C46.0338 12.785 46.4917 12.8882 46.9046 13.0969C47.2375 13.2511 47.5202 13.4966 47.7201 13.8051L47.9599 13.7097C47.7082 13.2173 47.1206 12.8323 46.2198 12.5319C45.8095 12.389 45.4149 12.2041 45.0424 11.9799C44.8775 11.8779 44.7364 11.7414 44.6286 11.5797C44.5209 11.418 44.4491 11.235 44.4181 11.043C43.1456 11.5353 42.2578 12.4246 41.7901 13.7097C41.3158 15.0249 41.0525 16.4075 41.0102 17.8056C41.0478 18.0682 41.0557 18.3341 41.0339 18.5984C41.0211 18.7156 41.0009 18.8319 40.9735 18.9465C40.9735 19.8835 40.9616 21.5492 40.9616 23.9795C40.5662 24.1476 40.1698 24.3048 39.7734 24.4599C39.4019 25.0393 38.8426 25.4722 38.1899 25.6853L37.5299 26.0812C37.3496 26.1579 37.16 26.2104 36.9661 26.2373L36.9293 26.2612L36.8818 26.298C36.4735 26.5258 36.21 26.8023 36.0901 27.1146C36.0394 27.2421 36.0032 27.3749 35.982 27.5105C35.9306 27.7795 35.9064 28.0531 35.9097 28.3271V35.1017L32.9695 36.8195C32.9814 36.8552 32.9814 36.8921 32.9933 36.9279C33.0051 36.9637 33.0051 37.0602 33.017 37.1448L33.0537 37.2175C33.4491 37.0006 33.798 36.8813 34.0972 36.8813C34.7215 36.8813 35.1773 37.2413 35.4776 37.9657C35.7768 38.739 35.9236 39.5633 35.9097 40.3928V46.6403C35.9097 47.4211 35.874 47.9861 35.7779 48.3581C35.6986 48.7272 35.4843 49.053 35.1773 49.2712C34.6859 47.9861 34.445 46.7845 34.445 45.6318C34.445 44.0702 34.89 43.0291 35.766 42.4727L35.5738 42.1474L33.3897 43.4325C32.7785 43.7458 32.2131 44.1417 31.7089 44.6091C31.6307 44.7174 31.5586 44.83 31.4929 44.9464C31.3873 45.1297 31.258 45.2981 31.1084 45.4474C30.91 45.9178 30.8157 46.4258 30.8319 46.9364C30.8319 47.9211 31.0479 49.0261 31.4681 50.2516C31.7505 51.0729 32.1336 51.8558 32.6087 52.5821C32.7135 52.6915 32.8058 52.8123 32.8842 52.9421C33.1488 53.3759 33.5085 53.4713 33.8325 54.1556L34.4201 54.6837L34.8889 55.3051C35.2592 55.4274 35.5988 55.6282 35.8848 55.894C36.2208 56.2063 36.2208 56.3506 36.4606 56.4221C37.3603 56.7106 37.6487 57.2637 37.841 57.3233C38.0641 57.3919 38.2775 57.4888 38.4761 57.6118C38.9449 57.8157 39.4126 58.0195 39.8803 58.2126H39.8685C39.9465 58.2393 40.0268 58.2593 40.1082 58.2722C40.2359 58.3005 40.3553 58.358 40.4571 58.4403L40.9605 58.6084C40.9605 60.8305 40.7563 62.5482 40.3124 63.7856C39.8803 64.9991 39.3403 65.8461 38.6922 66.3319C38.0441 66.8177 37.3722 67.0531 36.7122 67.0531C36.253 67.0634 35.7986 66.9559 35.3923 66.7407C34.9969 66.5358 34.7204 66.307 34.5649 66.0315L34.324 66.128C34.4761 66.4359 34.7252 66.6849 35.0326 66.8362C35.368 67.0222 35.7168 67.1828 36.076 67.3166C36.4877 67.4608 36.8822 67.6503 37.2523 67.8816C37.4169 67.9783 37.5581 68.1103 37.6661 68.2681C37.774 68.426 37.8459 68.6058 37.8766 68.7947C39.8447 68.0717 40.9526 66.2057 41.2003 63.1967C41.2964 61.9355 41.345 60.4585 41.345 58.7505C44.1304 59.6644 47.043 60.1268 49.9733 60.1201L50.8731 60.1082C51.0049 59.9878 51.1971 59.8913 51.7016 59.8913C51.843 59.7166 52.0439 59.6007 52.2654 59.566C52.4448 59.5466 52.6251 59.5387 52.8055 59.5421C53.2498 59.2891 53.7056 59.0487 54.173 58.821C54.9658 58.4728 55.6258 58.257 56.1896 58.1703C56.6619 58.0925 57.1391 58.0487 57.6176 58.0391L58.1814 57.9903C58.4695 57.9425 58.6736 57.8464 58.7939 57.7018C58.8526 57.6485 58.8998 57.5839 58.9329 57.5117C58.9659 57.4396 58.9841 57.3615 58.9862 57.2821C58.9828 57.1599 58.9404 57.042 58.8652 56.9459C58.7553 56.8523 58.6137 56.8049 58.4698 56.8136C58.3562 56.8143 58.2432 56.8303 58.1339 56.8613C57.0493 57.1835 55.987 57.5769 54.9539 58.0391C53.5755 58.5725 52.1106 58.8453 50.6333 58.8437C49.009 58.8392 47.3961 58.5715 45.8568 58.051C44.2689 57.522 42.7532 56.7956 41.345 55.8886V53.1015L43.7333 50.7157L41.345 48.3299V40.4708C41.3415 39.6275 41.3935 38.7848 41.5006 37.9484C41.5835 37.1764 41.7987 36.4246 42.1368 35.7263C42.4372 35.0755 42.9267 34.5311 43.541 34.1647L43.3487 33.8285L41.345 35.0214V33.8524C41.3416 33.009 41.3935 32.1664 41.5006 31.3299C41.5835 30.558 41.7987 29.8062 42.1368 29.1079C42.4372 28.4571 42.9267 27.9127 43.541 27.5463L43.3487 27.2101L41.3483 28.3878V24.2072C43.9039 23.0544 45.9681 21.5286 47.5646 19.595L47.2762 19.3673C45.7283 21.2043 43.7603 22.6825 41.3483 23.7875V21.0851C41.3381 20.0636 41.4103 19.0431 41.5643 18.0334C42.3232 17.7084 43.1373 17.5331 43.9622 17.5172C45.2469 17.5172 47.1671 18.0536 49.7227 19.1265C50.5026 19.4388 51.2706 19.7273 52.0623 19.98C52.8182 20.2269 53.6082 20.3525 54.403 20.352L54.9788 20.3281C54.3544 20.6285 53.9461 20.9159 53.7182 21.1957C53.4903 21.4755 53.3942 21.9765 53.3942 22.7215V28.3065C53.3942 29.2076 53.3348 29.8442 53.203 30.2162C53.0712 30.5882 52.7828 30.9135 52.3259 31.1651L49.376 32.8677H46.4466C46.0398 32.852 45.6335 32.9089 45.2466 33.0358C44.9344 33.1562 44.646 33.4208 44.4181 33.8285L42.2459 37.5406L42.5818 37.7326C42.8216 37.276 43.1338 36.9876 43.5064 36.8552C43.8791 36.7229 44.5142 36.6752 45.4021 36.6752H55.3503C55.0137 36.8761 54.6891 37.0967 54.3782 37.3357L52.206 39.0177L52.4469 39.318C52.9331 38.9561 53.5212 38.7583 54.1265 38.7531C55.3385 38.7531 56.5266 39.33 57.691 40.4947C59.1903 41.9963 59.9381 43.7943 59.9345 45.8888C59.9345 47.6659 59.4665 49.4433 58.5303 51.2211C57.6353 52.9507 56.3942 54.4762 54.8848 55.702ZM40.9637 48.3277L38.5636 50.7135L40.9637 53.0993V55.6457C38.1197 53.7359 36.2359 51.7416 35.3232 49.6399L38.7678 47.6348C39.188 47.394 39.4396 47.1175 39.5595 46.8052C39.6699 46.4108 39.7227 46.0024 39.7162 45.5927V26.9585C39.7074 26.4466 39.7678 25.9359 39.8955 25.4402C40.0283 24.9956 40.388 24.6356 40.9637 24.371V48.3277Z" fill="white"/>
</g>
</g>
<defs>
<filter id="filter0_d_667_262" x="-3" y="0" width="81" height="81" filterUnits="userSpaceOnUse" color-interpolation-filters="sRGB">
<feFlood flood-opacity="0" result="BackgroundImageFix"/>
<feColorMatrix in="SourceAlpha" type="matrix" values="0 0 0 0 0 0 0 0 0 0 0 0 0 0 0 0 0 0 127 0" result="hardAlpha"/>
<feOffset dy="4"/>
<feGaussianBlur stdDeviation="2"/>
<feComposite in2="hardAlpha" operator="out"/>
<feColorMatrix type="matrix" values="0 0 0 0 0 0 0 0 0 0 0 0 0 0 0 0 0 0 0.25 0"/>
<feBlend mode="normal" in2="BackgroundImageFix" result="effect1_dropShadow_667_262"/>
<feBlend mode="normal" in="SourceGraphic" in2="effect1_dropShadow_667_262" result="shape"/>
</filter>
<filter id="filter1_f_667_262" x="0.996094" y="0.00195312" width="73.0029" height="72.9971" filterUnits="userSpaceOnUse" color-interpolation-filters="sRGB">
<feFlood flood-opacity="0" result="BackgroundImageFix"/>
<feBlend mode="normal" in="SourceGraphic" in2="BackgroundImageFix" result="shape"/>
<feGaussianBlur stdDeviation="1.5" result="effect1_foregroundBlur_667_262"/>
</filter>
<filter id="filter2_f_667_262" x="0.996094" y="0.00195312" width="73.0029" height="72.9971" filterUnits="userSpaceOnUse" color-interpolation-filters="sRGB">
<feFlood flood-opacity="0" result="BackgroundImageFix"/>
<feBlend mode="normal" in="SourceGraphic" in2="BackgroundImageFix" result="shape"/>
<feGaussianBlur stdDeviation="1.5" result="effect1_foregroundBlur_667_262"/>
</filter>
<clipPath id="clip0_667_262">
<rect width="73" height="73" fill="white" transform="translate(1)"/>
</clipPath>
</defs>
</svg>
