<svg width="73" height="73" viewBox="0 0 73 73" fill="none" xmlns="http://www.w3.org/2000/svg">
<rect width="73" height="73" fill="#D9D9D9"/>
<path d="M18.94 39.06H12.8L12.9 38.66L13.54 37.96L13.68 36.94C13.68 36.92 13.7 36.88 13.7 36.86C13.66 34.84 13.6 32.82 13.54 30.78V30.48C13.34 29.98 13.24 29.74 13.02 29.5L12.98 28.98C14.06 29.02 14.44 29.02 14.78 29.02C15.14 29.02 15.44 29.02 16.42 28.98V29.4C16 29.46 15.76 29.58 15.58 29.68L15.52 29.72C15.48 29.74 15.44 29.76 15.4 29.76C15.38 29.76 15.36 29.76 15.32 29.74C15.12 31.12 15.2 32.6 15.12 34.64L14.98 34.9V36.5L15.3 37.94C15.42 38.04 15.56 38.18 15.7 38.28H17.44C17.84 38.12 18.18 37.98 18.38 37.88L18.8 37.74L19.22 37.34L20.02 36.98C19.92 37.64 19.9 37.72 19.82 37.78L19.76 38C19.76 38.04 19.72 38.12 19.72 38.16L18.94 39.06ZM14.72 33.24L14.06 33.14C14.06 33.18 14.08 33.26 14.1 33.24H14.72ZM14.08 34.28L14.2 34.42C14.36 34.42 14.38 34.4 14.38 34.4C14.38 34.34 14.1 34.28 14.08 34.28ZM14.24 32.54L14.46 32.46C14.32 32.38 14.3 32.38 14.28 32.38L14.24 32.54ZM14.06 36.02L13.88 35.9V36.06L14.06 36.02ZM14.54 36.66L14.7 36.52C14.74 36.48 14.76 36.46 14.76 36.42L14.54 36.66ZM30.6017 38.38L30.4617 38.48C30.2817 38.58 30.1417 38.66 30.0417 38.76L28.7217 39.28H28.3017C27.5617 39.28 26.8817 39.36 26.2417 39.36L26.1417 39.16C25.4217 39.06 24.0417 38.6 23.4417 38.14L21.9417 36.22C21.6817 35.54 21.5617 34.44 21.3617 34.1V32.92L21.5817 32.48C21.8417 31.8 22.1417 31.42 22.4817 30.52L22.9617 30.02L23.3817 29.86L24.2817 29.14L24.4617 29.06C25.4617 28.64 25.6017 28.8 25.8017 28.6H28.1617L28.7017 28.82C28.7617 28.86 29.1617 28.9 29.2817 29L29.8017 29.22C29.9617 29.3 30.1217 29.38 30.2417 29.42L31.0217 30.16C31.5417 30.16 31.6817 30.74 31.9017 31.36L32.0617 31.8L32.2817 31.86C32.3617 31.88 32.4217 31.9 32.5017 31.9L32.7417 32.48C32.7417 33.56 32.7617 34.52 32.8017 35.54C32.6617 35.5 32.5617 35.48 32.3217 35.48H32.0017C31.9217 35.48 31.8417 35.48 31.7617 35.46L31.6617 35.86C31.8217 35.82 32.0617 35.76 32.1817 35.7L32.5017 35.62L32.4217 36.5C31.8417 37.28 31.1617 38.16 30.6017 38.38ZM30.1817 36.9L30.8417 35.5C30.8417 35.42 30.9217 34.94 30.9217 34.92L31.0017 34.36C31.0017 33.76 30.8417 33.14 30.8417 32.52C30.6417 32.06 30.4017 31.44 30.2417 31L29.0217 29.76C28.0417 29.42 28.0617 29.38 27.1817 29.08C26.7817 29.18 26.4017 29.3 26.2417 29.38L25.8817 29.54C25.5817 29.78 24.7417 30.38 24.7417 30.52L24.4417 30.96L24.2417 30.94L23.9817 31.98C23.8017 32.16 23.6417 32.72 23.5617 32.8C23.4217 33.7 23.2817 34.06 23.2417 34.6L23.4017 34.74C23.5017 35.24 23.5617 35.5 23.6417 35.72L23.8217 36.46C23.9617 36.72 24.2017 36.9 24.5017 37.22L25.0017 37.76L25.3417 38.04C25.6617 38.2 25.6417 38.2 25.6417 38.2C25.6417 38.22 26.5017 38.36 26.7217 38.64L26.7617 38.72C26.7817 38.72 26.9017 38.7 26.9217 38.68C28.1017 38.36 29.3617 38 29.8617 36.96L30.1817 36.9ZM22.5817 35.92V36C22.7017 35.36 22.7617 35.16 22.8017 35.06C22.5817 35.22 22.1417 35.74 22.1417 35.98C22.1417 36 22.1817 36.02 22.2817 36.02C22.3617 36.02 22.4617 35.98 22.5817 35.92ZM22.9817 32.04L23.0417 31.62L22.9017 31.4C22.6817 31.6 22.6417 31.76 22.6017 32.04H22.9817ZM31.8017 34.68V35.02C31.8617 35.02 31.9817 35.04 32.0217 35.08C32.0417 34.98 32.1017 34.92 32.1217 34.82C32.0417 34.8 31.8617 34.72 31.8017 34.68ZM31.7617 34L31.5817 34.2C31.6017 34.22 31.6017 34.26 31.6017 34.28C31.7017 34.2 31.9217 34.04 32.0417 33.98C31.9617 33.98 31.8417 34 31.7617 34ZM23.0017 33.46L22.8617 33.36L22.5617 33.42C22.6017 33.42 22.6617 33.44 22.7417 33.44H22.8217C22.8817 33.46 22.9217 33.46 23.0017 33.46ZM22.3617 32.76H22.4817C22.4817 32.76 22.4417 32.76 22.4217 32.68L22.3617 32.62C22.3217 32.62 22.3017 32.64 22.2017 32.64L22.3617 32.76ZM31.7417 36.84L31.7817 36.68L31.5817 36.74C31.5617 36.74 31.5417 36.76 31.5217 36.76C31.7017 36.82 31.7217 36.84 31.7417 36.84ZM24.0417 30.78V30.66L23.9417 30.5C23.9417 30.58 23.9417 30.76 23.9617 30.76L24.0417 30.78ZM31.6217 33.52H31.3817V33.64L31.6217 33.52ZM31.5417 37.2L31.4617 36.9C31.4417 36.96 31.4217 37.02 31.4217 37.06L31.5417 37.2ZM32.1017 33.02V32.88C32.0817 32.9 32.0617 32.96 32.0617 32.96L32.1017 33.02ZM23.2217 30.62C23.2217 30.64 23.2017 30.66 23.1817 30.68C23.2017 30.66 23.2217 30.66 23.2217 30.62ZM45.4992 38.02L44.3192 38.58L43.6192 38.84C43.4592 38.92 43.2592 39 43.2392 39C42.4992 39.14 42.2392 39.18 42.1192 39.28H41.8992C41.2992 39.28 40.7592 39.34 39.5992 39.34C39.3192 39.22 38.9592 39.1 38.6192 39L38.3592 38.92C37.8592 38.76 37.3392 38.56 37.2992 38.5L36.1392 37.54C35.9392 36.98 35.4392 36.92 35.2192 36.86C35.1392 36.26 35.0592 36.08 34.7992 32.84L34.9592 32.42C35.1392 31.96 35.2792 31.64 35.8992 31.5C35.9592 31.2 36.0592 30.84 36.1192 30.52C36.6392 30.02 37.1792 29.62 37.6192 29.38L37.9192 29.36C38.3592 29.34 39.2392 29.1 39.5592 28.88L40.5592 28.72C40.7792 28.7 40.9592 28.68 41.1192 28.64C41.3192 28.7 41.6992 28.82 42.5592 28.82L43.0792 28.88L43.7992 29.24C43.8192 29.24 43.8392 29.26 43.8592 29.26H44.1192C44.2792 29.26 44.4792 29.3 44.6392 29.3L44.5392 30.52H44.2792L43.3192 29.68L42.4192 29.26H40.6392C40.1392 29.44 39.4392 29.76 38.7992 30.18C38.5192 30.46 38.5592 30.62 37.9992 30.86L37.6792 31.46C37.5592 31.7 37.4192 31.86 37.3192 32.02C37.2992 32.38 37.2192 32.82 37.0792 33C36.9792 33.52 36.9592 34.36 36.9592 35.34C36.9992 35.72 37.0392 35.84 37.3192 36V36.38C37.3192 36.8 37.5992 37.02 37.9192 37.02L38.7992 38.2C38.9192 38.28 38.9592 38.3 39.0192 38.3L39.1392 38.36C39.1792 38.36 39.3192 38.44 39.3192 38.44L39.7192 38.52C39.7992 38.52 40.1592 38.62 40.3392 38.76L40.4392 38.84C40.9192 38.82 41.7592 38.78 42.2392 38.72L42.4192 38.6C42.4192 38.6 42.6592 38.4 42.7592 38.32L42.9992 38.14C43.2592 37.94 43.5992 37.74 43.9192 37.54L44.5392 37.32C44.5392 37.22 44.5792 37.08 44.7192 36.66C44.5392 36.66 44.1992 36.64 44.0392 36.62L43.8792 36.98C43.7792 36.98 43.6992 36.98 43.5992 37L43.4992 35.4C43.3792 35.32 43.1592 35.24 42.9792 35.2L42.7192 35.14C42.6992 35.14 42.6192 35.12 42.5992 35.1L42.1192 34.98V34.5H42.5792C42.6992 34.48 42.9392 34.46 43.2192 34.46L43.5192 34.58L44.0592 34.42H45.5392L45.6392 34.52C45.6792 34.68 45.6792 34.82 45.6792 34.92H45.7792V35.12C45.7792 35.5 45.6992 35.96 45.3592 36.2C45.3592 36.22 45.3792 36.26 45.3792 36.28V36.42C45.3792 36.56 45.4392 36.46 45.4392 36.8H45.1192C45.1392 37.12 45.2992 37.4 45.4992 37.64V38.02ZM44.7992 35.96L44.8992 35.68H44.3392V36.1L44.7992 35.96ZM35.9592 34.1L36.0992 33.96H35.5592V34.38L35.9592 34.1ZM55.9142 38.38L55.7742 38.48C55.5942 38.58 55.4542 38.66 55.3542 38.76L54.0342 39.28H53.6142C52.8742 39.28 52.1942 39.36 51.5542 39.36L51.4542 39.16C50.7342 39.06 49.3542 38.6 48.7542 38.14L47.2542 36.22C46.9942 35.54 46.8742 34.44 46.6742 34.1V32.92L46.8942 32.48C47.1542 31.8 47.4542 31.42 47.7942 30.52L48.2742 30.02L48.6942 29.86L49.5942 29.14L49.7742 29.06C50.7742 28.64 50.9142 28.8 51.1142 28.6H53.4742L54.0142 28.82C54.0742 28.86 54.4742 28.9 54.5942 29L55.1142 29.22C55.2742 29.3 55.4342 29.38 55.5542 29.42L56.3342 30.16C56.8542 30.16 56.9942 30.74 57.2142 31.36L57.3742 31.8L57.5942 31.86C57.6742 31.88 57.7342 31.9 57.8142 31.9L58.0542 32.48C58.0542 33.56 58.0742 34.52 58.1142 35.54C57.9742 35.5 57.8742 35.48 57.6342 35.48H57.3142C57.2342 35.48 57.1542 35.48 57.0742 35.46L56.9742 35.86C57.1342 35.82 57.3742 35.76 57.4942 35.7L57.8142 35.62L57.7342 36.5C57.1542 37.28 56.4742 38.16 55.9142 38.38ZM55.4942 36.9L56.1542 35.5C56.1542 35.42 56.2342 34.94 56.2342 34.92L56.3142 34.36C56.3142 33.76 56.1542 33.14 56.1542 32.52C55.9542 32.06 55.7142 31.44 55.5542 31L54.3342 29.76C53.3542 29.42 53.3742 29.38 52.4942 29.08C52.0942 29.18 51.7142 29.3 51.5542 29.38L51.1942 29.54C50.8942 29.78 50.0542 30.38 50.0542 30.52L49.7542 30.96L49.5542 30.94L49.2942 31.98C49.1142 32.16 48.9542 32.72 48.8742 32.8C48.7342 33.7 48.5942 34.06 48.5542 34.6L48.7142 34.74C48.8142 35.24 48.8742 35.5 48.9542 35.72L49.1342 36.46C49.2742 36.72 49.5142 36.9 49.8142 37.22L50.3142 37.76L50.6542 38.04C50.9742 38.2 50.9542 38.2 50.9542 38.2C50.9542 38.22 51.8142 38.36 52.0342 38.64L52.0742 38.72C52.0942 38.72 52.2142 38.7 52.2342 38.68C53.4142 38.36 54.6742 38 55.1742 36.96L55.4942 36.9ZM47.8942 35.92V36C48.0142 35.36 48.0742 35.16 48.1142 35.06C47.8942 35.22 47.4542 35.74 47.4542 35.98C47.4542 36 47.4942 36.02 47.5942 36.02C47.6742 36.02 47.7742 35.98 47.8942 35.92ZM48.2942 32.04L48.3542 31.62L48.2142 31.4C47.9942 31.6 47.9542 31.76 47.9142 32.04H48.2942ZM57.1142 34.68V35.02C57.1742 35.02 57.2942 35.04 57.3342 35.08C57.3542 34.98 57.4142 34.92 57.4342 34.82C57.3542 34.8 57.1742 34.72 57.1142 34.68ZM57.0742 34L56.8942 34.2C56.9142 34.22 56.9142 34.26 56.9142 34.28C57.0142 34.2 57.2342 34.04 57.3542 33.98C57.2742 33.98 57.1542 34 57.0742 34ZM48.3142 33.46L48.1742 33.36L47.8742 33.42C47.9142 33.42 47.9742 33.44 48.0542 33.44H48.1342C48.1942 33.46 48.2342 33.46 48.3142 33.46ZM47.6742 32.76H47.7942C47.7942 32.76 47.7542 32.76 47.7342 32.68L47.6742 32.62C47.6342 32.62 47.6142 32.64 47.5142 32.64L47.6742 32.76ZM57.0542 36.84L57.0942 36.68L56.8942 36.74C56.8742 36.74 56.8542 36.76 56.8342 36.76C57.0142 36.82 57.0342 36.84 57.0542 36.84ZM49.3542 30.78V30.66L49.2542 30.5C49.2542 30.58 49.2542 30.76 49.2742 30.76L49.3542 30.78ZM56.9342 33.52H56.6942V33.64L56.9342 33.52ZM56.8542 37.2L56.7742 36.9C56.7542 36.96 56.7342 37.02 56.7342 37.06L56.8542 37.2ZM57.4142 33.02V32.88C57.3942 32.9 57.3742 32.96 57.3742 32.96L57.4142 33.02ZM48.5342 30.62C48.5342 30.64 48.5142 30.66 48.4942 30.68C48.5142 30.66 48.5342 30.66 48.5342 30.62Z" fill="black"/>
</svg>
