<svg width="39" height="39" viewBox="0 0 39 39" fill="none" xmlns="http://www.w3.org/2000/svg">
<path d="M7.33156 0C7.07908 0 6.86977 0.195645 6.85249 0.448125C6.84385 0.578685 6.76525 1.83717 6.84781 3.73125H0.480307C0.217267 3.73125 0.00366707 3.94307 0.000307071 4.20563C-0.00305293 4.50947 -0.0415797 11.6935 4.04562 15.8297C5.84418 17.6498 8.16818 18.5828 10.9522 18.6159C12.0994 20.4515 13.5143 21.8901 15.6153 22.8544V26.3353H13.6269C12.3961 26.3353 11.3947 27.3373 11.3947 28.5675V32.2491H10.4825C10.2175 32.2491 10.0025 32.4636 10.0025 32.7291V37.92C10.0025 38.1854 10.2175 38.4 10.4825 38.4H27.9172C28.1821 38.4 28.3972 38.1854 28.3972 37.92V32.73C28.3972 32.4646 28.1821 32.25 27.9172 32.25H27.0059V28.5675C27.0059 27.3373 26.0045 26.3363 24.7737 26.3363H22.7844V22.86C24.8882 21.8957 26.3003 20.4539 27.4484 18.6159C30.2329 18.5838 32.5588 17.6503 34.3569 15.8297C38.4431 11.6935 38.4023 4.50995 38.3984 4.20563C38.3951 3.94307 38.181 3.73125 37.9184 3.73125H31.5519C31.6344 1.83717 31.5558 0.578685 31.5472 0.448125C31.5299 0.195645 31.3206 0 31.0681 0H7.33156ZM7.79093 0.96H30.6087C30.6659 2.76096 30.684 9.65645 27.9931 15.5278C26.5992 18.5701 25.066 20.8525 22.1169 22.1053C21.9397 22.1802 21.8253 22.3544 21.8253 22.5469V26.3363H16.5753V22.5488C16.5724 22.3611 16.4557 22.1788 16.2809 22.1053C13.3333 20.8516 11.8014 18.5691 10.4075 15.5278C7.71373 9.65021 7.73333 2.76 7.79093 0.96ZM11.9122 3.73125C11.6472 3.73749 11.4372 3.95754 11.4434 4.2225C11.4444 4.26618 11.469 5.31609 11.6787 6.83625C11.7119 7.07673 11.9184 7.25063 12.1541 7.25063C12.1761 7.25063 12.1976 7.2493 12.2197 7.24594C12.4822 7.20994 12.6663 6.96802 12.6303 6.70594C12.4287 5.24434 12.403 4.21102 12.4025 4.20094C12.3967 3.9355 12.1805 3.72933 11.9122 3.73125ZM0.970619 4.69125H6.90124C7.10764 7.75221 7.74044 12.0137 9.53468 15.9281C9.8078 16.5238 10.0866 17.0916 10.3794 17.6316C8.11809 17.4866 6.21797 16.6609 4.73093 15.1575C1.50197 11.8925 1.03686 6.34005 0.970619 4.69125ZM31.4984 4.69125H37.4291C37.3633 6.34005 36.9 11.8916 33.6716 15.1566C32.1845 16.6609 30.284 17.4876 28.0212 17.6316C28.314 17.0916 28.5928 16.5229 28.8659 15.9272C30.6597 12.0128 31.293 7.75221 31.4984 4.69125ZM12.6969 9.27188C12.6354 9.26135 12.5712 9.2625 12.5066 9.2775C12.2483 9.33846 12.0879 9.59724 12.1494 9.855C12.8022 12.6227 13.8058 14.7729 15.1316 16.2441C15.2261 16.3492 15.3563 16.4025 15.4878 16.4025C15.602 16.4025 15.7177 16.3613 15.8094 16.2788C16.0062 16.1012 16.0217 15.7982 15.8441 15.6009C14.6277 14.2512 13.6994 12.2435 13.0841 9.63469C13.0383 9.44137 12.8814 9.30347 12.6969 9.27188ZM13.6269 27.2953H24.7737C25.475 27.2953 26.0459 27.8662 26.0459 28.5675V32.2491H12.3547V28.5675C12.3547 27.8662 12.9256 27.2953 13.6269 27.2953ZM10.9625 33.21H27.4381V37.44H10.9625V33.21Z" fill="white"/>
</svg>
