<svg width="300" height="300" viewBox="0 0 300 300" fill="none" xmlns="http://www.w3.org/2000/svg">
<rect x="2.5" y="2.5" width="295" height="295" rx="17.5" stroke="white" stroke-width="5"/>
<path d="M122 85L150 101.5V133L122 117L122 85Z" fill="white"/>
<path d="M150.5 132.138V101.786L177.5 85.875V116.71L150.5 132.138ZM176.98 85.0208L150 100.92L123.02 85.0208L150 70.5672L176.98 85.0208Z" stroke="white"/>
<path d="M38.064 203.8C38.064 201.08 38.608 198.712 39.696 196.696C40.784 194.648 42.288 193.064 44.208 191.944C46.16 190.824 48.384 190.264 50.88 190.264C54.112 190.264 56.768 191.048 58.848 192.616C60.96 194.184 62.352 196.36 63.024 199.144H58.32C57.872 197.544 56.992 196.28 55.68 195.352C54.4 194.424 52.8 193.96 50.88 193.96C48.384 193.96 46.368 194.824 44.832 196.552C43.296 198.248 42.528 200.664 42.528 203.8C42.528 206.968 43.296 209.416 44.832 211.144C46.368 212.872 48.384 213.736 50.88 213.736C52.8 213.736 54.4 213.288 55.68 212.392C56.96 211.496 57.84 210.216 58.32 208.552H63.024C62.32 211.24 60.912 213.4 58.8 215.032C56.688 216.632 54.048 217.432 50.88 217.432C48.384 217.432 46.16 216.872 44.208 215.752C42.288 214.632 40.784 213.048 39.696 211C38.608 208.952 38.064 206.552 38.064 203.8ZM79.7003 217.432C77.2362 217.432 74.9962 216.872 72.9803 215.752C70.9962 214.632 69.4282 213.048 68.2762 211C67.1562 208.92 66.5962 206.52 66.5962 203.8C66.5962 201.112 67.1722 198.744 68.3242 196.696C69.5082 194.616 71.1082 193.032 73.1242 191.944C75.1402 190.824 77.3963 190.264 79.8923 190.264C82.3883 190.264 84.6443 190.824 86.6603 191.944C88.6763 193.032 90.2603 194.6 91.4122 196.648C92.5962 198.696 93.1882 201.08 93.1882 203.8C93.1882 206.52 92.5802 208.92 91.3643 211C90.1803 213.048 88.5643 214.632 86.5163 215.752C84.4683 216.872 82.1963 217.432 79.7003 217.432ZM79.7003 213.592C81.2682 213.592 82.7403 213.224 84.1163 212.488C85.4923 211.752 86.5963 210.648 87.4283 209.176C88.2923 207.704 88.7242 205.912 88.7242 203.8C88.7242 201.688 88.3082 199.896 87.4763 198.424C86.6443 196.952 85.5563 195.864 84.2123 195.16C82.8683 194.424 81.4123 194.056 79.8442 194.056C78.2443 194.056 76.7723 194.424 75.4283 195.16C74.1162 195.864 73.0602 196.952 72.2603 198.424C71.4602 199.896 71.0602 201.688 71.0602 203.8C71.0602 205.944 71.4442 207.752 72.2122 209.224C73.0122 210.696 74.0682 211.8 75.3802 212.536C76.6923 213.24 78.1323 213.592 79.7003 213.592ZM129.939 190.216C131.987 190.216 133.811 190.648 135.411 191.512C137.011 192.344 138.275 193.608 139.203 195.304C140.131 197 140.595 199.064 140.595 201.496V217H136.275V202.12C136.275 199.496 135.619 197.496 134.307 196.12C133.027 194.712 131.283 194.008 129.075 194.008C126.803 194.008 124.995 194.744 123.651 196.216C122.307 197.656 121.635 199.752 121.635 202.504V217H117.315V202.12C117.315 199.496 116.659 197.496 115.347 196.12C114.067 194.712 112.323 194.008 110.115 194.008C107.843 194.008 106.035 194.744 104.691 196.216C103.347 197.656 102.675 199.752 102.675 202.504V217H98.3074V190.696H102.675V194.488C103.539 193.112 104.691 192.056 106.131 191.32C107.603 190.584 109.219 190.216 110.979 190.216C113.187 190.216 115.139 190.712 116.835 191.704C118.531 192.696 119.795 194.152 120.627 196.072C121.363 194.216 122.579 192.776 124.275 191.752C125.971 190.728 127.859 190.216 129.939 190.216ZM151.504 195.544C152.368 194.04 153.648 192.792 155.344 191.8C157.072 190.776 159.072 190.264 161.344 190.264C163.68 190.264 165.792 190.824 167.68 191.944C169.6 193.064 171.104 194.648 172.193 196.696C173.28 198.712 173.824 201.064 173.824 203.752C173.824 206.408 173.28 208.776 172.193 210.856C171.104 212.936 169.6 214.552 167.68 215.704C165.792 216.856 163.68 217.432 161.344 217.432C159.104 217.432 157.12 216.936 155.392 215.944C153.696 214.92 152.4 213.656 151.504 212.152V229.48H147.136V190.696H151.504V195.544ZM169.36 203.752C169.36 201.768 168.96 200.04 168.161 198.568C167.36 197.096 166.272 195.976 164.896 195.208C163.552 194.44 162.064 194.056 160.432 194.056C158.832 194.056 157.344 194.456 155.968 195.256C154.624 196.024 153.536 197.16 152.704 198.664C151.904 200.136 151.504 201.848 151.504 203.8C151.504 205.784 151.904 207.528 152.704 209.032C153.536 210.504 154.624 211.64 155.968 212.44C157.344 213.208 158.832 213.592 160.432 213.592C162.064 213.592 163.552 213.208 164.896 212.44C166.272 211.64 167.36 210.504 168.161 209.032C168.96 207.528 169.36 205.768 169.36 203.752ZM177.318 203.752C177.318 201.064 177.862 198.712 178.95 196.696C180.038 194.648 181.526 193.064 183.414 191.944C185.334 190.824 187.462 190.264 189.798 190.264C192.102 190.264 194.102 190.76 195.798 191.752C197.494 192.744 198.758 193.992 199.59 195.496V190.696H204.006V217H199.59V212.104C198.726 213.64 197.43 214.92 195.702 215.944C194.006 216.936 192.022 217.432 189.75 217.432C187.414 217.432 185.302 216.856 183.414 215.704C181.526 214.552 180.038 212.936 178.95 210.856C177.862 208.776 177.318 206.408 177.318 203.752ZM199.59 203.8C199.59 201.816 199.19 200.088 198.39 198.616C197.59 197.144 196.502 196.024 195.126 195.256C193.782 194.456 192.294 194.056 190.662 194.056C189.03 194.056 187.542 194.44 186.198 195.208C184.854 195.976 183.782 197.096 182.982 198.568C182.182 200.04 181.782 201.768 181.782 203.752C181.782 205.768 182.182 207.528 182.982 209.032C183.782 210.504 184.854 211.64 186.198 212.44C187.542 213.208 189.03 213.592 190.662 213.592C192.294 213.592 193.782 213.208 195.126 212.44C196.502 211.64 197.59 210.504 198.39 209.032C199.19 207.528 199.59 205.784 199.59 203.8ZM223.58 190.216C226.78 190.216 229.372 191.192 231.356 193.144C233.34 195.064 234.332 197.848 234.332 201.496V217H230.012V202.12C230.012 199.496 229.356 197.496 228.044 196.12C226.732 194.712 224.94 194.008 222.668 194.008C220.364 194.008 218.524 194.728 217.148 196.168C215.804 197.608 215.132 199.704 215.132 202.456V217H210.764V190.696H215.132V194.44C215.996 193.096 217.164 192.056 218.636 191.32C220.14 190.584 221.788 190.216 223.58 190.216ZM263.499 190.696L247.659 229.384H243.147L248.331 216.712L237.723 190.696H242.571L250.827 212.008L258.987 190.696H263.499Z" fill="white"/>
</svg>
