<svg width="48" height="31" viewBox="0 0 48 31" fill="none" xmlns="http://www.w3.org/2000/svg">
<path d="M23.9382 0C20.3602 0 17.4382 2.922 17.4382 6.5C17.4382 10.078 20.3602 13 23.9382 13C27.5162 13 30.4382 10.078 30.4382 6.5C30.4382 2.922 27.5162 0 23.9382 0ZM23.9382 2C26.4353 2 28.4382 4.00287 28.4382 6.5C28.4382 8.99712 26.4353 11 23.9382 11C21.441 11 19.4382 8.99712 19.4382 6.5C19.4382 4.00287 21.441 2 23.9382 2ZM8.93817 6C7.35484 6 6.04006 6.62976 5.19013 7.58594C4.34019 8.54212 3.93818 9.77777 3.93818 11C3.93818 12.2222 4.34019 13.4579 5.19013 14.4141C6.04006 15.3702 7.35483 16 8.93817 16C10.5215 16 11.8363 15.3702 12.6862 14.4141C13.5362 13.4579 13.9382 12.2222 13.9382 11C13.9382 9.77777 13.5362 8.54212 12.6862 7.58594C11.8363 6.62976 10.5215 6 8.93817 6ZM38.9382 6C37.3548 6 36.04 6.62976 35.1901 7.58594C34.3402 8.54212 33.9382 9.77777 33.9382 11C33.9382 12.2222 34.3402 13.4579 35.1901 14.4141C36.04 15.3702 37.3548 16 38.9382 16C40.5215 16 41.8363 15.3702 42.6862 14.4141C43.5361 13.4579 43.9382 12.2222 43.9382 11C43.9382 9.77777 43.5361 8.54212 42.6862 7.58594C41.8363 6.62976 40.5215 6 38.9382 6ZM8.93817 8C10.0215 8 10.7067 8.37024 11.1901 8.91406C11.6735 9.45787 11.9382 10.2222 11.9382 11C11.9382 11.7778 11.6735 12.5421 11.1901 13.0859C10.7067 13.6298 10.0215 14 8.93817 14C7.85484 14 7.16961 13.6298 6.68622 13.0859C6.20284 12.5421 5.93818 11.7778 5.93818 11C5.93818 10.2222 6.20283 9.45787 6.68622 8.91406C7.16961 8.37024 7.85484 8 8.93817 8ZM38.9382 8C40.0215 8 40.7067 8.37024 41.1901 8.91406C41.6735 9.45787 41.9382 10.2222 41.9382 11C41.9382 11.7778 41.6735 12.5421 41.1901 13.0859C40.7067 13.6298 40.0215 14 38.9382 14C37.8548 14 37.1696 13.6298 36.6862 13.0859C36.2028 12.5421 35.9382 11.7778 35.9382 11C35.9382 10.2222 36.2028 9.45787 36.6862 8.91406C37.1696 8.37024 37.8548 8 38.9382 8ZM23.9382 16C18.5443 16 13.7538 19.4758 12.0808 24.6035L11.655 25.9043C11.5357 26.2699 11.4819 26.6377 11.4733 27H2.99873C2.29069 27 1.82544 26.3617 2.04756 25.6953C2.04822 25.6927 2.04887 25.6901 2.04951 25.6875L2.33857 24.791L2.34052 24.7871C3.27907 21.9249 5.92797 20 8.93817 20C9.6697 20 10.3777 20.1142 11.0456 20.3281C11.3873 20.4429 11.7644 20.3649 12.0326 20.124C12.3008 19.883 12.4185 19.5163 12.3407 19.1643C12.2629 18.8123 12.0017 18.5294 11.6569 18.4238C10.7948 18.1477 9.87864 18 8.93817 18C5.06989 18 1.64087 20.4944 0.438179 24.1699C0.437529 24.1712 0.436879 24.1725 0.436229 24.1738L0.149119 25.0644C0.148679 25.0657 0.149549 25.0671 0.149119 25.0684C-0.485441 26.9808 0.988138 29 2.99873 29H11.9733C12.6334 30.1698 13.8774 31 15.3522 31H32.5241C33.9989 31 35.2434 30.1698 35.903 29H44.8776C46.8882 29 48.3618 26.9808 47.7272 25.0684L47.4401 24.1738C47.4395 24.1725 47.4388 24.1712 47.4382 24.1699C46.2355 20.4944 42.8065 18 38.9382 18C37.9977 18 37.0816 18.1477 36.2194 18.4238C35.8747 18.5294 35.6135 18.8123 35.5357 19.1643C35.4579 19.5164 35.5756 19.883 35.8437 20.124C36.1119 20.365 36.489 20.443 36.8308 20.3281C37.4986 20.1142 38.2066 20 38.9382 20C41.9499 20 44.6005 21.9265 45.5378 24.791L45.8268 25.6875C45.8275 25.6901 45.8281 25.6927 45.8288 25.6953C46.0509 26.3617 45.5857 27 44.8776 27H36.403C36.3943 26.6377 36.3389 26.2699 36.2194 25.9043L35.7956 24.6035C34.1236 19.4756 29.332 16 23.9382 16ZM23.9382 18C28.4743 18 32.4872 20.9125 33.8932 25.2246L34.319 26.5254C34.7267 27.7733 33.837 29 32.5241 29H15.3522C14.0393 29 13.1502 27.7733 13.5573 26.5254L13.9811 25.2246C15.3881 20.9123 19.402 18 23.9382 18Z" fill="white"/>
</svg>
