<svg width="27" height="28" viewBox="0 0 27 28" fill="none" xmlns="http://www.w3.org/2000/svg">
<path fill-rule="evenodd" clip-rule="evenodd" d="M13.125 0.916504C9.56025 0.916504 9.114 0.931379 7.714 0.995254C6.31662 1.05913 5.362 1.28138 4.52725 1.606C3.65225 1.935 2.85862 2.45125 2.20237 3.11975C1.53494 3.77525 1.01838 4.56831 0.688625 5.44375C0.36575 6.2785 0.142625 7.234 0.07875 8.63138C0.01575 10.0305 0 10.4759 0 14.0415C0 17.6071 0.014875 18.0525 0.07875 19.4525C0.142625 20.8499 0.364875 21.8045 0.6895 22.6393C1.0185 23.5143 1.53475 24.3079 2.20325 24.9641C2.85876 25.6315 3.65182 26.1481 4.52725 26.4779C5.362 26.8016 6.31662 27.0239 7.714 27.0878C9.114 27.1516 9.56025 27.1665 13.125 27.1665C16.6897 27.1665 17.136 27.1516 18.536 27.0878C19.9334 27.0239 20.888 26.8016 21.7228 26.477C22.5978 26.148 23.3914 25.6318 24.0476 24.9633C24.7151 24.3078 25.2316 23.5147 25.5614 22.6393C25.8851 21.8045 26.1074 20.8499 26.1712 19.4525C26.2351 18.0525 26.25 17.6063 26.25 14.0415C26.25 10.4768 26.2351 10.0305 26.1712 8.6305C26.1074 7.23313 25.8851 6.2785 25.5605 5.44375C25.231 4.56794 24.7144 3.77453 24.0468 3.11888C23.3913 2.45145 22.5982 1.93488 21.7228 1.60513C20.888 1.28225 19.9325 1.05913 18.5351 0.995254C17.136 0.932254 16.6906 0.916504 13.125 0.916504ZM13.125 3.28163C16.6294 3.28163 17.045 3.29475 18.4293 3.35775C19.7085 3.41638 20.4033 3.629 20.8661 3.81013C21.4786 4.04725 21.9161 4.3325 22.3755 4.791C22.8349 5.25038 23.1193 5.68788 23.3564 6.30038C23.5366 6.76325 23.7501 7.458 23.8087 8.73725C23.8717 10.1215 23.8849 10.5371 23.8849 14.0415C23.8849 17.5459 23.8717 17.9615 23.8087 19.3458C23.7501 20.625 23.5375 21.3198 23.3564 21.7826C23.1463 22.3527 22.8111 22.8685 22.3755 23.292C21.9521 23.7277 21.4363 24.0629 20.8661 24.2729C20.4033 24.4531 19.7085 24.6666 18.4293 24.7253C17.045 24.7883 16.6303 24.8014 13.125 24.8014C9.61975 24.8014 9.205 24.7883 7.82075 24.7253C6.5415 24.6666 5.84675 24.454 5.38387 24.2729C4.81377 24.0628 4.29801 23.7276 3.8745 23.292C3.4389 22.8685 3.10374 22.3527 2.89362 21.7826C2.71337 21.3198 2.49987 20.625 2.44125 19.3458C2.37825 17.9615 2.36513 17.5459 2.36513 14.0415C2.36513 10.5371 2.37825 10.1215 2.44125 8.73725C2.49987 7.458 2.7125 6.76325 2.89362 6.30038C3.13075 5.68788 3.416 5.25038 3.8745 4.791C4.29795 4.35529 4.81373 4.02011 5.38387 3.81013C5.84675 3.62988 6.5415 3.41638 7.82075 3.35775C9.205 3.29475 9.62062 3.28163 13.125 3.28163V3.28163Z" fill="white" fill-opacity="0.6"/>
<path fill-rule="evenodd" clip-rule="evenodd" d="M13.1252 18.4209C12.55 18.4209 11.9806 18.3077 11.4492 18.0876C10.9179 17.8675 10.4351 17.5449 10.0285 17.1383C9.62181 16.7316 9.29922 16.2488 9.07914 15.7175C8.85906 15.1861 8.74578 14.6167 8.74578 14.0416C8.74578 13.4665 8.85906 12.897 9.07914 12.3656C9.29922 11.8343 9.62181 11.3515 10.0285 10.9449C10.4351 10.5382 10.9179 10.2156 11.4492 9.99555C11.9806 9.77546 12.55 9.66219 13.1252 9.66219C14.2866 9.66219 15.4005 10.1236 16.2218 10.9449C17.0431 11.7662 17.5045 12.8801 17.5045 14.0416C17.5045 15.203 17.0431 16.317 16.2218 17.1383C15.4005 17.9595 14.2866 18.4209 13.1252 18.4209V18.4209ZM13.1252 7.29531C11.3359 7.29531 9.62 8.00608 8.35484 9.27124C7.08967 10.5364 6.37891 12.2523 6.37891 14.0416C6.37891 15.8308 7.08967 17.5467 8.35484 18.8119C9.62 20.0771 11.3359 20.7878 13.1252 20.7878C14.9144 20.7878 16.6303 20.0771 17.8955 18.8119C19.1606 17.5467 19.8714 15.8308 19.8714 14.0416C19.8714 12.2523 19.1606 10.5364 17.8955 9.27124C16.6303 8.00608 14.9144 7.29531 13.1252 7.29531V7.29531ZM21.834 7.17281C21.834 7.59575 21.666 8.00137 21.367 8.30043C21.0679 8.59949 20.6623 8.7675 20.2393 8.7675C19.8164 8.7675 19.4108 8.59949 19.1117 8.30043C18.8127 8.00137 18.6447 7.59575 18.6447 7.17281C18.6447 6.74988 18.8127 6.34426 19.1117 6.0452C19.4108 5.74614 19.8164 5.57813 20.2393 5.57812C20.6623 5.57812 21.0679 5.74614 21.367 6.0452C21.666 6.34426 21.834 6.74988 21.834 7.17281" fill="white" fill-opacity="0.6"/>
</svg>
