<svg width="27" height="28" viewBox="0 0 27 28" fill="none" xmlns="http://www.w3.org/2000/svg">
<path d="M26.5 2.84665V25.2364C26.5 25.7483 26.2966 26.2392 25.9347 26.6012C25.5727 26.9632 25.0818 27.1665 24.5699 27.1665H2.18015C1.66824 27.1665 1.1773 26.9632 0.815327 26.6012C0.453354 26.2392 0.25 25.7483 0.25 25.2364L0.25 2.84665C0.25 2.33474 0.453354 1.8438 0.815327 1.48183C1.1773 1.11986 1.66824 0.916504 2.18015 0.916504L24.5699 0.916504C25.0818 0.916504 25.5727 1.11986 25.9347 1.48183C26.2966 1.8438 26.5 2.33474 26.5 2.84665V2.84665ZM7.97059 10.9533H4.11029V23.3062H7.97059V10.9533ZM8.31801 6.70695C8.32005 6.41495 8.26455 6.1254 8.15468 5.85485C8.04482 5.5843 7.88273 5.33804 7.67769 5.13013C7.47265 4.92223 7.22867 4.75674 6.95967 4.64313C6.69067 4.52951 6.40193 4.47 6.10993 4.46797H6.04044C5.44663 4.46797 4.87714 4.70387 4.45725 5.12375C4.03736 5.54364 3.80147 6.11313 3.80147 6.70695C3.80147 7.30076 4.03736 7.87025 4.45725 8.29014C4.87714 8.71002 5.44663 8.94592 6.04044 8.94592V8.94592C6.33246 8.9531 6.62304 8.90267 6.89556 8.79752C7.16809 8.69237 7.41722 8.53454 7.62873 8.33307C7.84024 8.1316 8.00998 7.89043 8.12825 7.62333C8.24652 7.35624 8.311 7.06846 8.31801 6.77643V6.70695ZM22.6397 15.8018C22.6397 12.0882 20.2772 10.6444 17.9301 10.6444C17.1617 10.606 16.3965 10.7696 15.7111 11.1192C15.0256 11.4687 14.4437 11.9918 14.0235 12.6364H13.9154V10.9533H10.2868V23.3062H14.1471V16.736C14.0913 16.0631 14.3032 15.3953 14.7369 14.8778C15.1706 14.3603 15.7909 14.0348 16.4632 13.972H16.6099C17.8375 13.972 18.7485 14.7441 18.7485 16.6897V23.3062H22.6088L22.6397 15.8018Z" fill="white" fill-opacity="0.6"/>
</svg>
